<svg version="2" id="AndroidTV-Banner" xmlns="http://www.w3.org/2000/svg" xmlns:xlink="http://www.w3.org/1999/xlink" viewBox="0 0 320 180">
	<path id="Background" fill="#CD201F" d="M0 0h320v180H0z"/>
	<g fill="#EEE">
		<path id="Logo" d="M48.9 57.09v65.82l9.93-6.33v-42L84.58 89.8 66.1 100.46v12.2l38.4-22.86z"/>
		<path d="M120.7 85.63v19.65h-6.15V75.42h6.15l12 19.69V75.42h6.13v29.85h-6.15z"/>
		<path id="e" d="M153.18 105.68c-3.25 0-5.9-1-7.95-2.99s-3.07-4.66-3.07-7.98v-.57c0-2.23.43-4.22 1.29-5.98s2.08-3.11
			3.66-4.06 3.38-1.42 5.4-1.42c3.04 0 5.43.96 7.17 2.87 1.74 1.91 2.62 4.63 2.62 8.14v2.42h-14.13c.19 1.45.77
			2.61 1.73 3.49.96.88 2.18 1.31 3.66 1.31 2.28 0 4.07-.83 5.35-2.48l2.91 3.26c-.89 1.26-2.09 2.24-3.61
			2.94-1.5.7-3.18 1.05-5.03 1.05zm-.67-18.23c-1.18 0-2.13.4-2.86 1.19-.73.8-1.2 1.94-1.4 3.42h8.24v-.47c-.03
			-1.32-.38-2.34-1.07-3.06s-1.66-1.08-2.91-1.08z"/>
		<path d="M184.97 97.21l2.91-14.13h5.72l-5.66 22.19h-4.96l-4.2-13.97-4.2 13.97h-4.94l-5.66-22.19h5.72l2.89 14.11 4.06-14.11h4.29z"/>
		<path d="M203.08 94.75v10.52h-6.15V75.42h11.65c2.24 0 4.21.41 5.92 1.23 1.7.82 3.01 1.99 3.93 3.5s1.37 3.23
			1.37 5.16c0 2.93-1 5.23-3 6.92s-4.77 2.53-8.32 2.53zm0-4.98h5.5c1.63 0 2.87-.38 3.72-1.15.85-.77 1.28-1.86
			1.28-3.28 0-1.46-.43-2.65-1.29-3.55s-2.05-1.37-3.57-1.39h-5.64z"/>
		<path d="M222.75 77.34c0-.89.3-1.62.89-2.19s1.41-.86 2.43-.86 1.82.29 2.42.86.9 1.31.9 2.19-.3 1.64-.91 2.21
			-1.41.86-2.41.86-1.8-.29-2.41-.86-.91-1.3-.91-2.21zm6.29 27.93h-5.95V83.08h5.95z"/>
		<path d="M253.48 94.38c0 3.42-.78 6.16-2.33 8.21s-3.65 3.09-6.29 3.09c-2.24 0-4.05-.78-5.43-2.34v10.46h-5.93
			V83.08h5.5l.21 2.17c1.44-1.72 3.31-2.58 5.62-2.58 2.73 0 4.86 1.01 6.38 3.04s2.28 4.81 2.28 8.37zm-5.93-.43
			c0-2.06-.37-3.66-1.1-4.78s-1.79-1.68-3.19-1.68c-1.86 0-3.14.71-3.83 2.13v9.08c.72 1.46 2.02 2.19 3.88 2.19
			2.83.02 4.24-2.3 4.24-6.94z"/>
		<use xlink:href="#e" x="114.18"/>
	</g>
</svg>