<?xml version="1.0" encoding="UTF-8" standalone="no"?>
<!-- Created with Inkscape (http://www.inkscape.org/) -->

<svg xmlns:dc="http://purl.org/dc/elements/1.1/" xmlns:cc="http://creativecommons.org/ns#" xmlns:rdf="http://www.w3.org/1999/02/22-rdf-syntax-ns#"
    xmlns="http://www.w3.org/2000/svg" xmlns:sodipodi="http://sodipodi.sourceforge.net/DTD/sodipodi-0.dtd"
    xmlns:inkscape="http://www.inkscape.org/namespaces/inkscape" width="426" height="240" viewBox="0 0 426.00001 240"
    id="svg2" version="1.1" inkscape:version="0.91 r13725" sodipodi:docname="gruese_die_gema.svg"
    inkscape:export-filename="/home/the-scrabi/Projects/NewPipe/assets/gruese_die_gema.png"
    inkscape:export-xdpi="216.33803" inkscape:export-ydpi="216.33803">
  <defs
     id="defs4" />
  <sodipodi:namedview
     id="base"
     pagecolor="#ffffff"
     bordercolor="#666666"
     borderopacity="1.0"
     inkscape:pageopacity="1"
     inkscape:pageshadow="2"
     inkscape:zoom="0.66780002"
     inkscape:cx="156.92531"
     inkscape:cy="145.57893"
     inkscape:document-units="px"
     inkscape:current-layer="layer1"
     showgrid="false"
     units="px"
     inkscape:window-width="1015"
     inkscape:window-height="417"
     inkscape:window-x="287"
     inkscape:window-y="491"
     inkscape:window-maximized="0" />
  <metadata
     id="metadata7">
    <rdf:RDF>
      <cc:Work
         rdf:about="">
        <dc:format>image/svg+xml</dc:format>
        <dc:type
           rdf:resource="http://purl.org/dc/dcmitype/StillImage" />
        <dc:title />
      </cc:Work>
    </rdf:RDF>
  </metadata>
  <g
     inkscape:label="Ebene 1"
     inkscape:groupmode="layer"
     id="layer1"
     transform="translate(0,-812.36212)">
    <rect
       style="opacity:1;fill:#ffffff;fill-opacity:1;fill-rule:evenodd;stroke:none;stroke-width:3.5;stroke-linecap:butt;stroke-linejoin:miter;stroke-miterlimit:4;stroke-dasharray:none;stroke-opacity:1"
       id="rect4173"
       width="426"
       height="240"
       x="0"
       y="812.36206" />
    <g
       id="g4230"
       transform="matrix(0.67525011,0,0,0.67525011,-14.086916,282.00859)">
      <g
         transform="matrix(0.84512628,0,0,0.84512628,13.037073,79.96344)"
         id="g4196">
        <path
           style="fill:none;fill-rule:evenodd;stroke:#000000;stroke-width:5.5;stroke-linecap:butt;stroke-linejoin:miter;stroke-miterlimit:4;stroke-dasharray:none;stroke-opacity:1"
           d="m 35.860415,860.43313 c -1.851946,0 -3.703893,0 -5.555839,0 -0.673435,0 -1.356033,-0.11071 -2.020305,0 -0.684716,0.11412 -1.335589,0.39096 -2.020305,0.50509 -0.139738,0.0233 -1.959634,-0.0243 -2.020305,0 -0.905254,0.3621 -1.544839,1.27008 -2.525382,1.51522 -0.489996,0.12249 -1.036071,-0.15972 -1.515229,0 -3.658477,1.21949 0.796307,-0.14562 -1.515228,1.01015 -0.150585,0.0753 -0.354492,-0.0753 -0.505077,0 -0.212959,0.10648 -0.336717,0.33672 -0.505076,0.50507 -0.168359,0.16836 -0.336717,0.33672 -0.505076,0.50508 -0.336718,0.33673 -0.673435,0.67345 -1.010153,1.01015 -0.168359,0.16836 -0.373005,0.30697 -0.505076,0.50508 -0.208823,0.31323 -0.336718,0.67344 -0.505076,1.01015 -0.168359,0.33672 -0.365262,0.66062 -0.505077,1.01016 -0.197727,0.49432 -0.266981,1.03903 -0.505076,1.51522 -0.106479,0.21296 -0.44733,0.27409 -0.505076,0.50508 -0.122499,0.49 0.09905,1.01996 0,1.51523 -0.07383,0.36915 -0.431246,0.641 -0.505076,1.01015 -0.198108,0.99054 0.142857,2.03046 0,3.03046 -0.09817,0.68718 -0.406907,1.33312 -0.505077,2.02031 -0.07143,0.5 0,1.01015 0,1.51522 0,0.33672 0.08167,0.68349 0,1.01016 -0.09131,0.36522 -0.386028,0.65301 -0.505076,1.01015 -0.106479,0.31944 0,0.67343 0,1.01015 0,0.33672 -0.08167,0.68349 0,1.01015 0.09131,0.36523 0.413771,0.64494 0.505076,1.01016 0.08167,0.32666 0,0.67343 0,1.01015 0.336718,0.67343 0.745784,1.31532 1.010153,2.0203 0.243736,0.64997 0.314375,1.35286 0.505076,2.02031 0.292522,1.02382 0.673435,2.0203 1.010153,3.03046 0.168358,0.50507 0.23116,1.0587 0.505076,1.51522 0.244998,0.40834 0.724438,0.62921 1.010153,1.01016 0.225876,0.30117 0.296252,0.69691 0.505076,1.01015 0.132071,0.19811 0.373005,0.30697 0.505076,0.50508 0.208823,0.31323 0.279199,0.70898 0.505076,1.01015 0.285715,0.38095 0.673435,0.67343 1.010153,1.01015 0.168359,0.16836 0.319155,0.35634 0.505076,0.50508 1.282437,1.02595 2.057968,1.35839 3.030458,2.52538 0.538903,0.64668 1.010152,1.34687 1.515229,2.0203 0.673435,0.67344 1.393157,1.30357 2.020305,2.02031 1.565372,1.789 1.753474,2.76363 3.535534,4.54569 0.595238,0.59523 1.425067,0.91999 2.020305,1.51522 0.266198,0.2662 0.182263,0.81647 0.505076,1.01016 0.595238,0.35714 1.375793,0.24727 2.020305,0.50507 0.221066,0.0884 0.336718,0.33672 0.505076,0.50508 0.673435,0.67344 1.34687,1.34687 2.020305,2.02031 0.168359,0.16835 0.292118,0.39859 0.505077,0.50507 0.47619,0.2381 1.058702,0.23116 1.515229,0.50508 0.408329,0.245 0.601822,0.76515 1.010152,1.01015 0.456527,0.27392 1.039038,0.26698 1.515229,0.50508 0.542941,0.27147 0.951619,0.78471 1.515229,1.01015 0.312634,0.12505 0.673435,0 1.010152,0 0.505077,0 1.036072,-0.15972 1.515229,0 0.575876,0.19196 0.972288,0.73868 1.515229,1.01015 0.150585,0.0753 0.336717,0 0.505076,0 0.168359,0 0.336718,0 0.505076,0 0.336718,0 0.690715,0.10648 1.010153,0 0.239835,-0.0799 1.944303,-1.9595 2.020305,-2.0203 0.474008,-0.37921 1.029608,-0.64594 1.515229,-1.01016 0.190476,-0.14285 0.306969,-0.373 0.505076,-0.50507 0.313235,-0.20883 0.708983,-0.2792 1.010153,-0.50508 0.571428,-0.42857 1.010152,-1.01015 1.515228,-1.51523 0.168359,-0.16836 0.429784,-0.2792 0.505077,-0.50507 0.09051,-0.27154 0,-1.59269 0,-2.02031 0,-1.51523 0,-3.03046 0,-4.54569 0,-0.84179 0.165089,-1.69993 0,-2.52538 -0.07383,-0.36915 -0.365262,-0.66061 -0.505077,-1.01015 -0.232666,-0.58166 -0.284111,-1.65728 -1.010152,-2.0203 -0.150585,-0.0753 -0.354492,0.0753 -0.505076,0 -0.212959,-0.10648 -0.27409,-0.44733 -0.505077,-0.50508 -0.489996,-0.1225 -1.025232,0.1225 -1.515228,0 -0.230987,-0.0577 -0.306969,-0.373 -0.505077,-0.50508 -0.313235,-0.20882 -0.687339,-0.31138 -1.010152,-0.50507 -0.520521,-0.31232 -0.972288,-0.73869 -1.515229,-1.01016 -0.150585,-0.0753 -0.354492,0.0753 -0.505076,0 -1.814522,-0.90726 1.807015,-0.37226 -2.020305,-1.01015 -0.498205,-0.083 -1.019961,0.0991 -1.515229,0 -1.100771,-0.22015 -1.436762,-1.24307 -2.525382,-1.51523 -0.326664,-0.0817 -0.679973,0.066 -1.010152,0 -0.522058,-0.10441 -0.998728,-0.37595 -1.515229,-0.50507 -0.475366,-0.11884 -1.039863,0.11884 -1.515229,0 -0.365221,-0.0913 -0.653009,-0.38603 -1.010152,-0.50508 -0.454569,-0.15152 -1.06066,0.15152 -1.515229,0 -0.230568,-0.0769 -1.287764,-1.28776 -1.515229,-1.51523"
           id="path4144"
           inkscape:connector-curvature="0" />
        <path
           style="fill:none;fill-rule:evenodd;stroke:#000000;stroke-width:5.5;stroke-linecap:butt;stroke-linejoin:miter;stroke-miterlimit:4;stroke-dasharray:none;stroke-opacity:1"
           d="m 75.256364,890.23263 c 0,11.40858 0.650262,0.39312 -1.515229,9.59645 -4.322226,18.36946 4.110148,-10.83839 -2.020305,9.59645 -0.505076,1.68359 -0.930225,3.39325 -1.515229,5.05076 -0.426736,1.20909 -1.162986,2.30269 -1.515228,3.53554 -0.327049,1.14467 -0.198335,2.38525 -0.505077,3.53553 -0.370637,1.38989 -1.136745,2.65284 -1.515229,4.04061 -0.132894,0.48728 0.07143,1.01523 0,1.51523 -0.586742,4.10719 -0.505076,0.47231 -0.505076,3.03046 0,0.67343 0,1.34687 0,2.0203 0,0.33672 -0.238095,1.24825 0,1.01016 0.376462,-0.37647 0.336718,-1.01016 0.505076,-1.51523 0.336718,-1.01016 0.848243,-1.97805 1.010153,-3.03046 1.041957,-6.77272 -1.478048,-0.14873 0.505076,-8.08122 0.310975,-1.2439 1.246575,-2.28181 1.515229,-3.53554 0.246933,-1.15234 -0.246932,-2.38318 0,-3.53553 0.268655,-1.25372 1.177865,-2.29853 1.515229,-3.53553 0.432922,-1.58739 -0.216461,-1.73168 0,-3.03045 0.114119,-0.68472 0.36894,-1.33964 0.505076,-2.02031 0.06604,-0.33017 0,-0.67344 0,-1.01015 0,-0.84179 0,-1.68359 0,-2.52538 0,-0.33672 -0.150584,-0.70898 0,-1.01015 0.212959,-0.42592 0.673435,-0.67344 1.010153,-1.01016 0.168359,-0.16835 0.279199,-0.42979 0.505076,-0.50508 0.479157,-0.15971 1.010153,0 1.515229,0 1.010152,0 2.020305,0 3.030457,0 1.683588,0 3.367176,0 5.050765,0 0.67343,0 1.3629,-0.14608 2.0203,0 0.88505,0.19669 1.69205,0.65301 2.52538,1.01015 0.34603,0.1483 0.64101,0.43125 1.01016,0.50508 0.49527,0.0991 1.01015,0 1.51523,0 0.84179,0 1.68358,0 2.52538,0 1.17851,0 2.35702,0 3.53553,0 0.50508,0 1.01523,0.0714 1.51523,0 1.30331,0.5223 1.98634,-0.80133 3.03046,-1.01016 3.15282,-0.63056 0.12348,0.69588 2.52538,-0.50507"
           id="path4146"
           inkscape:connector-curvature="0" />
        <path
           style="fill:none;fill-rule:evenodd;stroke:#000000;stroke-width:5.5;stroke-linecap:butt;stroke-linejoin:miter;stroke-miterlimit:4;stroke-dasharray:none;stroke-opacity:1"
           d="m 131.82491,901.34431 c -0.50508,0.67343 -1.10642,1.28444 -1.51523,2.0203 -0.44031,0.79255 -0.67344,1.68359 -1.01015,2.52539 -0.33672,0.84179 -0.79026,1.64581 -1.01016,2.52539 -0.28873,1.15493 -0.35741,2.35424 -0.50507,3.53552 -0.1891,1.51279 -0.40998,3.0241 -0.50508,4.5457 -0.0735,1.17621 0,2.35702 0,3.53553 0,1.68359 0,3.36717 0,5.05075 0,1.34687 0,2.69375 0,4.04062 0,0.8418 0,1.68358 0,2.52539 0,0.33671 0,0.67343 0,1.01014 0,0.16836 -0.0532,0.34537 0,0.50509 0.11905,0.35713 0.2792,0.70897 0.50508,1.01014 0.28571,0.38095 0.67343,0.67344 1.01015,1.01015 0.16836,0.16836 0.28401,0.41665 0.50508,0.50508 0.64451,0.2578 1.39942,0.19463 2.0203,0.50507 0.42592,0.21296 0.67344,0.67345 1.01015,1.01017 0.50508,0.50507 1.01016,1.01014 1.51523,1.51522 0.79157,0.79156 1.42674,1.65409 2.52538,2.02031 0.15972,0.0532 0.33672,0 0.50508,0 0.50508,0 1.01015,0 1.51523,0 0.33672,0 0.67343,0 1.01015,0 0.33672,0 0.69752,0.12504 1.01015,0 1.64202,-0.65681 2.43526,-1.94835 3.03046,-3.53553 0.24374,-0.64998 0.26134,-1.37036 0.50508,-2.02031 0.26437,-0.70498 0.77205,-1.30602 1.01015,-2.0203 0.27147,-0.81443 0.12116,-1.75756 0.50508,-2.5254 0.31943,-0.63887 1.16084,-0.89504 1.51522,-1.51522 0.34441,-0.60271 0.28557,-1.36176 0.50508,-2.02031 0.11905,-0.35713 0.43125,-0.64099 0.50508,-1.01014 0.0991,-0.49527 -0.1225,-1.02525 0,-1.51523 0.21989,-0.87957 0.76108,-1.65363 1.01015,-2.52538 0.0925,-0.32376 -0.066,-0.67998 0,-1.01017 0.10441,-0.52205 0.41755,-0.99006 0.50508,-1.51522 0.083,-0.4982 -0.0714,-1.01522 0,-1.51522 0.0982,-0.68719 0.436,-1.3296 0.50507,-2.02031 0.10052,-1.00514 0,-2.02031 0,-3.03046 0,-1.34687 0,-2.69374 0,-4.04061"
           id="path4148"
           inkscape:connector-curvature="0" />
        <path
           style="fill:none;fill-rule:evenodd;stroke:#000000;stroke-width:5.5;stroke-linecap:butt;stroke-linejoin:miter;stroke-miterlimit:4;stroke-dasharray:none;stroke-opacity:1"
           d="m 133.34014,889.72755 4.04061,-2.52538"
           id="path4150"
           inkscape:connector-curvature="0" />
        <path
           style="fill:none;fill-rule:evenodd;stroke:#000000;stroke-width:5.5;stroke-linecap:butt;stroke-linejoin:miter;stroke-miterlimit:4;stroke-dasharray:none;stroke-opacity:1"
           d="m 150.00765,887.20217 2.02031,1.51523"
           id="path4152"
           inkscape:connector-curvature="0" />
        <path
           style="fill:none;fill-rule:evenodd;stroke:#000000;stroke-width:5.5;stroke-linecap:butt;stroke-linejoin:miter;stroke-miterlimit:4;stroke-dasharray:none;stroke-opacity:1"
           d="m 174.25131,937.7098 c -0.16836,-0.67343 -0.41897,-1.3315 -0.50507,-2.0203 -0.18794,-1.50353 0.13718,-3.03668 0,-4.54569 -0.0927,-1.01988 -0.41236,-2.01058 -0.50508,-3.03046 -0.0762,-0.83834 0,-1.68359 0,-2.52538 0,-1.51523 0,-3.03046 0,-4.54569 0,-1.18499 -0.10223,-5.0386 0,-6.06091 0.0691,-0.69072 0.35449,-1.34268 0.50508,-2.02031 1.28242,-5.77091 -0.22162,0.38141 1.01015,-4.54568 0.16836,-0.67344 0.23163,-1.38227 0.50508,-2.02031 0.23912,-0.55794 0.84339,-0.93156 1.01015,-1.51523 0.0203,-0.0712 -0.0199,-3.88155 0,-4.04061 0.0861,-0.6888 0.36894,-1.33962 0.50507,-2.0203 0.033,-0.16509 0,-0.33672 0,-0.50508 0,-0.67343 -0.0952,-1.35364 0,-2.0203 0.0753,-0.52705 0.40067,-0.99317 0.50508,-1.51523 0.18706,-0.93528 -0.18706,-2.60025 0,-3.53554 0.10441,-0.52205 0.41755,-0.99007 0.50508,-1.51522 0.083,-0.49821 -0.1225,-1.02524 0,-1.51523 0.21989,-0.87957 0.76108,-1.65363 1.01015,-2.52538 0.0925,-0.32377 0,-0.67344 0,-1.01016 0.16836,-0.50507 0.30735,-1.02091 0.50508,-1.51523 0.13981,-0.34953 0.41377,-0.64493 0.50507,-1.01015 0.1225,-0.48999 -0.15972,-1.03607 0,-1.51523 0.11905,-0.35714 0.38603,-0.65301 0.50508,-1.01015 0.31099,-0.93298 -0.7707,-0.23946 0.50508,-1.51522 0.11904,-0.11906 0.33671,0 0.50507,0 0.8418,0 1.68359,0 2.52538,0 1.51523,0 3.03046,0 4.54569,0 0.33672,0 0.67343,0 1.01015,0 0.16836,0 0.365,-0.0934 0.50508,0 0.14778,0.0985 1.79013,1.67505 2.0203,2.02031 0.20883,0.31322 0.38603,0.65301 0.50508,1.01014 0.0532,0.15972 -0.0532,0.34536 0,0.50508 0.11905,0.35714 0.36526,0.66062 0.50508,1.01015 0.19772,0.49432 0.26698,1.03904 0.50507,1.51523 0.10648,0.21296 0.33672,0.33671 0.50508,0.50507 0.51342,0.51342 0.8063,0.69983 1.01015,1.51523 0.0817,0.32667 0,0.67344 0,1.01015 0,1.01016 0,2.02031 0,3.03046 0,0.67344 0,1.34687 0,2.02031 0,1.27214 0.20682,1.96261 -0.50508,3.03045 -0.13207,0.19811 -0.29211,0.3986 -0.50507,0.50508 -0.1132,0.0566 -1.90029,0 -2.02031,0 -1.34687,0 -2.69374,0 -4.04061,0 -0.33671,0 -0.67343,0 -1.01015,0 -0.16836,0 -0.62412,-0.11905 -0.50508,0 0.2662,0.2662 0.67344,0.33672 1.01016,0.50508 0.67343,0.33671 1.30602,0.77205 2.0203,1.01015 0.65854,0.21951 1.39943,0.19464 2.02031,0.50507 0.75292,0.37647 1.28942,1.09759 2.0203,1.51523 0.46225,0.26415 1.03904,0.26699 1.51523,0.50508 0.87805,0.43903 1.62306,1.12852 2.52538,1.51523 0.30949,0.13264 0.68349,-0.0817 1.01015,0 0.48287,0.12072 1.76839,1.0114 2.02031,1.51523 0.0751,0.15025 0,2.81799 0,3.03046 0,0.65768 0.10123,2.52428 0,3.03045 -0.0738,0.36915 -0.41377,0.64493 -0.50508,1.01016 -0.37337,1.49348 0.56803,0.5895 -0.50507,2.0203 -0.33672,0.33672 -0.67344,0.67344 -1.01016,1.01015 0,0.16836 0.0934,0.365 0,0.50508 -0.52828,0.79243 -1.44887,1.2584 -2.0203,2.02031 -0.22588,0.30116 -0.33672,0.67343 -0.50508,1.01015 -0.33671,0.33671 -0.7053,0.64433 -1.01015,1.01015 -0.5389,0.64668 -0.98936,1.36298 -1.51523,2.02031 -0.14874,0.18592 -0.29212,0.39859 -0.50507,0.50507 -0.47619,0.2381 -1.05871,0.23116 -1.51523,0.50508 -0.40833,0.245 -0.67344,0.67343 -1.01016,1.01015 -0.16835,0.16836 -0.29211,0.3986 -0.50507,0.50508 -0.15371,0.0769 -1.28777,0 -1.51523,0 -0.50508,0 -1.01015,0 -1.51523,0 -0.16836,0 -0.34174,0.0408 -0.50508,0 -1.033,-0.25825 -2.0203,-0.67344 -3.03045,-1.01016 -0.50508,-0.16836 -0.99873,-0.37595 -1.51523,-0.50507 -0.16333,-0.0408 -0.34536,0.0532 -0.50508,0 -0.35714,-0.11905 -0.67343,-0.33672 -1.01015,-0.50508 -0.67344,-0.33672 -1.39384,-0.5925 -2.02031,-1.01015 -0.39621,-0.26414 -0.61393,-0.74601 -1.01015,-1.01015 -0.14008,-0.0934 -0.37039,0.10101 -0.50508,0 -0.57142,-0.42857 -1.01015,-1.01016 -1.51522,-1.51523 -0.16836,-0.16836 -0.37301,-0.30697 -0.50508,-0.50508 -0.20882,-0.31323 -0.26407,-0.72094 -0.50508,-1.01015 -0.6097,-0.73164 -1.34687,-1.34687 -2.0203,-2.02031 -1.34687,-1.34687 -2.69374,-2.69374 -4.04061,-4.04061"
           id="path4154"
           inkscape:connector-curvature="0" />
        <path
           style="fill:none;fill-rule:evenodd;stroke:#000000;stroke-width:5.5;stroke-linecap:butt;stroke-linejoin:miter;stroke-miterlimit:4;stroke-dasharray:none;stroke-opacity:1"
           d="m 216.67772,911.44583 c -1.71951,0.0501 -3.45139,-0.29459 -5.05076,0.50508 -0.42592,0.21296 -0.6292,0.72444 -1.01015,1.01015 -1.33968,1.00476 -1.5469,0.60007 -2.02031,2.02031 -0.0846,0.25393 0,2.89853 0,3.03046 0,0.50507 0,1.01015 0,1.51523 0,0.33671 -0.15058,0.70898 0,1.01015 0.21296,0.42591 0.67344,0.67343 1.01015,1.01015 0.67344,0.67343 1.2584,1.44888 2.02031,2.02031 0.13468,0.10101 0.37039,-0.10102 0.50507,0 0.57143,0.42857 0.95747,1.06901 1.51523,1.51522 0.29397,0.23518 0.6833,0.3183 1.01016,0.50508 0.85234,0.48706 1.70856,0.97069 2.52538,1.51523 0.1981,0.13207 0.29211,0.3986 0.50507,0.50508 1.23595,0.61797 2.23333,0.50507 3.53554,0.50507 0.33671,0 0.67343,0 1.01015,0 0.16836,0 0.36071,0.0866 0.50508,0 1.8307,-1.09842 3.26961,-2.48968 4.04061,-4.54568 0.0616,-0.16423 0,-4.48025 0,-4.54569 0,-1.09157 0.15797,-1.5308 -0.50508,-2.52538 -0.56874,-0.85311 -1.72403,-0.981 -2.52538,-1.51523 -1.15577,-0.77051 0.31582,-0.3998 -1.51523,-1.01015 -0.31944,-0.10648 -0.70898,0.15058 -1.01015,0 -0.21296,-0.10648 -0.27409,-0.44733 -0.50508,-0.50508 -0.4498,-0.11245 -2.86481,0 -3.53553,0 -1.01016,0 -2.02031,0 -3.03046,0 -0.33672,0 -0.7178,-0.16706 -1.01015,0 -0.93599,0.53485 -1.66297,1.37349 -2.52538,2.02031 -0.48563,0.36421 -1.0489,0.62154 -1.51523,1.01015 -0.54873,0.45727 -1.01016,1.01015 -1.51523,1.51523 -0.16836,0.16835 -0.30697,0.373 -0.50508,0.50507 -0.46138,0.30759 -1.22571,0.43113 -1.51523,1.01016 -0.0753,0.15058 0.0753,0.35449 0,0.50507 -0.10648,0.21296 -0.44733,0.27409 -0.50507,0.50508 -0.1225,0.48999 0,1.01015 0,1.51523 0,0.67343 -0.11072,1.35603 0,2.0203 0.20584,1.23509 1.35533,3.29251 2.0203,4.04061 0.7162,0.80573 1.69722,1.33017 2.52538,2.02031 1.19243,0.99368 2.24404,2.16945 3.53554,3.03046 0.75437,0.50291 1.78263,0.49022 2.52538,1.01015 0.97527,0.68269 1.59577,1.78169 2.52538,2.52538 0.78312,0.62649 4.76585,2.76713 5.55584,3.03046 2.09771,0.69923 4.39955,0.50507 6.56599,0.50507 1.17851,0 2.35702,0 3.53553,0 1.01016,0 2.02649,0.11155 3.03046,0 0.52914,-0.0588 1.01673,-0.31814 1.51523,-0.50507 6.6907,-2.50902 -2.29721,0.89606 5.55584,-3.03046 0.62088,-0.31044 1.3506,-0.32243 2.0203,-0.50508 1.18249,-0.32249 2.37277,-0.62256 3.53554,-1.01015 5.63235,-1.87745 2.70533,-0.96867 8.08122,-4.04061 2.09557,-1.19747 3.63787,-1.59198 5.55584,-3.03046 0.57143,-0.42857 1.01015,-1.01015 1.51523,-1.51523 0.16836,-0.16836 0.29211,-0.39859 0.50507,-0.50507 1.24398,-0.62199 -0.45595,1.4661 1.51523,-0.50508 0.11905,-0.11905 0.0532,-0.34536 0,-0.50508 -0.11905,-0.35714 -0.36526,-0.66061 -0.50507,-1.01015 -0.19773,-0.49432 -0.33672,-1.01015 -0.50508,-1.51523"
           id="path4156"
           inkscape:connector-curvature="0" />
      </g>
      <g
         transform="translate(250.97196,-114.74232)"
         id="g4205">
        <path
           style="fill:none;fill-rule:evenodd;stroke:#000000;stroke-width:5.5;stroke-linecap:butt;stroke-linejoin:miter;stroke-miterlimit:4;stroke-dasharray:none;stroke-opacity:1"
           d="m 12.12183,955.89256 c 0,0.67343 0.185007,1.37278 0,2.0203 -1.143182,4.00113 -0.960533,-0.85241 -1.515229,3.03045 -0.214285,1.5 0.187941,3.04216 0,4.5457 -0.06603,0.52828 -0.43904,0.98694 -0.505076,1.51522 -0.104412,0.83529 0,1.68358 0,2.52539 0,0.67343 0,1.34686 0,2.0203 0,0.36986 -0.100337,2.52877 0,3.03045 0.104412,0.52207 0.266981,1.03904 0.505076,1.51523 0.10648,0.21296 0.336718,0.33672 0.505077,0.50508 0.841793,0.8418 1.750629,1.6215 2.525381,2.52539 3.601886,4.20219 -0.09878,0.4063 2.525381,3.03045 0.168359,0.16836 0.284011,0.41665 0.505077,0.50508 0.644512,0.25779 1.375792,0.24726 2.020305,0.50508 0.221065,0.0884 0.292117,0.39859 0.505076,0.50507 0.109771,0.0549 1.983578,0.0275 2.020305,0 1.451186,-1.08839 1.538217,-1.64843 2.525381,-3.03046 0.489283,-0.68499 1.010153,-1.34687 1.515229,-2.0203 3.712285,-4.94971 0.257229,-0.092 2.020305,-3.03046 0.831316,-1.38553 1.478529,-1.9102 2.020305,-3.53553 0.10648,-0.31944 -0.08167,-0.68349 0,-1.01016 0.09131,-0.36522 0.386029,-0.653 0.505077,-1.01015 0.09112,-0.27335 0,-1.84824 0,-2.0203 0,-0.33672 0.106479,-0.69072 0,-1.01016 -0.238096,-0.71428 -0.673435,-1.34687 -1.010153,-2.0203 -0.168359,-0.33672 -0.413771,-0.64493 -0.505076,-1.01015 -0.08167,-0.32667 0.08167,-0.68349 0,-1.01016 -0.225306,-0.90122 -0.902191,-1.40726 -1.515229,-2.0203"
           id="path4158"
           inkscape:connector-curvature="0" />
        <path
           style="fill:none;fill-rule:evenodd;stroke:#000000;stroke-width:5.5;stroke-linecap:butt;stroke-linejoin:miter;stroke-miterlimit:4;stroke-dasharray:none;stroke-opacity:1"
           d="m 56.568542,967.00423 c -1.844701,0.73788 -2.47402,0.60496 -3.535534,2.02031 -0.225877,0.30116 -0.311388,0.68733 -0.505076,1.01014 -0.152995,0.25499 -1.399775,1.94812 -1.515229,2.52538 -0.09905,0.49528 0,1.01017 0,1.51523 0,0.84181 0,1.68359 0,2.52539 0,0.58673 -0.114469,2.0675 0,2.52539 0.09131,0.36522 0.296253,0.69691 0.505076,1.01014 0.132072,0.19812 0.336718,0.33672 0.505077,0.50508 1.141086,1.14108 -0.30117,-0.15058 2.020305,1.01016 0.212959,0.10648 0.292117,0.39859 0.505076,0.50507 0.47619,0.2381 1.039038,0.26698 1.515229,0.50508 0.212959,0.10648 0.292117,0.3986 0.505076,0.50508 0.113203,0.0566 1.900284,0 2.020305,0 0.841794,0 1.683588,0 2.525381,0 0.336718,0 0.683489,0.0817 1.010153,0 1.120692,-0.28018 2.66047,-1.9205 3.030458,-3.03046 0.159719,-0.47916 -0.09905,-1.01996 0,-1.51523 0.104411,-0.52206 0.375951,-0.99873 0.505076,-1.51523 0.08167,-0.32666 0,-0.67343 0,-1.01015 0,-1.34687 0,-2.69374 0,-4.04061 0,-0.21191 0.08372,-4.21082 0,-4.54569 -0.09131,-0.36522 -0.238878,-0.74395 -0.505076,-1.01015 -0.07838,-0.0784 -1.318692,0.0655 -1.515229,0 -0.357143,-0.11905 -0.673435,-0.33672 -1.010153,-0.50508"
           id="path4160"
           inkscape:connector-curvature="0" />
        <path
           style="fill:none;fill-rule:evenodd;stroke:#000000;stroke-width:5.5;stroke-linecap:butt;stroke-linejoin:miter;stroke-miterlimit:4;stroke-dasharray:none;stroke-opacity:1"
           d="m 80.307127,969.52961 c 0,7.84937 0.295573,-4.90243 -1.515229,6.56599 -0.288834,1.82929 0.102728,3.70674 0,5.55584 -0.289218,5.20593 -0.578727,1.9203 -1.515229,7.07106 -0.120468,0.66258 0,1.34687 0,2.02031 0,0.0867 -0.06174,2.84525 0,3.03046 0.37282,1.11846 2.545041,0.34672 3.030458,0 0.774984,-0.55356 1.393158,-1.30357 2.020303,-2.02031 1.56537,-1.78899 1.75348,-2.76363 3.53554,-4.54568 0.59523,-0.59524 1.42506,-0.92 2.0203,-1.51523 0.59524,-0.59524 0.91999,-1.42507 1.51523,-2.02031 0.59524,-0.59524 1.42507,-0.91999 2.0203,-1.51522 1.86345,-1.86344 0.0431,-1.37559 2.52539,-3.03045 0.44298,-0.29534 1.03903,-0.26699 1.51523,-0.50508 0.48562,-0.24281 1.62234,-1.88766 2.0203,-2.02031 0.47916,-0.15972 1.01015,0 1.51523,0 1.15577,0 1.30227,-0.10649 2.52538,0.50508 0.21296,0.10648 0.36222,0.3146 0.50508,0.50508 1.17492,1.56656 0.93269,1.28284 1.51523,3.03045 0.16835,0.50508 0.42978,0.98819 0.50507,1.51523 0.0952,0.66666 0,1.34686 0,2.0203 0,1.85195 0,3.70389 0,5.55584"
           id="path4162"
           inkscape:connector-curvature="0" />
        <path
           style="fill:none;fill-rule:evenodd;stroke:#000000;stroke-width:5.5;stroke-linecap:butt;stroke-linejoin:miter;stroke-miterlimit:4;stroke-dasharray:none;stroke-opacity:1"
           d="m 167.68532,978.1159 c -0.84179,-0.16836 -1.67354,-0.39859 -2.52538,-0.50507 -0.50118,-0.0626 -1.01015,0 -1.51523,0 -1.34687,0 -2.69374,0 -4.04061,0 -0.19966,0 -2.30967,-0.10786 -2.52538,0 -0.99149,0.49574 -0.22738,0.95984 -0.50508,1.51523 -0.27147,0.54294 -0.7847,0.95161 -1.01015,1.51522 -0.12505,0.31264 0,0.67344 0,1.01016 0,0.33671 0,0.67344 0,1.01015 0,1.17851 0,2.35702 0,3.53553 0,0.16836 0,0.33672 0,0.50508 0,0.16836 -0.0753,0.35449 0,0.50508 0.10648,0.21295 0.33672,0.33671 0.50508,0.50507 0.16836,0.16836 0.27409,0.44733 0.50507,0.50509 0.49,0.12249 1.01016,0 1.51523,0 0.33672,0 0.67344,0 1.01016,0 1.51522,0 3.03045,0 4.54568,0 0.75851,0 1.85611,0.13385 2.52538,0 0.36915,-0.0738 0.68734,-0.31139 1.01016,-0.50509 1.62269,-0.97361 2.18121,-1.67614 3.53553,-3.03045 0.33672,-0.33671 0.76515,-0.60182 1.01015,-1.01015 0.27392,-0.45652 0.26698,-1.03904 0.50508,-1.51523 0.27147,-0.54294 0.73868,-0.97229 1.01015,-1.51523 0.28783,-0.57565 0.94542,-3.08241 1.01015,-3.53553 0.0714,-0.5 -0.0714,-1.01523 0,-1.51523 0.0982,-0.68718 0.41898,-1.3315 0.50508,-2.0203 0.0835,-0.66824 -0.11071,-1.35604 0,-2.02031 0.0619,-0.37134 0.33672,-0.67343 0.50508,-1.01015 0.16835,-0.50508 0.42978,-0.98818 0.50507,-1.51523 0.14142,-0.98995 -0.14142,-2.04051 0,-3.03046 0.24281,-1.69967 0.76734,-3.35109 1.01015,-5.05076 0.0476,-0.33333 -0.0925,-0.68639 0,-1.01015 0.24908,-0.87176 0.69181,-1.67647 1.01016,-2.52538 0.18693,-0.4985 0.29535,-1.02588 0.50507,-1.51523 0.29659,-0.69205 0.71357,-1.32826 1.01016,-2.02031 0.20972,-0.48935 0.24093,-1.05298 0.50507,-1.51523 0.41765,-0.73088 1.08213,-1.29847 1.51523,-2.0203 0.0866,-0.14437 -0.033,-0.33999 0,-0.50508 0.13614,-0.68068 0.33672,-1.34687 0.50508,-2.0203"
           id="path4164"
           inkscape:connector-curvature="0" />
        <path
           style="fill:none;fill-rule:evenodd;stroke:#000000;stroke-width:5.5;stroke-linecap:butt;stroke-linejoin:miter;stroke-miterlimit:4;stroke-dasharray:none;stroke-opacity:1"
           d="m 196.47467,973.06515 c -1.76679,-0.57535 -2.67934,-0.8562 -4.04061,0.50508 -0.16836,0.16836 -0.3986,0.29211 -0.50508,0.50507 -0.0753,0.15059 0.0753,0.35449 0,0.50508 -0.10648,0.21296 -0.39859,0.29212 -0.50507,0.50508 -0.0753,0.15058 0.0753,0.35449 0,0.50507 -0.21296,0.42592 -0.74601,0.61394 -1.01016,1.01015 -0.20882,0.31324 -0.33671,0.67344 -0.50507,1.01016 -0.16836,0.33671 -0.41377,0.64493 -0.50508,1.01015 -0.0817,0.32666 0,0.67343 0,1.01015 0,1.34687 0,2.69374 0,4.04061 0,0.29103 -0.092,2.3413 0,2.52538 0.10648,0.21296 0.29212,0.3986 0.50508,0.50508 0.15058,0.0753 0.33672,0 0.50507,0 0.16836,0 0.37039,0.10101 0.50508,0 0.57143,-0.42857 0.95747,-1.06902 1.51523,-1.51523 0.29397,-0.23517 0.69692,-0.29625 1.01015,-0.50508 0.19811,-0.13207 0.33672,-0.33671 0.50508,-0.50507 0.50507,-0.50508 1.01015,-1.01015 1.51523,-1.51523 0.16836,-0.16836 0.373,-0.30697 0.50507,-0.50508 0.20883,-0.31323 0.29626,-0.69691 0.50508,-1.01015 0.30363,-0.45545 1.92208,-1.72563 2.0203,-2.0203 0.10648,-0.31944 -0.10647,-0.69072 0,-1.01016 0.0753,-0.22587 0.3986,-0.29211 0.50508,-0.50507 0.3374,-0.67479 -0.83525,-1.25288 -1.01015,-1.51523 -0.0934,-0.14009 0,-0.33672 0,-0.50508 0,-1.03709 0.10101,-1.91929 -1.51523,-2.52538 -0.80381,-0.30143 -1.71097,0.23361 -2.52538,0.50508 -1.57651,0.5255 0.16836,0.33671 -0.50508,1.01014 -0.11905,0.11906 -0.38603,-0.11905 -0.50507,0 -0.0612,0.0612 0.0518,0.80279 0,1.01015 -0.12913,0.5165 -0.33672,1.01015 -0.50508,1.51523 -0.16836,0.50508 -0.26698,1.03904 -0.50508,1.51523 -0.41801,0.83602 -0.96492,0.13568 -0.50507,1.51523 0.15058,0.45175 0.79719,0.58423 1.01015,1.01015 0.0753,0.15059 0,0.33672 0,0.50508 0.16836,0.16836 0.3986,0.29211 0.50508,0.50507 0.0753,0.15059 0,0.33672 0,0.50508 0,0.50508 0,1.01015 0,1.51523 0,1.19213 -0.2381,1.18814 1.01015,2.0203 0.14008,0.0934 0.34536,-0.0532 0.50507,0 0.35715,0.11905 0.65301,0.38603 1.01016,0.50508 0.15972,0.0532 0.34535,-0.0532 0.50507,0 2.02031,0.67343 -0.10212,0.48465 2.52538,1.01015 0.33018,0.066 0.67344,0 1.01016,0 0.50507,0 1.01015,0 1.51523,0 1.17851,0 2.35702,0 3.53553,0 0.12532,0 1.97876,0.0277 2.0203,0 0.39622,-0.26414 0.67344,-0.67343 1.01016,-1.01015 0.50507,-0.50508 1.01015,-1.01015 1.51523,-1.51523 1.17851,-1.17851 2.35702,-2.35702 3.53553,-3.53553 0.50508,-0.50508 1.06902,-0.95746 1.51523,-1.51523 0.23517,-0.29396 0.23888,-0.74396 0.50508,-1.01014 0.50507,-0.33672 1.01015,-0.67345 1.51522,-1.01017 0.16836,0 0.3545,0.0753 0.50508,0 0.21296,-0.10648 0.29212,-0.39859 0.50508,-0.50507 0.62044,-0.31022 1.63994,-0.24943 2.0203,-1.01016 0.0753,-0.15058 0,-0.33671 0,-0.50507"
           id="path4166"
           inkscape:connector-curvature="0" />
        <path
           style="fill:none;fill-rule:evenodd;stroke:#000000;stroke-width:5.5;stroke-linecap:butt;stroke-linejoin:miter;stroke-miterlimit:4;stroke-dasharray:none;stroke-opacity:1"
           d="m 231.83001,968.51945 c 0.33672,1.01017 0.7519,1.99747 1.01015,3.03046 0.39935,1.59739 -1.12809,5.14648 -1.51523,6.56599 -0.22587,0.82822 -0.41027,1.67218 -0.50507,2.52539 -0.0744,0.66931 0.23014,1.38742 0,2.02031 -0.59237,1.629 -1.97725,2.90128 -2.52539,4.54569 -0.58674,1.76022 -0.50507,1.61075 -0.50507,3.03045 0,0.16836 0,0.33672 0,0.50508 0,0.16836 0.16836,0.50508 0,0.50508 -0.16836,0 0,-0.33672 0,-0.50508 0,-0.67344 -0.12047,-1.35773 0,-2.02031 1.11415,-6.12785 0.78702,-0.98681 2.52538,-7.07106 0.32705,-1.14467 0.23739,-2.37555 0.50508,-3.53554 0.76641,-3.32114 0.87466,-2.37761 2.0203,-5.05076 1.25248,-0.47665 0.28556,-1.36177 0.50508,-2.02031 0.11905,-0.35714 0.38603,-0.653 0.50507,-1.01015 0.20901,-0.62701 -0.41462,-0.5503 0.50508,-1.01015 0.15058,-0.0753 0.33672,0 0.50508,0 0.16835,0 0.33998,-0.033 0.50507,0 0.68068,0.13614 1.3758,0.24727 2.02031,0.50508 0.44213,0.17685 0.5584,0.85956 1.01015,1.01015 0.31944,0.10648 0.67344,0 1.01015,0"
           id="path4168"
           inkscape:connector-curvature="0" />
        <path
           style="fill:none;fill-rule:evenodd;stroke:#000000;stroke-width:5.5;stroke-linecap:butt;stroke-linejoin:miter;stroke-miterlimit:4;stroke-dasharray:none;stroke-opacity:1"
           d="m 295.9747,955.89256 c -2.18867,0 -4.37733,0 -6.566,0 -0.50507,0 -1.01702,-0.083 -1.51523,0 -0.52515,0.0875 -1.01015,0.33671 -1.51522,0.50507 -3.55349,1.1845 0.83333,-0.35714 -3.53554,1.51523 -0.48935,0.20971 -1.01015,0.33672 -1.51523,0.50508 -1.17851,0.67343 -2.32148,1.41328 -3.53553,2.0203 -0.47619,0.2381 -1.10623,0.16425 -1.51523,0.50508 -0.64668,0.5389 -0.83023,1.53102 -1.51523,2.0203 -0.56486,0.40348 -1.39943,0.19464 -2.0203,0.50508 -0.42592,0.21296 -0.63831,0.71268 -1.01016,1.01015 -0.73384,0.58708 -1.9502,1.15755 -2.52538,2.02031 -0.20882,0.31323 -0.41377,0.64493 -0.50507,1.01015 -0.0885,0.35388 0,2.84758 0,3.03045 0,1.51523 0,3.03046 0,4.5457 0,0.33671 -0.15059,0.70898 0,1.01014 0.21296,0.42592 0.77389,0.59671 1.01015,1.01015 0.96461,1.68806 0.68867,2.70898 2.0203,4.04061 0.59524,0.59524 1.47248,0.87609 2.02031,1.51523 0.49,0.57166 0.52814,1.44189 1.01015,2.0203 0.38861,0.46633 1.04122,0.63095 1.51523,1.01016 1.17461,0.93968 0.66467,1.06335 2.02031,1.51523 0.31943,0.10648 0.67997,-0.066 1.01015,0 0.68068,0.13613 1.33559,0.39095 2.0203,0.50507 0.33214,0.0554 0.67344,0 1.01016,0 1.34687,0 2.69374,0 4.04061,0 2.35702,0 4.71404,0 7.07106,0 0.67344,0 1.37278,0.18502 2.02031,0 0.89201,-0.25486 1.88571,-1.38063 2.52538,-2.0203 0.33672,-0.33672 0.79719,-0.58424 1.01015,-1.01016 0.15059,-0.30116 -0.10648,-0.69071 0,-1.01015 0.0753,-0.22587 0.42979,-0.27919 0.50508,-0.50507 0.15972,-0.47916 0,-1.01016 0,-1.51523 0,-1.01094 0.31287,-2.2125 -0.50508,-3.03045 -0.11904,-0.11906 -0.35449,0.0753 -0.50507,0 -0.21296,-0.10649 -0.29212,-0.3986 -0.50508,-0.50509 -0.15058,-0.0753 -0.34536,0.0532 -0.50508,0 -0.35714,-0.11904 -0.64493,-0.41377 -1.01015,-0.50507 -0.32666,-0.0817 -0.70898,0.15058 -1.01015,0 -0.42592,-0.21296 -0.61394,-0.74601 -1.01015,-1.01016 -0.14009,-0.0934 -0.34536,0.0532 -0.50508,0 -0.35714,-0.11904 -0.65301,-0.38602 -1.01015,-0.50507 -0.15972,-0.0532 -0.34175,0.0408 -0.50508,0 -0.5165,-0.12913 -0.99873,-0.37595 -1.51523,-0.50508 -0.32666,-0.0817 -0.67343,0 -1.01015,0 -0.50508,0 -1.01015,0 -1.51523,0 -0.16836,0 -0.34536,0.0532 -0.50508,0 -0.35714,-0.11905 -0.67343,-0.33672 -1.01015,-0.50507"
           id="path4170"
           inkscape:connector-curvature="0" />
        <path
           style="fill:none;fill-rule:evenodd;stroke:#000000;stroke-width:5.5;stroke-linecap:butt;stroke-linejoin:miter;stroke-miterlimit:4;stroke-dasharray:none;stroke-opacity:1"
           d="m 313.65236,958.41793 c 1.97947,4.61875 1.51523,2.25335 1.51523,7.07107 0,8.05096 0.16667,-0.98985 -0.50507,7.07106 -0.0699,0.83889 0,1.68359 0,2.52539 0,0.84179 0,1.68358 0,2.52538 0,0.16836 0.0934,0.36499 0,0.50507 -0.33672,0.33672 -0.67344,0.67345 -1.01016,1.01017 0,0.16835 0.0753,0.35449 0,0.50507 -0.10647,0.21296 -0.39859,0.29212 -0.50507,0.50508 -0.0753,0.15058 0,0.33672 0,0.50507 0,0.67344 0,1.34687 0,2.02031 0,0.16836 0,0.33672 0,0.50508 0,0.16835 0.0753,0.35449 0,0.50507 -0.10648,0.21296 -0.3986,0.29212 -0.50508,0.50508 -0.0769,0.15371 0,1.28776 0,1.51523 0,0.34876 -0.0768,1.86674 0,2.0203 0.10648,0.21296 0.29212,0.3986 0.50508,0.50508 0.59225,0.29612 0.59947,-0.29974 1.01015,-0.50508 0.15059,-0.0753 0.33672,0 0.50508,0 0.33671,-0.16836 0.69691,-0.29625 1.01015,-0.50507 0.19811,-0.13208 0.2792,-0.42979 0.50508,-0.50508 0.2312,-0.0771 2.24347,0 2.52538,0 1.68358,0 3.36717,0 5.05076,0 0.50508,0 1.01015,0 1.51523,0 0.16836,0 0.33672,0 0.50508,0 0.16835,0 0.35449,0.0753 0.50507,0 0.21296,-0.10648 0.33672,-0.33672 0.50508,-0.50508"
           id="path4172"
           inkscape:connector-curvature="0" />
        <path
           style="fill:none;fill-rule:evenodd;stroke:#000000;stroke-width:5.5;stroke-linecap:butt;stroke-linejoin:miter;stroke-miterlimit:4;stroke-dasharray:none;stroke-opacity:1"
           d="m 315.67267,973.57022 c 1.45638,0.59432 3.05988,-0.29716 4.54569,0 0.36915,0.0738 0.641,0.43124 1.01015,0.50507 1.33099,0.2662 2.69516,0.32569 4.04061,0.50508 1.18003,0.15734 2.34856,0.41377 3.53553,0.50509 1.00718,0.0775 2.03405,-0.16607 3.03046,0 1.05031,0.17505 1.98634,0.80132 3.03046,1.01014 0.66036,0.13207 1.34687,0 2.0203,0 1.01016,0 2.02031,0 3.03046,0"
           id="path4174"
           inkscape:connector-curvature="0" />
        <path
           style="fill:none;fill-rule:evenodd;stroke:#000000;stroke-width:5.5;stroke-linecap:butt;stroke-linejoin:miter;stroke-miterlimit:4;stroke-dasharray:none;stroke-opacity:1"
           d="m 313.14729,959.93316 c 2.00728,0.14241 4.05725,-0.18215 6.06091,0 1.01988,0.0927 2.01058,0.41236 3.03046,0.50507 0.83834,0.0762 1.68359,0 2.52538,0 0.8418,0 1.68359,0 2.52538,0 2.18867,0 4.37733,0 6.566,0"
           id="path4176"
           inkscape:connector-curvature="0" />
        <path
           style="fill:none;fill-rule:evenodd;stroke:#000000;stroke-width:5.5;stroke-linecap:butt;stroke-linejoin:miter;stroke-miterlimit:4;stroke-dasharray:none;stroke-opacity:1"
           d="m 347.49247,955.89256 c -0.13098,2.85388 0.17819,5.73535 0,8.58628 -0.0951,1.52159 -0.32694,3.03158 -0.50507,4.5457 -0.1586,1.34804 -0.22545,2.71236 -0.50508,4.04061 -0.99382,4.72065 -2.29147,7.3529 -3.53553,12.12183 -0.43339,1.66133 -0.74238,3.35484 -1.01015,5.05076 -0.23778,1.5059 -0.37847,3.02639 -0.50508,4.54569 -0.0419,0.50333 0.18758,1.04628 0,1.51523 -0.17685,0.44213 -0.67344,0.67343 -1.01015,1.01014"
           id="path4178"
           inkscape:connector-curvature="0" />
        <path
           style="fill:none;fill-rule:evenodd;stroke:#000000;stroke-width:5.5;stroke-linecap:butt;stroke-linejoin:miter;stroke-miterlimit:4;stroke-dasharray:none;stroke-opacity:1"
           d="m 348.50263,957.91285 c -0.16836,1.01015 -0.61817,2.01264 -0.50508,3.03046 0.067,0.60331 0.79701,0.94685 1.01015,1.51523 0.30143,0.8038 0.2792,1.69716 0.50508,2.52538 0.28017,1.02727 0.86943,1.975 1.01015,3.03046 0.20026,1.50193 -0.10079,3.03381 0,4.54568 0.69882,10.48234 0.50508,-5.23142 0.50508,6.566 0,1.68358 0,3.36717 0,5.05076 0,0.34876 -0.0768,1.86674 0,2.0203 0.21296,0.42592 0.74601,0.61394 1.01015,1.01016 0.20882,0.31323 0.16836,0.84179 0.50508,1.01015 0.21296,0.10648 0.33672,-0.33672 0.50507,-0.50508 0.58887,-0.58887 1.33893,-1.13878 1.51523,-2.0203 0.0991,-0.49527 -0.13875,-1.02959 0,-1.51523 1.17141,-2.34282 0.96508,-1.56494 1.51523,-4.04061 0.0108,-0.0487 1.00773,-5.0441 1.01015,-5.05076 0.38596,-1.06139 1.09579,-1.98185 1.51523,-3.03046 0.64731,-1.61827 0.27551,-2.06625 1.01016,-3.53554 0.27147,-0.54294 0.73868,-0.97228 1.01015,-1.51523 0.23809,-0.47619 0.26698,-1.03903 0.50507,-1.51522 0.77013,-1.54026 0.40041,0.92375 1.01016,-1.51523 0.0817,-0.32667 -0.15059,-0.70899 0,-1.01016 0.21296,-0.42591 0.67343,-0.67343 1.01015,-1.01015 0.16836,-0.16836 0.42978,-0.2792 0.50508,-0.50507 0.10648,-0.31944 -0.10648,-0.69072 0,-1.01016 0.0753,-0.22587 0.373,-0.30697 0.50507,-0.50507 1.43607,-2.15411 -0.66937,0.16429 1.51523,-2.02031 0.16836,-0.16836 0.26698,-0.50507 0.50508,-0.50507 0.16836,0 0,0.33671 0,0.50507 0,1.01015 0,2.02031 0,3.03046 0,5.90276 0.33018,6.03617 -1.51523,12.62691 -0.48892,1.74612 -1.39345,3.34928 -2.02031,5.05076 -0.55215,1.49871 -1.10369,3.00242 -1.51523,4.54569 -0.26386,0.9895 -0.25669,2.03694 -0.50507,3.03045 -0.25825,1.03301 -0.67344,2.02031 -1.01015,3.03046 -0.16836,0.50508 -0.28885,1.02872 -0.50508,1.51523 -0.45869,1.03204 -1.05654,1.99841 -1.51523,3.03046 -0.21623,0.48651 -0.37595,0.99872 -0.50508,1.51523 -0.0408,0.16333 0.0753,0.35449 0,0.50507 -0.10648,0.21296 -0.39859,0.29212 -0.50507,0.50508 -0.15059,0.30117 0.10648,0.69071 0,1.01015 -0.58037,1.74111 -0.50508,0.37414 -0.50508,1.51523"
           id="path4180"
           inkscape:connector-curvature="0" />
        <path
           style="fill:none;fill-rule:evenodd;stroke:#000000;stroke-width:5.5;stroke-linecap:butt;stroke-linejoin:miter;stroke-miterlimit:4;stroke-dasharray:none;stroke-opacity:1"
           d="m 373.25136,998.31895 c 0,-0.84178 -0.11904,-1.69204 0,-2.52538 0.0532,-0.37268 0.3183,-0.68329 0.50508,-1.01015 0.48706,-0.85235 0.91253,-1.75048 1.51523,-2.52538 0.58471,-0.75177 1.42536,-1.27662 2.02031,-2.02031 0.75841,-0.94801 1.27494,-2.07214 2.0203,-3.03045 0.43853,-0.56383 1.10006,-0.93399 1.51523,-1.51523 1.21596,-1.70235 1.15443,-3.10254 2.0203,-5.05076 0.5882,-1.32345 1.93718,-2.21208 2.52539,-3.53553 0.18957,-0.42653 0.98475,-5.85775 1.01015,-6.06092 0.0418,-0.33411 -0.0817,-0.68349 0,-1.01015 -0.30443,-0.91416 0.81819,-0.93935 1.01015,-1.51523 0.10648,-0.31943 0,-0.67343 0,-1.01015 0,-0.16836 -0.0753,-0.35449 0,-0.50508 0.21296,-0.42591 0.79719,-0.58423 1.01015,-1.01015 0.2381,-0.47619 0.26698,-1.03904 0.50508,-1.51523 0.27147,-0.54294 0.73868,-0.97228 1.01015,-1.51523 0.15059,-0.30116 -0.15058,-0.70898 0,-1.01015 0.10648,-0.21296 0.33672,-0.33672 0.50508,-0.50507 0.16836,-0.16836 0.33672,-0.33672 0.50507,-0.50508 1.1845,-1.18449 -0.11904,0.35714 0.50508,-1.51523 0.33503,-1.00508 0.47141,-0.2357 1.01015,-0.50508 0.21296,-0.10647 0.26698,-0.50507 0.50508,-0.50507 0.16836,0 0,0.33672 0,0.50507 0,0.50508 0,1.01016 0,1.51523 0,0.67344 0,1.34687 0,2.02031 0,0.50507 -0.099,1.01996 0,1.51523 0.0738,0.36915 0.41377,0.64493 0.50508,1.01015 0.20416,0.81666 -0.20417,1.70872 0,2.52538 0.0577,0.23099 0.42978,0.2792 0.50507,0.50508 0.10648,0.31944 -0.12505,0.69752 0,1.01015 1.23403,3.08506 1.04724,-0.20836 1.51523,3.53553 0.0835,0.66824 0,1.34687 0,2.02031 0,1.68359 0,3.36717 0,5.05076 0,1.51523 0,3.03046 0,4.54569 0,0.33672 0.066,0.67997 0,1.01015 -0.10441,0.52206 -0.37595,0.99873 -0.50508,1.51523 -0.0408,0.16333 0.0753,0.35449 0,0.50508 -0.10647,0.21295 -0.44733,0.27409 -0.50507,0.50507 -0.1225,0.49 0.1225,1.02523 0,1.51523 -0.0577,0.23099 -0.42979,0.2792 -0.50508,0.50508 -0.10648,0.31944 0,0.67343 0,1.01015 0,0.67343 0.0952,1.35364 0,2.0203 -0.21855,1.52988 -0.51957,1.52973 -1.51523,2.52539"
           id="path4182"
           inkscape:connector-curvature="0" />
        <path
           style="fill:none;fill-rule:evenodd;stroke:#000000;stroke-width:5.5;stroke-linecap:butt;stroke-linejoin:miter;stroke-miterlimit:4;stroke-dasharray:none;stroke-opacity:1"
           d="m 384.36304,981.14636 c 3.03046,0 6.06092,0 9.09138,0 0.17206,0 1.74695,-0.0911 2.0203,0 3.65848,1.21949 -0.79631,-0.14561 1.51523,1.01015 0.15058,0.0753 0.34536,-0.0532 0.50508,0 0.35714,0.11905 0.67343,0.33672 1.01015,0.50508"
           id="path4184"
           inkscape:connector-curvature="0" />
      </g>
    </g>
    <text
       xml:space="preserve"
       style="font-style:normal;font-weight:normal;font-size:25.66210747px;line-height:125%;font-family:sans-serif;letter-spacing:0px;word-spacing:0px;fill:#000000;fill-opacity:1;stroke:none;stroke-width:1px;stroke-linecap:butt;stroke-linejoin:miter;stroke-opacity:1"
       x="3.8438752"
       y="914.4483"
       id="text4255"
       sodipodi:linespacing="125%"><tspan
         sodipodi:role="line"
         id="tspan4257"
         x="3.8438752"
         y="914.4483">Genervt? Gib der Alternative c3s</tspan></text>
    <path
       style="fill:#000000"
       d="m 85.238082,989.01271 c -1.588709,-0.34935 -4.633785,-1.47822 -6.766835,-2.50869 -3.233732,-1.56218 -4.475895,-2.46714 -7.474197,-5.44527 -3.035034,-3.0146 -3.892597,-4.18317 -5.497959,-7.49187 -2.064591,-4.25524 -3.163181,-8.69804 -3.163181,-12.7922 0,-4.0942 1.09859,-8.537 3.163181,-12.7922 1.605362,-3.30874 2.462925,-4.47731 5.497959,-7.49192 2.998295,-2.97812 4.240473,-3.88309 7.474197,-5.44525 14.704239,-7.10335 31.485513,-1.44846 38.820213,13.08149 3.76354,7.45553 3.76354,17.84019 0,25.29572 -3.77094,7.47021 -10.60572,13.11097 -18.435868,15.21527 -3.604375,0.96852 -10.104119,1.14757 -13.61751,0.37492 z m 11.018128,-5.58223 c 4.01682,-0.83151 8.10524,-3.11407 11.31077,-6.31479 4.6707,-4.66367 6.86131,-9.88087 6.86131,-16.34101 0,-6.46018 -2.19061,-11.67735 -6.86131,-16.34105 -4.95543,-4.94799 -10.732936,-7.09744 -17.906874,-6.66204 -9.04518,0.54895 -17.003674,6.52379 -20.196806,15.16271 -1.021038,2.76235 -1.141869,3.62687 -1.124672,8.0467 0.01705,4.3818 0.147828,5.27851 1.136091,7.78977 4.283642,10.88527 15.460477,17.00324 26.781491,14.65971 z M 77.773463,970.50362 c -1.971604,-0.85838 -4.187488,-3.4123 -4.948442,-5.70332 -1.788676,-5.38519 0.82331,-11.67044 5.694219,-13.70204 5.032464,-2.09898 11.683469,1.09847 10.231074,4.91858 -0.355442,0.93487 -1.815106,1.86928 -2.920116,1.86928 -0.91785,0 -2.036397,-1.71485 -2.036397,-3.12203 0,-2.74608 -1.274611,-3.73971 -3.363277,-2.62189 -1.364438,0.73023 -2.001196,2.92178 -2.001196,6.88759 0,6.01336 2.113936,9.17261 6.137624,9.17261 1.158879,0 2.009119,-0.31107 2.90061,-1.0612 0.693641,-0.58366 1.466801,-0.93412 1.718129,-0.77879 0.661719,0.40895 -1.948214,3.01688 -3.947609,3.94456 -1.950225,0.90488 -5.616105,1.00145 -7.464619,0.19665 z m 16.233471,-11.41263 c -0.600689,-0.34986 -0.722141,-1.02787 -0.722141,-4.03144 0,-3.81323 0.321181,-4.60117 1.875508,-4.60117 1.625637,0 2.25101,1.24143 2.25101,4.4685 0,2.40902 -0.153444,3.11267 -0.825304,3.78454 -0.916958,0.91695 -1.507302,1.00383 -2.579073,0.37957 z m 5.703437,-0.20272 c -0.809641,-0.80966 -0.932226,-7.15575 -0.153271,-7.9347 0.78465,-0.78467 2.72003,-0.60165 3.20417,0.30298 0.23494,0.43899 0.42717,2.17431 0.42717,3.85622 0,2.43854 -0.15288,3.19644 -0.75464,3.741 -0.94772,0.85769 -1.88832,0.8696 -2.723429,0.0345 z m 5.811609,-0.10621 c -0.79231,-0.87547 -0.97279,-6.18575 -0.25577,-7.52551 0.48414,-0.90463 2.41953,-1.08765 3.20417,-0.30298 0.77896,0.77895 0.65637,7.12504 -0.15327,7.9347 -0.86158,0.86158 -1.95698,0.81996 -2.79513,-0.10621 z m 126.24874,26.99446 c -2.61448,-0.97591 -3.1185,-2.70617 -1.12207,-3.85196 l 1.18875,-0.68226 -0.98243,-0.77278 c -1.35537,-1.06612 -1.24774,-2.47954 0.28718,-3.77108 0.69829,-0.58758 1.4745,-1.0683 1.72488,-1.0683 0.2504,0 -0.32092,-0.66441 -1.26961,-1.47644 -1.51655,-1.29813 -1.72489,-1.68577 -1.72489,-3.2094 0,-2.01728 0.78065,-3.30953 2.55291,-4.22602 1.04744,-0.54163 2.07165,-0.60366 5.95841,-0.36079 4.21469,0.26334 4.69355,0.37241 4.69355,1.06907 0,0.56094 -0.29798,0.77584 -1.07578,0.77584 -0.8671,0 -1.01588,0.14008 -0.76695,0.72214 0.65099,1.5222 0.65788,2.93 0.0204,4.16287 -0.85284,1.64919 -1.78406,2.12156 -4.86392,2.46727 -1.74231,0.19556 -2.65021,0.50633 -2.96708,1.01564 -0.68368,1.09891 0.30872,1.52203 3.58726,1.52939 3.0012,0.007 4.92256,0.70385 5.64124,2.04672 1.01525,1.89701 0.13969,4.04814 -2.12415,5.21883 -1.79232,0.92684 -6.75235,1.15981 -8.75764,0.41126 z m 8.10157,-1.11951 c 0.5293,-0.28325 0.7377,-0.77123 0.65076,-1.52374 -0.12713,-1.10046 -0.15018,-1.10776 -3.88223,-1.22485 -2.92674,-0.0919 -3.86664,0.0175 -4.26377,0.49601 -0.7793,0.939 -0.12917,2.24743 1.33874,2.69435 1.4698,0.44745 4.96337,0.19678 6.1565,-0.44177 z m -2.80174,-10.76932 c 0.7373,-1.05265 0.87238,-4.89712 0.2152,-6.12508 -0.48074,-0.89828 -2.14614,-1.06806 -2.76971,-0.28235 -0.67216,0.84693 -0.93422,3.29524 -0.53648,5.01217 0.55679,2.40348 1.94567,3.03045 3.09099,1.39526 z m 85.74046,11.829 c -1.26773,-0.88795 -1.26089,-2.96828 0.0113,-3.44867 1.17491,-0.44365 2.37274,0.15842 2.37274,1.19266 0,2.12338 2.26554,0.51922 2.72491,-1.92943 0.2056,-1.096 -0.19902,-2.50935 -1.95496,-6.82872 -1.21784,-2.99569 -2.63204,-6.06337 -3.1427,-6.81704 -0.51065,-0.7537 -0.92846,-1.44062 -0.92846,-1.52648 0,-0.32636 7.05365,-0.0786 7.25983,0.25495 0.11913,0.19275 -0.0787,0.35049 -0.43969,0.35049 -0.36094,0 -0.7544,0.25571 -0.87433,0.56824 -0.21337,0.55606 2.23945,7.47745 2.54247,7.17442 0.39366,-0.39366 2.24067,-5.79517 2.24067,-6.55277 0,-0.50587 -0.33485,-0.94206 -0.82067,-1.06913 -1.37031,-0.35835 -0.58218,-0.79108 1.62412,-0.89173 2.04512,-0.0933 2.70449,0.38331 1.47902,1.06914 -0.33334,0.18655 -2.00713,4.0489 -3.71954,8.58301 -2.39049,6.32956 -3.40112,8.50737 -4.35226,9.37866 -1.39715,1.27988 -2.67494,1.43626 -4.0225,0.4924 z m -192.18123,-5.71727 c -3.64363,-1.61944 -4.99225,-6.19881 -2.99172,-10.15882 1.24706,-2.46855 3.16418,-3.70145 5.75547,-3.70145 1.11251,0 2.5679,0.28189 3.23422,0.62647 2.11325,1.0928 2.11253,3.94456 -0.002,4.25711 -1.23031,0.18193 -1.73309,-0.38069 -2.04063,-2.28355 -0.18748,-1.15995 -0.47293,-1.60003 -1.09602,-1.68975 -2.96523,-0.42702 -3.57507,7.69703 -0.78706,10.48505 1.23256,1.23257 3.15386,1.28519 4.77504,0.13079 1.5183,-1.08111 1.559,-0.47022 0.0637,0.95629 -2.03118,1.93772 -4.53102,2.43607 -6.91191,1.37786 z m 12.66001,-0.0881 c -0.75359,-0.38423 -1.86775,-1.35095 -2.47591,-2.14829 -0.9644,-1.26437 -1.10576,-1.83242 -1.10576,-4.44331 0,-3.33661 0.60497,-4.5604 3.09069,-6.25214 1.93036,-1.31381 5.0737,-1.27915 7.07084,0.078 1.95899,1.33118 2.83701,3.28699 2.83701,6.31948 0,2.68043 -0.87721,4.45846 -2.961,6.00181 -1.51071,1.11888 -4.70217,1.33864 -6.45587,0.44451 z m 4.27987,-1.0034 c 0.60127,-0.66437 0.80185,-1.6725 0.92372,-4.64234 0.1971,-4.80279 -0.438,-7.0363 -2.05383,-7.22292 -1.42797,-0.16493 -2.22329,1.04153 -2.60533,3.95218 -0.7917,6.03155 1.34395,10.55566 3.73544,7.91308 z m 25.76314,0.92134 c -2.9841,-1.56211 -4.18517,-6.53061 -2.4844,-10.27725 1.01516,-2.23631 2.89816,-3.40932 5.47606,-3.41138 2.60447,-0.003 4.31492,1.47083 5.04604,4.34519 l 0.52127,2.0494 -3.86361,0.11808 c -2.69106,0.0823 -3.86291,0.27014 -3.86131,0.61898 0.007,1.43626 0.97763,3.65751 1.9245,4.40231 1.39455,1.09695 2.17262,1.06434 3.98732,-0.16715 1.92366,-1.30543 2.27975,-0.72944 0.56909,0.92051 -2.32553,2.24302 -4.80109,2.71723 -7.31496,1.40131 z m 4.67035,-9.96439 c -0.13328,-2.82977 -1.85504,-3.89815 -3.19623,-1.98334 -0.5936,0.84748 -0.88933,3.23754 -0.45439,3.67247 0.10338,0.10339 0.98542,0.15539 1.96009,0.11554 l 1.77212,-0.0725 -0.0816,-1.73225 z m 8.63099,10.03077 c -2.62043,-1.29157 -4.14053,-4.84906 -3.42768,-8.02176 0.46857,-2.08547 1.48139,-3.54583 3.33344,-4.8063 2.67374,-1.81972 7.26126,-0.94058 8.04938,1.54263 0.36951,1.1642 -0.48654,2.48073 -1.61307,2.48073 -1.24811,0 -1.79252,-0.68735 -1.96238,-2.47759 -0.11556,-1.21786 -0.31001,-1.4626 -1.24808,-1.57092 -0.88241,-0.10188 -1.2435,0.12755 -1.75377,1.11432 -0.80489,1.55646 -0.84208,5.78442 -0.0672,7.63898 1.09847,2.62905 3.70509,3.48803 5.73621,1.89037 1.32855,-1.04506 1.82565,-0.41466 0.58759,0.74516 -2.30426,2.15863 -5.12728,2.70012 -7.63447,1.46438 z m 12.41965,0.27073 c -1.49188,-0.60109 -1.78074,-1.75981 -1.78074,-7.14326 0,-4.92581 -0.0369,-5.1468 -0.89636,-5.37154 -0.85193,-0.2228 -0.8154,-0.32226 0.73762,-2.00823 0.89867,-0.9756 2.07972,-2.37734 2.62455,-3.11493 0.54484,-0.73763 1.13253,-1.34111 1.30597,-1.34111 0.17344,0 0.37063,1.1545 0.43821,2.5656 0.12186,2.54484 0.13288,2.5657 1.36081,2.57907 1.76037,0.0191 1.67143,1.20964 -0.10317,1.38074 l -1.34111,0.1293 0,4.87513 c 0,3.87161 0.1299,4.98296 0.63108,5.39892 0.52352,0.43447 0.80483,0.36049 1.6506,-0.43409 1.20253,-1.1297 1.42039,-0.29981 0.28821,1.09789 -1.34756,1.66358 -3.04188,2.1415 -4.91567,1.38651 z m 53.10195,-2.00984 c 0,-1.4092 0.18248,-2.52642 0.41265,-2.52642 0.22695,0 0.41266,0.27558 0.41266,0.61244 0,0.33685 0.51064,1.18372 1.13478,1.88188 1.73462,1.9404 5.05499,1.66606 5.05499,-0.41767 0,-0.89175 -0.93989,-1.7268 -3.25347,-2.89053 -2.79841,-1.40764 -3.76161,-2.57621 -3.76161,-4.5636 0,-1.33528 0.263,-1.96409 1.22291,-2.92402 1.17881,-1.1788 1.34254,-1.21861 4.53859,-1.10307 l 3.31566,0.1199 3.3e-4,1.9601 c 3.3e-4,1.07805 -0.18494,1.96009 -0.41189,1.96009 -0.22696,0 -0.41265,-0.24383 -0.41265,-0.54179 0,-0.91863 -2.25238,-2.75942 -3.37643,-2.75942 -1.34085,0 -2.15098,0.95101 -1.84091,2.16104 0.16099,0.62826 1.12696,1.39037 2.95197,2.32897 3.11861,1.60389 4.13997,3.04812 3.76961,5.33034 -0.48428,2.98424 -3.19296,4.35586 -6.67607,3.38068 -1.4692,-0.41137 -1.96234,-0.41107 -2.45944,0.003 -0.54242,0.45002 -0.62177,0.19342 -0.62177,-2.01058 z m 16.29974,2.15011 c -1.62544,-0.43615 -3.44271,-2.20964 -4.1429,-4.04302 -1.92733,-5.04664 1.12273,-10.1245 6.08135,-10.1245 2.36949,0 4.0716,0.77469 5.20776,2.3703 3.34785,4.70159 0.76561,11.49123 -4.51999,11.88463 -0.9905,0.0737 -2.1723,0.0344 -2.62622,-0.0874 z m 3.32237,-1.39872 c 0.60126,-0.66437 0.80186,-1.6725 0.92372,-4.64234 0.1971,-4.80279 -0.43799,-7.0363 -2.05383,-7.22292 -1.48418,-0.17144 -2.23446,1.08705 -2.53648,4.2546 -0.59667,6.25792 1.30971,10.21498 3.66659,7.61066 z m 10.6728,1.08745 c -3.69087,-1.607 -4.94734,-7.22943 -2.45968,-11.00638 1.23979,-1.88232 3.27451,-2.84987 5.99315,-2.84987 1.81043,0 2.31958,0.18374 3.34203,1.20619 1.35957,1.35958 1.50237,2.15253 0.55775,3.09717 -1.26421,1.2642 -3.06541,0.52545 -3.06541,-1.25727 0,-2.4253 -1.88276,-3.09703 -3.17079,-1.13125 -0.94166,1.43717 -0.93398,6.0359 0.0132,7.86748 1.34252,2.59617 3.7692,3.32696 5.78421,1.74195 0.81127,-0.63812 1.08727,-0.70676 1.08727,-0.27027 0,0.7955 -1.16639,1.79064 -2.99357,2.55408 -1.84361,0.77031 -3.39582,0.785 -5.08813,0.0481 z m 20.45482,-0.16611 c -2.98411,-1.56211 -4.18519,-6.53061 -2.4844,-10.27725 1.00718,-2.21875 2.9012,-3.40932 5.42691,-3.41138 2.91854,-0.003 4.71638,1.70099 5.3338,5.05347 l 0.285,1.54744 -3.91292,0 c -3.85646,0 -3.90932,0.0136 -3.66409,0.92847 0.13685,0.51064 0.25136,1.2677 0.25446,1.68233 0.007,1.00071 2.20811,3.16633 3.21752,3.16633 0.43971,0 1.47002,-0.45507 2.28958,-1.01123 1.92366,-1.30543 2.27976,-0.72944 0.56909,0.92051 -2.32554,2.24302 -4.80109,2.71723 -7.31495,1.40131 z m 4.67034,-9.93194 c -0.0905,-1.95789 -0.68072,-2.9329 -1.77533,-2.9329 -0.94636,0 -1.58454,0.8044 -1.90353,2.39932 -0.39186,1.95931 -0.0639,2.34899 1.95415,2.32224 l 1.8063,-0.0237 -0.0816,-1.76473 z m 7.84059,10.21036 c -1.36218,-0.68772 -1.77555,-2.46502 -1.77555,-7.63406 0,-3.88837 -0.10513,-4.6839 -0.61897,-4.6839 -1.1037,0 -0.66649,-0.83332 1.96009,-3.73595 l 2.57908,-2.85013 0.20632,2.57088 0.20632,2.57092 1.34113,-0.13426 c 1.12538,-0.11267 1.34112,0.004 1.34112,0.72214 0,0.70362 -0.25763,0.8564 -1.44429,0.8564 l -1.44428,0 0,4.30597 c 0,4.26716 0.41209,6.42298 1.22774,6.42298 0.23258,0 0.80973,-0.38687 1.28256,-0.8597 0.98537,-0.98538 1.46444,-0.81147 0.86257,0.31315 -1.0982,2.05201 -3.85326,3.0799 -5.72384,2.13556 z m -161.88445,-0.25179 c 0,-0.17236 0.37139,-0.54532 0.82531,-0.8288 0.78247,-0.48865 0.8253,-0.9623 0.8253,-9.12727 0,-8.46382 -0.016,-8.62297 -0.92846,-9.2595 -0.88145,-0.61486 -0.77695,-0.64877 2.06326,-0.66933 l 2.99173,-0.0218 0,9.28117 c 0,8.83425 0.0397,9.30596 0.82529,9.79655 1.46705,0.91622 0.89551,1.14222 -2.88855,1.14222 -2.04264,0 -3.71388,-0.14103 -3.71388,-0.31342 z m 8.25304,0.0776 c 0,-0.1297 0.27855,-0.51436 0.61899,-0.85479 0.51053,-0.51052 0.61897,-2.12317 0.61897,-9.20487 0,-8.43684 -0.0162,-8.59712 -0.92846,-9.23352 -0.88145,-0.61486 -0.77694,-0.64877 2.06326,-0.66933 l 2.99172,-0.0218 0,9.28117 c 0,8.83425 0.0397,9.30596 0.8253,9.79655 1.45403,0.90807 0.9042,1.14222 -2.68224,1.14222 -1.92914,0 -3.50754,-0.10613 -3.50754,-0.2358 z m 43.74109,-0.1327 c 0,-0.2027 0.27855,-0.47538 0.61899,-0.60604 0.5093,-0.19543 0.61897,-1.25843 0.61897,-5.99979 0,-5.4137 -0.0503,-5.77821 -0.83129,-6.02611 -1.48071,-0.46996 -0.50317,-0.89655 2.25941,-0.98598 l 2.6984,-0.0874 0,6.00525 c 0,5.45506 0.0756,6.08087 0.8253,6.83057 0.45391,0.45392 0.82531,0.91814 0.82531,1.03163 0,0.11346 -1.57839,0.20633 -3.50755,0.20633 -1.92914,0 -3.50754,-0.16586 -3.50754,-0.36851 z m 7.84039,0.0551 c 0,-0.17235 0.37139,-0.54532 0.8253,-0.8288 0.7562,-0.47225 0.8253,-0.9623 0.8253,-5.85299 0,-4.9328 -0.0649,-5.38299 -0.85561,-5.93684 -1.145,-0.80199 -0.65076,-1.00473 2.2999,-0.94332 2.24408,0.0467 2.4884,0.13951 2.60925,0.9913 l 0.13334,0.93972 1.23944,-1.0429 c 1.86347,-1.568 4.45891,-1.46804 5.88493,0.2267 1.02417,1.21715 1.06831,1.48195 1.06831,6.40904 0,4.18773 0.11462,5.18344 0.61898,5.37696 1.48634,0.57038 0.37393,0.97455 -2.68224,0.97455 -1.81567,0 -3.30121,-0.10614 -3.30121,-0.23581 0,-0.1297 0.27854,-0.51436 0.61897,-0.85478 0.91632,-0.91632 0.89194,-9.71911 -0.0295,-10.64055 -0.8044,-0.80436 -0.81774,-0.80403 -2.27961,0.0595 l -1.19847,0.70795 0,4.87579 c 0,3.95337 0.11711,4.92073 0.61898,5.11332 1.51346,0.58078 0.34632,0.97456 -2.88856,0.97456 -1.92915,0 -3.50754,-0.14103 -3.50754,-0.31343 z m 77.99119,0.10709 c 0,-0.11349 0.37138,-0.57771 0.8253,-1.03163 0.73368,-0.73369 0.8253,-1.37551 0.8253,-5.78118 0,-4.44522 -0.085,-5.02868 -0.8253,-5.66251 -1.34722,-1.15351 -0.97616,-1.39285 1.9601,-1.26424 l 2.78539,0.12206 0.114,6.31004 c 0.0922,5.10374 0.23027,6.35467 0.72214,6.5434 1.50295,0.57675 0.32679,0.97039 -2.89939,0.97039 -1.92914,0 -3.50754,-0.0929 -3.50754,-0.20633 z m -83.91069,-16.64179 c -1.3605,-1.50334 -0.4249,-3.7845 1.55217,-3.7845 1.98422,0 3.00455,2.53935 1.54943,3.8562 -0.99,0.89595 -2.2523,0.86677 -3.1016,-0.0717 z m 85.83157,0 c -0.89595,-0.99 -0.86676,-2.25228 0.0717,-3.10159 1.50333,-1.36049 3.78453,-0.4249 3.78453,1.55216 0,1.98424 -2.53939,3.00453 -3.85624,1.54943 z M 130.01465,956.2952 c -4.55088,-2.44065 -4.28795,-10.23235 0.43057,-12.75972 3.54011,-1.89616 8.02674,-0.40133 7.73488,2.57705 -0.10147,1.03546 -0.32673,1.27427 -1.30765,1.38638 -1.48969,0.17024 -1.96676,-0.30536 -2.28787,-2.28087 -0.21562,-1.32656 -0.41293,-1.56841 -1.27956,-1.56841 -2.85928,0 -3.35369,7.47461 -0.68921,10.41945 1.01266,1.11919 3.35363,1.25077 4.75759,0.26741 1.19665,-0.83819 1.66595,-0.42388 0.71284,0.62931 -1.87651,2.07353 -5.55454,2.67929 -8.07159,1.3294 z m 12.33994,0.23667 c -1.32781,-1.0195 -1.61484,-2.30525 -1.61484,-7.23399 0,-4.64415 -0.0535,-4.96599 -0.92847,-5.57629 -0.88144,-0.61484 -0.77694,-0.64874 2.06326,-0.66931 l 2.99173,-0.0218 0,5.7626 c 0,5.35843 0.0584,5.79386 0.83319,6.20849 0.61644,0.32992 1.12635,0.30559 1.96009,-0.0934 l 1.12691,-0.53936 0.11614,-5.08542 c 0.10996,-4.81445 0.0714,-5.09707 -0.72213,-5.30462 -1.76771,-0.46227 -0.71693,-0.94824 2.05027,-0.94824 l 2.88856,0 0,5.53702 c 0,5.86382 0.15387,6.84253 1.07578,6.84253 0.31616,0 0.57484,0.16426 0.57484,0.36508 0,0.20081 -1.05043,0.49638 -2.33428,0.65678 -1.28386,0.16041 -2.58372,0.38736 -2.88857,0.50432 -0.3551,0.13628 -0.55429,-0.0976 -0.55429,-0.65067 l 0,-0.86339 -1.34111,0.81771 c -1.50074,0.915 -4.28557,1.06844 -5.29708,0.29183 z m 23.74449,-0.48394 c -0.97187,-0.97187 -1.01287,-1.23079 -1.01287,-6.3961 0,-5.10813 -0.0421,-5.38322 -0.8253,-5.38322 -0.45392,0 -0.82531,-0.10647 -0.82531,-0.2366 0,-0.37178 5.12184,-5.94473 5.46764,-5.94918 0.17021,-0.003 0.30949,1.11016 0.30949,2.47191 l 0,2.47592 1.44428,0 c 1.0087,0 1.44429,0.18664 1.44429,0.61897 0,0.43329 -0.43695,0.61898 -1.45663,0.61898 l -1.45659,0 0.11548,5.25622 c 0.10552,4.80231 0.18378,5.26938 0.90623,5.40796 0.46667,0.0895 1.07666,-0.22736 1.4884,-0.77322 0.42452,-0.56279 0.80302,-0.75442 0.96677,-0.48947 0.14802,0.23951 -0.358,1.10036 -1.12447,1.91305 -1.75575,1.86166 -3.86442,2.04177 -5.44141,0.46478 z m 9.84226,0.0178 c -1.14396,-0.983 -1.15945,-1.05982 -1.29428,-6.42185 -0.10593,-4.21281 -0.26749,-5.47717 -0.72214,-5.65165 -1.36068,-0.52215 -0.40235,-0.96174 2.09656,-0.96174 l 2.68225,0 0,5.54132 c 0,4.53706 0.12005,5.66139 0.66244,6.20377 0.42176,0.42176 0.98403,0.56405 1.54745,0.39163 1.80917,-0.55368 1.91662,-0.89206 1.91662,-6.03611 0,-4.59288 -0.058,-4.95509 -0.8253,-5.15577 -1.75595,-0.45917 -0.6954,-0.94484 2.06325,-0.94484 l 2.88857,0 0,5.77362 c 0,5.32671 0.0639,5.81351 0.8253,6.28905 1.22009,0.76196 1.02707,1.00235 -1.03134,1.28446 -1.02117,0.13999 -2.32101,0.37103 -2.88857,0.51348 -0.85468,0.21452 -1.03191,0.11062 -1.03191,-0.60498 l 0,-0.86396 -1.34112,0.81771 c -1.86256,1.13562 -4.10552,1.06521 -5.54778,-0.17414 z m 27.93414,0.16961 c -0.89711,-0.89713 -1.08591,-2.86851 -0.39783,-4.1542 0.45234,-0.84522 3.28236,-2.41293 5.86546,-3.2492 1.46815,-0.47533 1.54745,-0.59124 1.54745,-2.26195 0,-2.618 -1.65906,-3.81389 -3.74342,-2.69838 -0.7558,0.4045 -0.76369,0.4998 -0.14095,1.70405 0.62205,1.20294 0.61258,1.32267 -0.16636,2.10163 -1.12443,1.12438 -2.84997,0.69813 -3.22515,-0.79676 -0.96513,-3.84538 7.39473,-5.89465 10.42402,-2.55527 0.63608,0.70118 0.80839,1.73413 0.97837,5.86474 0.18448,4.48265 0.28282,5.00088 0.92847,4.89247 1.00859,-0.16936 0.90094,0.56817 -0.19498,1.3358 -1.33285,0.93355 -3.44694,0.82557 -4.17457,-0.2133 l -0.59932,-0.85563 -1.67723,0.85563 c -2.15367,1.09875 -4.34333,1.11099 -5.42396,0.0304 z m 6.2169,-1.66513 c 1.06765,-0.57136 1.19803,-4.93729 0.14746,-4.93729 -0.85704,0 -3.06314,2.22564 -3.06314,3.09026 0,1.89698 1.29247,2.71575 2.91568,1.84703 z m 27.41421,2.09255 c -3.20743,-1.343 -4.85431,-6.05865 -3.36267,-9.62862 0.75496,-1.80689 3.23153,-3.90296 5.00446,-4.23556 3.35078,-0.62862 6.14062,0.91034 5.91244,3.26143 -0.11553,1.19029 -0.25173,1.30333 -1.57077,1.30333 -1.36744,0 -1.46778,-0.0975 -1.88596,-1.83225 -0.48499,-2.01185 -0.94642,-2.36793 -2.19964,-1.69722 -2.25977,1.20941 -2.1418,7.86218 0.1806,10.18459 1.17678,1.17677 3.65994,1.3286 4.8035,0.2937 1.04922,-0.94953 1.47602,-0.34267 0.50984,0.72495 -1.66873,1.84393 -5.07921,2.59396 -7.3918,1.62565 z m 12.16904,-0.53058 c -2.19913,-1.49673 -3.01824,-2.92438 -3.2116,-5.59767 -0.30461,-4.21102 2.10393,-7.38706 5.92888,-7.81819 2.26069,-0.25483 3.94957,0.42282 5.52448,2.21653 2.33816,2.66299 2.51107,6.72666 0.41168,9.67497 -1.75892,2.47019 -6.13189,3.2405 -8.65344,1.52436 z m 5.1834,-1.32788 c 0.69977,-1.67476 0.79518,-7.12679 0.16446,-9.39786 -0.55819,-2.00991 -2.19936,-2.57551 -3.35003,-1.1545 -1.14197,1.41028 -1.20655,9.30371 -0.0904,11.05494 0.94272,1.47915 2.55108,1.23241 3.27601,-0.50258 z m 59.3658,1.66979 c -3.55858,-1.54942 -4.9211,-7.0822 -2.6493,-10.75803 1.22521,-1.98244 3.79936,-3.23486 6.17878,-3.00625 4.99456,0.47993 7.67636,5.89468 5.27437,10.64936 -1.68449,3.33438 -5.33406,4.62565 -8.80385,3.11492 z m 4.68,-1.47669 c 0.82565,-1.58442 0.53174,-10.06448 -0.38039,-10.97515 -1.13496,-1.13315 -2.70072,-0.45508 -3.26005,1.41176 -0.64145,2.141 -0.35907,9.22207 0.4044,10.14077 0.82701,0.99511 2.57952,0.68243 3.23604,-0.57738 z m 22.38369,-0.41266 c 0,-1.36175 0.0891,-2.47591 0.19794,-2.47591 0.10887,0 0.56331,0.71617 1.00988,1.59152 1.37564,2.69646 5.05798,3.40091 5.64073,1.07906 0.34074,-1.35762 -0.29793,-2.06392 -3.18339,-3.52048 -2.7762,-1.40142 -3.67007,-2.50363 -3.65203,-4.50325 0.026,-2.88582 2.01293,-4.19991 6.11415,-4.04365 l 2.94354,0.11214 0.004,2.16642 c 0.002,1.19151 -0.0707,2.16642 -0.1618,2.16642 -0.0911,0 -0.54995,-0.6515 -1.01974,-1.44771 -1.10562,-1.87391 -2.5618,-2.57152 -3.99992,-1.91626 -0.82423,0.37554 -1.02986,0.73294 -0.92847,1.61367 0.1048,0.91034 0.61329,1.38779 2.6035,2.44458 3.13398,1.66408 4.33554,3.03341 4.33554,4.9408 0,2.16576 -2.20253,4.26857 -4.47104,4.26857 -0.91576,0 -2.17157,-0.1926 -2.79069,-0.42802 -0.77736,-0.29555 -1.25814,-0.29555 -1.55368,0 -0.84555,0.84555 -1.08823,0.38886 -1.08823,-2.0479 z m -185.38382,1.37228 c 0.91378,-0.63739 0.92848,-0.78744 0.92848,-9.48227 0,-7.47237 -0.0954,-8.87126 -0.61898,-9.07216 -1.39201,-0.53418 -0.45966,-0.97453 2.06326,-0.97453 l 2.68224,0 0,9.26859 c 0,9.00337 0.0258,9.29266 0.90311,10.10997 l 0.90311,0.84138 -3.89484,-0.0218 c -3.66104,-0.0204 -3.83911,-0.0605 -2.96638,-0.66932 z m 34.66276,0 c 0.88358,-0.61633 0.92847,-0.91205 0.92847,-6.11777 0,-5.20576 -0.0449,-5.50144 -0.92847,-6.11781 -0.88144,-0.61485 -0.77694,-0.64876 2.06326,-0.66933 2.95336,-0.0214 2.99172,-0.008 2.99172,1.05276 l 0,1.07435 1.45864,-1.28067 c 1.85182,-1.62595 3.60239,-1.71479 4.57384,-0.23217 1.51752,2.31602 -1.18839,4.20818 -3.17582,2.22075 -1.80847,-1.80847 -2.85666,0.0401 -2.85666,5.03772 0,3.41609 0.43397,4.89785 1.43445,4.89785 0.31906,0 0.69487,0.18569 0.83514,0.41264 0.16403,0.26539 -1.26286,0.40494 -3.999,0.39101 -3.98748,-0.0204 -4.19586,-0.0622 -3.32557,-0.66933 z m 27.67302,-0.1504 c 0.87079,-0.81128 0.90312,-1.13622 0.90312,-9.07834 0,-7.68678 -0.0551,-8.29209 -0.82531,-9.06226 -0.45391,-0.45392 -0.8253,-0.91817 -0.8253,-1.03163 0,-0.11349 1.29985,-0.20633 2.88857,-0.20633 l 2.88855,0 0,9.50394 c 0,8.06727 0.0936,9.53984 0.61899,9.74146 1.5232,0.5845 0.33601,0.97454 -2.96639,0.97454 l -3.58534,0 0.90311,-0.84138 z m 43.13966,-0.17057 c 1.0598,-0.98219 1.09189,-1.15255 1.09189,-5.7968 0,-4.64428 -0.0321,-4.81466 -1.09189,-5.79684 l -1.09188,-1.01192 2.94882,0 c 2.67372,0 2.94882,0.077 2.94882,0.82531 0,1.06988 0.24378,1.04074 1.72586,-0.20634 1.7921,-1.50795 4.17473,-1.42846 5.68634,0.1897 l 1.14087,1.22132 0.94761,-1.00869 c 1.89062,-2.01249 5.27869,-1.84274 6.60399,0.33087 0.68314,1.12041 0.81121,2.08641 0.8125,6.12838 0.002,4.50817 0.0577,4.8375 0.93002,5.44598 0.87182,0.60819 0.68934,0.64767 -2.99173,0.64767 -3.68106,0 -3.86355,-0.0395 -2.99172,-0.64767 0.86684,-0.60465 0.92846,-0.94741 0.92846,-5.16362 0,-4.92115 -0.35224,-6.1123 -1.80749,-6.1123 -1.90258,0 -2.31902,1.10118 -2.31902,6.13204 0,3.72849 0.11974,4.66874 0.61898,4.86032 1.52321,0.5845 0.33602,0.97454 -2.96637,0.97454 l -3.58536,0 0.90312,-0.84138 c 0.81856,-0.76262 0.90311,-1.24803 0.90311,-5.18528 0,-4.72421 -0.36489,-5.94727 -1.76829,-5.92714 -2.0801,0.0301 -2.35823,0.73403 -2.35823,5.97035 0,4.14543 0.10628,4.94148 0.72213,5.409 0.61704,0.46838 0.15779,0.55008 -3.15514,0.56131 l -3.87728,0.0132 1.09188,-1.01195 z m 24.75911,0 c 1.05979,-0.98219 1.09189,-1.15255 1.09189,-5.7968 0,-4.64428 -0.0321,-4.81466 -1.09189,-5.79684 l -1.09188,-1.01192 2.94882,0 c 2.67371,0 2.94881,0.077 2.94881,0.82531 0,1.06988 0.24379,1.04074 1.72587,-0.20634 1.78675,-1.50346 4.17502,-1.42816 5.67627,0.17891 l 1.1308,1.21055 1.04943,-1.04943 c 0.69865,-0.69866 1.66114,-1.11838 2.87944,-1.25571 1.53411,-0.17292 2.02568,-0.0381 3.04029,0.83382 1.20643,1.03675 1.21072,1.05701 1.34039,6.3381 0.11966,4.87243 0.20252,5.3553 1.03164,6.01098 0.87069,0.68857 0.76741,0.71253 -3.01865,0.70049 -3.68282,-0.0116 -3.86398,-0.0516 -2.99174,-0.66015 0.86685,-0.60465 0.92847,-0.94741 0.92847,-5.16362 0,-4.92115 -0.35225,-6.1123 -1.8075,-6.1123 -1.90258,0 -2.31902,1.10118 -2.31902,6.13204 0,3.72849 0.11975,4.66874 0.61898,4.86032 1.52321,0.5845 0.33602,0.97454 -2.96637,0.97454 l -3.58535,0 0.90311,-0.84138 c 0.81857,-0.76262 0.90311,-1.24803 0.90311,-5.18528 0,-4.72421 -0.36489,-5.94727 -1.76828,-5.92714 -2.0801,0.0301 -2.35823,0.73403 -2.35823,5.97035 0,4.14543 0.10628,4.94148 0.72214,5.409 0.61703,0.46838 0.15778,0.55008 -3.15514,0.56131 l -3.87729,0.0132 1.09188,-1.01195 z m 39.36534,0.32097 c 0.88358,-0.61633 0.92847,-0.91205 0.92847,-6.11777 0,-5.20576 -0.0449,-5.50144 -0.92847,-6.11781 -0.88144,-0.61485 -0.77694,-0.64876 2.06327,-0.66933 2.70869,-0.0195 2.99171,0.0553 2.99171,0.79124 0,0.77093 0.0775,0.76026 1.50187,-0.20633 2.08569,-1.41539 4.00736,-1.35058 5.54496,0.18702 1.20405,1.20405 1.2062,1.21541 1.2062,6.34576 0,4.86291 0.05,5.17442 0.92848,5.78722 0.87501,0.6104 0.72056,0.64892 -2.68224,0.66933 -3.3195,0.0198 -4.52564,-0.36426 -2.99173,-0.95289 0.50033,-0.19201 0.61898,-1.14315 0.61898,-4.96223 0,-2.59859 -0.11271,-5.0184 -0.25047,-5.37741 -0.31976,-0.83329 -1.77675,-0.83837 -2.95893,-0.0103 -0.85589,0.59951 -0.91712,0.95429 -0.91712,5.31417 0,4.37776 0.0584,4.71252 0.92847,5.31941 0.87183,0.60818 0.68933,0.64766 -2.99172,0.64766 -3.68107,0 -3.86356,-0.0395 -2.99173,-0.64766 z"
       id="path4301"
       inkscape:connector-curvature="0" />
    <text
       xml:space="preserve"
       style="font-style:normal;font-weight:normal;font-size:40px;line-height:125%;font-family:sans-serif;letter-spacing:0px;word-spacing:0px;fill:#000000;fill-opacity:1;stroke:none;stroke-width:1px;stroke-linecap:butt;stroke-linejoin:miter;stroke-opacity:1"
       x="75.118584"
       y="1029.1102"
       id="text4312"
       sodipodi:linespacing="125%"><tspan
         sodipodi:role="line"
         id="tspan4314"
         x="75.118584"
         y="1029.1102">eine Chance.</tspan></text>
  </g>
</svg>
