<svg xmlns="http://www.w3.org/2000/svg" xmlns:svg="http://www.w3.org/2000/svg" xmlns:xlink="http://www.w3.org/1999/xlink" version="1.1" viewBox="0 0 1031 305">
<path d="m 954.174,263.181 c 0.002,-78.418 0.004,-141.878 0.004,-167.025 -9.988,0.239 -19.979,0.48 -29.971,0.719 -0.018,28.631 -0.032,90.285 -0.047,166.25 z" fill="#898989"/>
<path d="m 533.841,10.056 c -3.752,0.01 -7.503,0.019 -11.253,0.019 l -10.416,-0.009 -9.865,-0.01 -19.553,-0.019 c -17.557,0.047 -62.728,0.037 -73.075,0.019 -5.567,0 -9.042,-0.009 -9.303,-0.019 l 0.077,33.092 h 131.678 v 1.906 z" fill="#898989"/>
<rect fill="#898989" height="26.655001" width="79.598" x="399.97299" y="52.465"/>
<rect fill="#898989" height="26.655001" width="71.132004" x="480.12799" y="52.465"/>
<rect fill="#898989" height="34.683998" width="33.613998" x="730.24597" y="133.272"/>
<rect fill="#898989" height="14.741" width="33.613998" x="730.24597" y="241.808"/>
<path d="m 577.224,262.872 9.552,-1.045 c 7.664,-1.147 11.759,-6.387 11.855,-15.167 3.56,-0.005 7.121,-0.014 10.682,-0.021 2.302,-0.004 4.603,-0.009 6.903,-0.014 2.558,-0.004 5.113,-0.01 7.671,-0.015 3.018,-0.004 5.805,0.012 8.822,0.007 -0.011,4.897 -0.327,9.792 -1.511,14.607 -2.071,8.436 -6.011,15.808 -12.221,21.91 -0.779,0.764 -1.106,0.952 -2.106,1.997 l -1.397,1.129 c -3.129,3.066 -6.385,4.559 -10.243,6.283 -5.86,2.62 -12.064,3.843 -18.492,3.888 l -9.895,0.062 z" fill="#898989"/>
<path d="m 524.211,296.465 -19.384,0.028 c -4.896,-0.013 -9.791,-0.329 -14.606,-1.512 -8.436,-2.071 -15.809,-6.011 -21.91,-12.221 -0.764,-0.778 -0.952,-1.106 -1.996,-2.105 l -1.13,-1.398 c -3.066,-3.128 -4.559,-6.385 -6.283,-10.243 -2.62,-5.86 -3.843,-12.065 -3.888,-18.493 l -0.062,-9.895 c 0.024,-3.273 0.063,-6.548 0.067,-9.823 l -0.037,-14.108 c 0.072,-9.567 0.012,-22.585 -0.001,-32.152 l 34.646,0.03 c 10e-4,17.528 10e-4,38.51 0.002,56.04 l -0.011,9.946 c 1.146,7.665 6.386,11.759 15.166,11.854 l 19.85,0.462 z" fill="#898989"/>
<path d="m 356.931,193.341 c 0.05,-11.792 0.098,-34.255 0.147,-46.048 5.718,-0.016 11.438,-0.056 17.158,-0.028 5.581,0.028 11.161,-0.286 16.743,-0.056 0.009,10.803 0.012,35.329 0.039,46.132 z" fill="#898989"/>
<rect fill="#898989" height="33.615002" width="19.871" x="90.003998" y="132.19901"/>
<rect fill="#898989" height="33.615002" width="19.872999" x="153.95" y="132.19901"/>
<path d="m 161.59,224.75 c -0.008,-2.493 -0.008,-4.977 -0.016,-7.462 -0.007,-2.24 -0.007,-4.48 -0.016,-6.719 -0.007,-3.467 -0.015,-6.935 -0.015,-10.401 -0.713,-0.007 -1.404,-0.046 -2.063,-0.116 -7.042,-0.689 -11.252,-4.602 -12.243,-11.42 v -3.483 l 0.008,-6.19 h -0.177 l -32.529,0.008 0.007,1.266 0.023,4.909 0.007,0.138 0.016,3.321 c 0.045,6.252 1.196,12.288 3.667,17.995 1.625,3.75 3.038,6.918 5.93,9.964 l 1.065,1.365 c 0.983,0.966 1.159,1.289 1.88,2.048 5.76,6.044 12.709,9.872 20.671,11.889 3.851,0.974 7.762,1.343 11.675,1.442 0.698,0.023 1.404,0.031 2.102,0.031 -0.007,-2.939 0.008,-5.654 0.008,-8.585 z" fill="#898989"/>
<path d="M 160.213,233.328" fill="#898989"/>
<path d="m 143.546,185.15 3.917,-0.003 c 0.891,-0.092 1.591,-0.546 1.62,-1.451 0.029,-0.879 0.044,-1.761 0.046,-2.643 l -0.014,-1.734 c 0.025,-1.599 0.021,-0.725 -0.032,-2.319 -0.029,-0.904 -0.729,-1.358 -1.62,-1.45 l -16.117,-0.013 -5.708,0.001 h -9.745 c -0.852,-0.004 -1.706,0.004 -2.558,0.007 -0.784,0 -1.448,0.508 -1.474,1.502 -0.055,2.214 -0.074,4.433 -0.009,6.645 0.025,0.904 0.641,1.359 1.423,1.451 l 12.27,0.012 h 5.273 z" fill="#6b6b6b"/>
<path d="m 442.163,185.218 c -3.014,0.007 -5.799,-0.007 -8.813,-0.007 -2.555,0.007 -5.108,0.007 -7.671,0.015 -2.301,0.007 -4.602,0.007 -6.903,0.016 -3.559,0.007 -7.117,0.016 -10.677,0.023 0,0.069 -0.007,0.138 -0.015,0.199 0.008,0.083 0,0.162 0,0.246 -0.015,0.797 -0.068,1.557 -0.169,2.286 -0.874,6.903 -4.871,11.037 -11.673,12.027 h -3.582 l -3.008,-0.008 h -55.947 l -1.925,0.016 -1.189,0.015 -2.132,0.015 -1.764,33.566 v 0.045 l 6.988,0.069 h 1.964 c 8.912,-0.015 17.817,-0.061 26.73,0 l 14.114,-0.039 c 2.101,0.008 4.195,0.023 6.297,0.039 1.172,0.016 2.348,0.023 3.52,0.031 l 6.343,-0.038 3.552,-0.023 c 6.428,-0.046 12.633,-1.235 18.493,-3.782 3.859,-1.68 7.119,-3.137 10.248,-6.121 l 1.395,-1.097 c 0.998,-1.021 1.328,-1.197 2.103,-1.941 6.214,-5.945 10.155,-13.116 12.228,-21.331 0.95,-3.773 1.342,-7.601 1.456,-11.436 0.024,-0.454 0.031,-0.913 0.039,-1.374 0.007,-0.076 0.007,-0.16 0.007,-0.237 v -0.36 c 0.008,-0.268 0.008,-0.545 0.008,-0.813 -0.01,-0.001 -0.01,-0.001 -0.017,-0.001 z" fill="#898989"/>
<path d="m 408.084,186.631 c 0.048,-11.869 0.098,-34.471 0.146,-46.34 5.72,-0.011 11.439,-0.056 17.159,-0.028 5.581,0.028 11.161,-0.287 16.741,-0.055 0.01,10.873 0.014,35.55 0.039,46.423 z" fill="#898989"/>
<path d="m 140.485,44.191 h -15.341 c -1.688,0 -3.068,1.381 -3.068,3.068 v 27.614 c 0,1.688 1.381,3.068 3.068,3.068 h 15.341 c 1.687,0 3.068,-1.38 3.068,-3.068 V 47.259 c 0,-1.687 -1.381,-3.068 -3.068,-3.068 z m 0,29.147 H 125.144 V 48.793 h 15.341 z" fill="#ac1b22"/>
<path d="m 324.777,143.905 c 0,4.602 -3.896,7.824 -8.131,7.824 -4.234,0 -8.13,-3.222 -8.13,-7.824 h -2.608 c 0,5.231 4.173,9.557 9.204,10.302 v 5.04 h 3.068 v -5.04 c 5.032,-0.729 9.204,-5.055 9.204,-10.302 z m -8.131,-13.806 c -2.545,0 -4.602,2.056 -4.602,4.603 v 1.81 h 9.196 l 0.008,-1.81 c 0,-2.548 -2.056,-4.603 -4.602,-4.603 z m -4.603,8.184 v 5.622 c 0,2.547 2.057,4.602 4.602,4.602 2.546,0 4.587,-2.055 4.587,-4.602 l 0.007,-5.614 z" fill="#ac1b22"/>
<path d="m 31.289,147.668 v -5.37 c 0,-0.843 -0.69,-1.534 -1.534,-1.534 H 11.346 c -0.844,0 -1.534,0.69 -1.534,1.534 v 15.34 c 0,0.844 0.69,1.534 1.534,1.534 h 18.409 c 0.844,0 1.534,-0.69 1.534,-1.534 v -5.368 l 6.137,6.136 v -16.875 z" fill="#ac1b22"/>
<path d="m 563.239,290.938 c 1.695,0 3.061,-1.381 3.061,-3.068 l 0.008,-15.341 c 0,-1.688 -1.373,-3.068 -3.068,-3.068 h -24.545 c -1.68,0 -3.068,1.381 -3.068,3.068 v 15.341 c 0,1.688 1.389,3.068 3.068,3.068 h -6.137 v 3.067 h 36.817 v -3.067 z m -24.545,-18.409 h 24.545 v 15.341 h -24.545 z" fill="#ac1b22"/>
<path d="m 146.372,268.311 h -27.613 c -1.688,0 -3.068,1.381 -3.068,3.068 v 18.408 c 0,1.688 1.38,3.068 3.068,3.068 h 10.738 v 3.068 h -3.068 v 3.068 h 12.272 v -3.068 h -3.068 v -3.068 h 10.738 c 1.688,0 3.068,-1.381 3.068,-3.068 v -18.408 c 0.001,-1.688 -1.379,-3.068 -3.067,-3.068 z m 0,21.476 h -27.613 v -18.408 h 27.613 z" fill="#ac1b22"/>
<path d="m 309.229,7.91 c -7.624,0 -13.807,6.183 -13.807,13.807 v 10.738 c 0,2.547 2.056,4.602 4.603,4.602 h 4.603 V 24.785 h -6.136 v -3.068 c 0,-5.938 4.801,-10.738 10.738,-10.738 5.937,0 10.738,4.801 10.738,10.738 v 3.068 h -6.137 v 12.272 h 6.137 v 1.534 H 309.23 v 3.068 h 9.204 c 2.547,0 4.602,-2.055 4.602,-4.602 V 21.717 C 323.035,14.093 316.852,7.91 309.229,7.91 Z" fill="#ac1b22"/>
<path d="m 620.016,50.585 v 14.236 c -0.722,-0.261 -1.489,-0.429 -2.301,-0.429 -3.82,0 -6.903,3.083 -6.903,6.903 0,3.82 3.083,6.903 6.903,6.903 3.543,0 6.443,-2.685 6.827,-6.136 h 0.076 V 55.188 h 6.136 v -4.603 z" fill="#ac1b22"/>
<path d="M 264.981,249.9" fill="#898989"/>
<rect fill="#898989" height="33.615002" width="57.872002" x="164.41" y="200.009"/>
<path d="m 225.168,203.321 -0.003,-4.043 c -0.094,-0.919 -0.562,-1.642 -1.49,-1.672 -0.905,-0.03 -1.812,-0.045 -2.718,-0.048 l -1.781,0.015 c -1.642,-0.025 -0.745,-0.021 -2.383,0.033 -0.929,0.03 -1.396,0.752 -1.491,1.672 l -0.014,16.634 10e-4,5.89 v 10.058 c -0.004,0.879 0.005,1.76 0.008,2.64 0,0.81 0.521,1.496 1.542,1.521 2.276,0.058 4.556,0.076 6.829,0.009 0.929,-0.026 1.396,-0.661 1.491,-1.468 l 0.014,-12.663 -0.002,-5.443 z" fill="#6b6b6b"/>
<path d="m 167.748,236.046 c 0.848,0 1.534,-0.662 1.534,-1.48 v -35.527 c 0,-0.818 -0.687,-1.48 -1.534,-1.48 h -6.731 c -0.848,0 -1.534,0.662 -1.534,1.48 v 35.527 c 0,0.818 0.687,1.48 1.534,1.48 z" fill="#6b6b6b"/>
<rect fill="#898989" height="87.610001" width="33.615002" x="113.455" y="92.619003"/>
<path d="m 143.756,185.291 4.043,-0.003 c 0.919,-0.095 1.641,-0.562 1.672,-1.491 0.03,-0.905 0.045,-1.811 0.048,-2.717 l -0.016,-1.782 c 0.026,-1.642 0.021,-0.744 -0.033,-2.383 -0.031,-0.929 -0.752,-1.396 -1.672,-1.49 l -16.634,-0.014 -5.891,0.001 h -10.057 c -0.879,-0.004 -1.76,0.003 -2.641,0.007 -0.809,0 -1.495,0.522 -1.52,1.544 -0.058,2.274 -0.076,4.555 -0.01,6.829 0.027,0.928 0.661,1.396 1.469,1.49 l 12.663,0.013 h 5.442 z" fill="#6b6b6b"/>
<path d="m 111.032,97.315 c 0,0.849 0.662,1.534 1.48,1.534 h 35.527 c 0.818,0 1.48,-0.686 1.48,-1.534 v -6.731 c 0,-0.848 -0.663,-1.534 -1.48,-1.534 h -35.527 c -0.818,0 -1.48,0.686 -1.48,1.534 z" fill="#6b6b6b"/>
<rect fill="#898989" height="33.615002" width="57.872002" x="272.72101" y="200.009"/>
<rect fill="#898989" height="33.615002" width="91.236" x="459.10101" y="89.561996"/>
<rect fill="#898989" height="33.615002" width="57.872002" x="331.78201" y="200.009"/>
<path d="m 335.653,203.321 -0.003,-4.043 c -0.095,-0.919 -0.562,-1.642 -1.491,-1.672 -0.905,-0.03 -1.81,-0.045 -2.716,-0.048 l -1.783,0.015 c -1.642,-0.025 -0.743,-0.021 -2.382,0.033 -0.929,0.03 -1.396,0.752 -1.491,1.672 l -0.013,16.634 10e-4,5.89 v 10.058 c -0.004,0.879 0.003,1.76 0.006,2.64 0,0.81 0.522,1.496 1.544,1.521 2.274,0.058 4.554,0.076 6.829,0.009 0.929,-0.026 1.396,-0.661 1.491,-1.468 l 0.012,-12.663 v -5.443 z" fill="#6b6b6b"/>
<path d="m 392.661,203.832 -0.003,-4.042 c -0.094,-0.919 -0.562,-1.641 -1.49,-1.671 -0.905,-0.03 -1.812,-0.045 -2.718,-0.048 l -1.781,0.015 c -1.642,-0.025 -0.745,-0.021 -2.383,0.034 -0.929,0.03 -1.396,0.752 -1.491,1.671 l -0.014,16.635 10e-4,5.89 v 10.057 c -0.004,0.879 0.005,1.76 0.008,2.641 0,0.809 0.521,1.495 1.543,1.521 2.276,0.057 4.556,0.075 6.828,0.01 0.929,-0.027 1.396,-0.662 1.491,-1.469 l 0.013,-12.663 -0.001,-5.442 z" fill="#6b6b6b"/>
<path d="M 438.551,188.003 442.593,188 c 0.92,-0.094 1.643,-0.562 1.672,-1.491 0.03,-0.904 0.045,-1.81 0.048,-2.716 l -0.015,-1.782 c 0.025,-1.642 0.021,-0.744 -0.033,-2.382 -0.029,-0.929 -0.752,-1.396 -1.672,-1.491 l -16.633,-0.014 -5.892,0.001 h -10.057 c -0.879,-0.004 -1.76,0.003 -2.641,0.006 -0.809,0 -1.496,0.522 -1.521,1.544 -0.057,2.275 -0.075,4.555 -0.008,6.829 0.026,0.929 0.66,1.396 1.468,1.491 l 12.663,0.013 5.443,-0.001 z" fill="#6b6b6b"/>
<path d="m 280.407,236.046 c 0.848,0 1.534,-0.662 1.534,-1.48 v -35.527 c 0,-0.818 -0.686,-1.48 -1.534,-1.48 h -6.731 c -0.848,0 -1.534,0.662 -1.534,1.48 v 35.527 c 0,0.818 0.686,1.48 1.534,1.48 z" fill="#6b6b6b"/>
<path d="m 280.22,131.541 c -0.906,0 -1.819,0.016 -2.724,0.039 -3.988,0.115 -7.962,0.514 -11.882,1.473 -8.438,2.071 -15.808,6.013 -21.914,12.219 -0.767,0.782 -0.951,1.104 -1.994,2.109 l -1.135,1.396 c -3.061,3.129 -4.557,6.382 -6.283,10.24 -2.616,5.86 -3.843,12.065 -3.889,18.493 l -0.007,0.89 -0.054,9.004 c 0,0.285 0.008,0.575 0.008,0.86 0.023,2.991 0.062,5.974 0.062,8.966 l -0.039,14.106 c 0.077,9.564 0.016,19.137 0,28.702 l 0.008,0.744 0.061,9.12 c -0.007,0.253 -0.015,0.499 -0.031,0.744 -0.476,8.813 -4.933,13.085 -14.244,13.085 -0.697,0 -1.373,0.046 -2.017,0.146 -3.015,0.437 -5.492,1.833 -7.486,3.713 -0.89,0.844 -1.68,1.787 -2.377,2.784 -2.815,4.012 -4.097,8.913 -4.089,11.927 0.007,3.329 0.514,8.254 4.089,11.651 0.659,0.637 1.433,1.221 2.331,1.719 1.903,1.089 4.357,1.841 7.54,2.07 0.66,0.046 1.358,0.069 2.087,0.069 10.348,-0.106 20.28,-1.956 29.239,-7.44 10.977,-6.712 16.86,-16.759 18.946,-29.269 0.599,-3.583 0.683,-7.348 0.652,-10.463 -0.023,-2.224 -0.107,-4.119 -0.1,-5.376 l 0.039,-4.487 0.007,-0.767 v -52.589 l -0.015,-9.028 v -0.92 c 1.028,-6.85 5.323,-10.846 12.487,-11.682 0.852,-0.1 1.749,-0.161 2.685,-0.169 0.008,-3.559 0.015,-7.125 0.023,-10.685 0,-2.301 0.008,-4.602 0.008,-6.903 0.008,-2.554 0.015,-5.117 0.015,-7.67 0.008,-3.015 -0.007,-5.807 -0.007,-8.821 z" fill="#898989"/>
<path d="M 278.772,131.546" fill="#898989"/>
<path d="m 206.665,263.731 c -2.38,0 -3.987,0.056 -5.979,0.066 -8.587,0.044 -17.172,0.018 -25.758,0.017 0.024,11.296 0.05,22.591 0.076,33.888 10.532,0.063 21.067,0.128 31.6,0.192 z" fill="#898989"/>
<path d="m 204.283,267.068 0.003,-4.042 c 0.094,-0.919 0.562,-1.641 1.49,-1.672 0.905,-0.03 1.811,-0.045 2.717,-0.048 l 1.782,0.015 c 1.642,-0.025 0.744,-0.021 2.383,0.033 0.929,0.031 1.396,0.753 1.491,1.672 l 0.014,16.634 -0.002,5.891 v 10.057 c 0.004,0.88 -0.003,1.761 -0.006,2.641 0,0.81 -0.522,1.495 -1.544,1.521 -2.275,0.058 -4.555,0.076 -6.828,0.01 -0.929,-0.027 -1.396,-0.661 -1.491,-1.469 l -0.013,-12.663 0.001,-5.442 z" fill="#6b6b6b"/>
<path d="m 162.481,267.068 0.004,-4.042 c 0.121,-0.919 0.722,-1.641 1.915,-1.672 1.163,-0.03 2.326,-0.045 3.49,-0.048 l 2.289,0.015 c 2.109,-0.025 0.955,-0.021 3.061,0.033 1.194,0.031 1.793,0.753 1.915,1.672 l 0.018,16.634 -0.001,5.891 v 10.057 c 0.005,0.88 -0.005,1.761 -0.009,2.641 0,0.81 -0.67,1.495 -1.982,1.521 -2.923,0.058 -5.852,0.076 -8.772,0.01 -1.192,-0.027 -1.793,-0.661 -1.915,-1.469 l -0.017,-12.663 0.002,-5.442 z" fill="#6b6b6b"/>
<path d="m 279.031,167.524 c -0.847,0 -1.536,-0.663 -1.536,-1.48 v -35.527 c 0,-0.817 0.689,-1.479 1.536,-1.479 h 6.732 c 0.846,0 1.534,0.662 1.534,1.479 v 35.527 c 0,0.818 -0.688,1.48 -1.534,1.48 z" fill="#6b6b6b"/>
<path d="m 234.204,188.263 -4.042,-0.003 c -0.919,-0.095 -1.641,-0.562 -1.672,-1.491 -0.03,-0.905 -0.045,-1.812 -0.048,-2.718 l 0.016,-1.781 c -0.025,-1.642 -0.021,-0.744 0.033,-2.383 0.031,-0.929 0.753,-1.396 1.672,-1.491 l 16.635,-0.013 5.892,10e-4 h 10.059 c 0.879,-0.004 1.76,0.004 2.641,0.007 0.809,0 1.494,0.521 1.52,1.543 0.059,2.276 0.077,4.556 0.011,6.828 -0.027,0.929 -0.661,1.396 -1.469,1.491 l -12.666,0.014 -5.444,-0.001 z" fill="#6b6b6b"/>
<path d="m 234.204,250.648 -4.042,-0.003 c -0.919,-0.094 -1.641,-0.562 -1.672,-1.49 -0.03,-0.905 -0.045,-1.812 -0.048,-2.718 l 0.016,-1.781 c -0.025,-1.642 -0.021,-0.744 0.033,-2.383 0.031,-0.929 0.753,-1.396 1.672,-1.491 l 16.635,-0.014 5.892,0.002 h 10.059 c 0.879,-0.005 1.76,0.004 2.641,0.007 0.809,0 1.494,0.521 1.52,1.543 0.059,2.276 0.077,4.556 0.011,6.829 -0.027,0.928 -0.661,1.396 -1.469,1.491 l -12.666,0.013 -5.444,-0.001 z" fill="#6b6b6b"/>
<path d="m 219.372,89.311 c -0.024,-7.739 0.018,-15.482 0.03,-23.22 l -0.007,-0.744 -0.062,-9.119 c 0.007,-0.253 0.015,-0.5 0.031,-0.744 0.476,-8.813 4.932,-13.085 14.244,-13.085 0.697,0 1.373,-0.046 2.017,-0.146 3.014,-0.438 5.492,-1.833 7.486,-3.713 0.89,-0.843 1.681,-1.788 2.378,-2.784 2.815,-4.011 4.096,-8.913 4.088,-11.927 -0.007,-3.329 -0.514,-8.253 -4.088,-11.651 -0.659,-0.637 -1.435,-1.22 -2.332,-1.718 -1.902,-1.089 -4.356,-1.841 -7.54,-2.071 -0.659,-0.046 -1.357,-0.069 -2.086,-0.069 -10.348,0.107 -20.28,1.956 -29.24,7.44 -10.976,6.711 -16.859,16.76 -18.945,29.27 -0.599,3.583 -0.684,7.348 -0.652,10.462 0.023,2.224 0.107,4.119 0.099,5.377 l -0.038,4.487 -0.007,0.767 v 23.189" fill="#898989"/>
<path d="m 243.107,42.398 c 2.38,0 3.987,-0.056 5.979,-0.067 8.586,-0.044 17.172,-0.017 25.758,-0.017 C 274.819,31.019 274.794,19.723 274.768,8.426 264.235,8.362 253.701,8.298 243.167,8.233 Z" fill="#898989"/>
<path d="m 219.416,118.881 0.007,-0.891 0.054,-9.004 c 0,-0.284 -0.007,-0.575 -0.007,-0.859 -0.022,-2.991 -0.061,-5.975 -0.061,-8.966 l 0.028,-10.327 -34.644,-1.543 v 21.68 l 0.015,9.028 v 0.92 c 0,8.409 -2.074,13.276 -12.486,13.276 v 33.664 c -0.001,0 47.094,1.829 47.094,-46.978 z" fill="#898989"/>
<path d="M 267.014,170.247" fill="#898989"/>
<path d="m 245.49,39.061 -0.003,4.042 c -0.095,0.919 -0.562,1.641 -1.491,1.672 -0.905,0.03 -1.81,0.045 -2.717,0.048 l -1.782,-0.015 c -1.642,0.025 -0.744,0.021 -2.383,-0.033 -0.929,-0.031 -1.396,-0.753 -1.49,-1.672 l -0.014,-16.634 10e-4,-5.891 V 10.521 c -0.004,-0.88 0.004,-1.76 0.007,-2.641 0,-0.809 0.522,-1.495 1.544,-1.521 2.275,-0.058 4.555,-0.076 6.829,-0.01 0.929,0.027 1.396,0.662 1.49,1.469 l 0.013,12.663 v 5.443 z" fill="#6b6b6b"/>
<path d="m 287.292,39.061 -0.004,4.042 c -0.121,0.919 -0.722,1.641 -1.915,1.672 -1.162,0.03 -2.326,0.045 -3.491,0.048 l -2.289,-0.015 c -2.108,0.025 -0.955,0.021 -3.061,-0.033 -1.193,-0.031 -1.793,-0.753 -1.915,-1.672 L 274.6,26.469 274.601,20.578 V 10.521 c -0.005,-0.88 0.005,-1.76 0.009,-2.641 0,-0.809 0.67,-1.495 1.983,-1.521 2.922,-0.058 5.851,-0.076 8.771,-0.01 1.193,0.027 1.793,0.662 1.915,1.469 l 0.016,12.663 -0.001,5.443 z" fill="#6b6b6b"/>
<path d="m 159.816,129.011 c 0.846,0 1.536,0.662 1.536,1.48 v 35.526 c 0,0.818 -0.689,1.48 -1.536,1.48 h -6.732 c -0.846,0 -1.534,-0.662 -1.534,-1.48 v -35.526 c 0,-0.818 0.688,-1.48 1.534,-1.48 z" fill="#6b6b6b"/>
<path d="m 215.569,110.771 4.042,0.002 c 0.919,0.095 1.642,0.562 1.672,1.491 0.03,0.905 0.045,1.812 0.048,2.718 l -0.015,1.781 c 0.025,1.642 0.021,0.745 -0.033,2.383 -0.03,0.929 -0.752,1.396 -1.672,1.491 l -16.635,0.014 -5.892,-10e-4 h -10.059 c -0.879,0.004 -1.76,-0.005 -2.641,-0.008 -0.809,0 -1.495,-0.521 -1.52,-1.542 -0.058,-2.276 -0.077,-4.556 -0.01,-6.829 0.027,-0.929 0.662,-1.396 1.469,-1.491 l 12.665,-0.014 5.444,0.002 z" fill="#6b6b6b"/>
<path d="m 215.569,55.481 4.042,0.003 c 0.919,0.094 1.642,0.562 1.672,1.491 0.03,0.905 0.045,1.811 0.048,2.717 l -0.015,1.781 c 0.025,1.642 0.021,0.745 -0.033,2.384 -0.03,0.928 -0.752,1.396 -1.672,1.491 l -16.635,0.013 -5.892,-0.001 h -10.059 c -0.879,0.004 -1.76,-0.004 -2.641,-0.007 -0.809,0 -1.495,-0.521 -1.52,-1.543 -0.058,-2.275 -0.077,-4.556 -0.01,-6.828 0.027,-0.929 0.662,-1.396 1.469,-1.491 l 12.665,-0.014 5.444,0.002 z" fill="#6b6b6b"/>
<path d="m 416.337,268.135 c -0.698,-1.005 -1.487,-1.949 -2.385,-2.785 -1.986,-1.895 -4.465,-3.283 -7.479,-3.72 -0.645,-0.1 -1.32,-0.146 -2.018,-0.146 -9.32,0 -13.768,-4.272 -14.244,-13.086 -0.016,-0.246 -0.023,-0.491 -0.03,-0.744 l -33.528,-5.707 -1.004,1.066 c 0.007,1.258 -0.078,3.152 -0.1,5.376 -0.039,3.114 0.046,6.88 0.645,10.462 2.086,12.511 7.97,22.559 18.945,29.271 8.96,5.484 18.893,7.333 29.24,7.44 0.728,0 1.426,-0.023 2.087,-0.069 3.167,-0.229 5.621,-0.974 7.516,-2.056 0.904,-0.506 1.679,-1.089 2.348,-1.727 3.582,-3.397 4.088,-8.321 4.095,-11.65 0.008,-3.012 -1.273,-7.914 -4.088,-11.925 z" fill="#898989"/>
<path d="m 413.954,261.486 c 1.234,0 2.066,0.056 3.101,0.067 4.452,0.044 14.91,0.017 19.363,0.017 -0.012,11.296 -0.025,22.592 -0.039,33.888 -5.462,0.063 -16.932,0.128 -22.394,0.192 z" fill="#898989"/>
<path d="m 416.335,264.824 -0.003,-4.043 c -0.094,-0.918 -0.562,-1.641 -1.49,-1.672 -0.904,-0.029 -1.81,-0.045 -2.716,-0.048 l -1.782,0.015 c -1.643,-0.026 -0.744,-0.021 -2.383,0.033 -0.929,0.031 -1.396,0.753 -1.49,1.672 l -0.014,16.635 0.002,5.89 v 10.058 c -0.005,0.879 0.002,1.76 0.005,2.64 0,0.81 0.523,1.495 1.544,1.521 2.274,0.058 4.555,0.076 6.828,0.01 0.93,-0.026 1.396,-0.661 1.491,-1.469 l 0.012,-12.663 v -5.442 z" fill="#6b6b6b"/>
<path d="m 446.819,264.824 -0.003,-4.043 c -0.121,-0.918 -0.723,-1.641 -1.915,-1.672 -1.162,-0.029 -2.326,-0.045 -3.49,-0.048 l -2.289,0.015 c -2.109,-0.026 -0.956,-0.021 -3.061,0.033 -1.194,0.031 -1.794,0.753 -1.915,1.672 l -0.018,16.635 0.001,5.89 v 10.058 c -0.004,0.879 0.006,1.76 0.01,2.64 0,0.81 0.671,1.495 1.982,1.521 2.923,0.058 5.853,0.076 8.772,0.01 1.192,-0.026 1.793,-0.661 1.914,-1.469 l 0.017,-12.663 -0.002,-5.442 z" fill="#6b6b6b"/>
<path d="m 386.416,248.403 4.042,-0.003 c 0.92,-0.094 1.642,-0.562 1.672,-1.491 0.03,-0.905 0.045,-1.811 0.048,-2.718 l -0.015,-1.781 c 0.025,-1.642 0.021,-0.745 -0.033,-2.384 -0.03,-0.929 -0.752,-1.396 -1.672,-1.491 l -16.633,-0.014 -5.891,0.002 h -10.057 c -0.88,-0.005 -1.761,0.004 -2.641,0.007 -0.81,0 -1.495,0.521 -1.521,1.543 -0.058,2.275 -0.076,4.556 -0.011,6.828 0.027,0.929 0.663,1.396 1.47,1.491 l 12.664,0.013 5.442,-0.001 z" fill="#6b6b6b"/>
<path d="M 384.083,28.789 C 377.372,17.813 367.324,11.938 354.813,9.844 351.231,9.245 347.465,9.169 344.352,9.199 c -2.225,0.023 -4.12,0.107 -5.377,0.1 l -2.276,0.509 v 0 l -1.029,2.058 7.945,31.964 c 0.253,0.008 0.499,0.016 0.745,0.031 8.813,0.475 13.086,4.931 13.086,14.244 0,0.698 0.045,1.365 0.145,2.017 0.43,3.015 1.833,5.499 3.728,7.494 0.836,0.89 1.772,1.68 2.77,2.37 4.011,2.815 8.92,4.096 11.934,4.088 3.329,-0.007 8.253,-0.514 11.652,-4.088 0.635,-0.66 1.21,-1.434 1.709,-2.324 1.09,-1.902 1.841,-4.364 2.072,-7.547 0.045,-0.661 0.069,-1.35 0.069,-2.079 -0.109,-10.355 -1.958,-20.281 -7.442,-29.247 z M 333.75,43.9 l 0.745,-0.008 9.119,-0.061" fill="#898989"/>
<path d="m 357.443,67.606 c 0,2.38 0.057,3.987 0.067,5.979 0.043,8.586 0.017,60.098 0.017,68.684 11.295,-0.025 22.591,-0.05 33.889,-0.076 0.063,-10.532 0.127,-63.993 0.191,-74.526 z" fill="#898989"/>
<path d="m 360.783,69.989 -4.043,-0.003 c -0.92,-0.094 -1.642,-0.562 -1.672,-1.491 -0.03,-0.904 -0.045,-1.81 -0.048,-2.716 l 0.016,-1.782 c -0.026,-1.642 -0.021,-0.744 0.033,-2.382 0.03,-0.929 0.752,-1.396 1.672,-1.491 l 16.635,-0.014 5.891,10e-4 h 10.057 c 0.879,-0.004 1.76,0.003 2.64,0.006 0.809,0 1.495,0.522 1.521,1.544 0.059,2.275 0.077,4.555 0.01,6.829 -0.027,0.929 -0.662,1.396 -1.47,1.491 l -12.662,0.013 -5.443,-0.001 z" fill="#6b6b6b"/>
<path d="m 360.783,154.716 -4.043,-0.003 c -0.92,-0.121 -1.642,-0.722 -1.672,-1.915 -0.03,-1.163 -0.045,-2.326 -0.048,-3.491 l 0.016,-2.289 c -0.026,-2.108 -0.021,-0.955 0.033,-3.061 0.03,-1.193 0.752,-1.793 1.672,-1.915 l 16.635,-0.018 5.891,0.001 h 10.057 c 0.879,-0.005 1.76,0.005 2.64,0.009 0.809,0 1.495,0.67 1.521,1.982 0.059,2.923 0.077,5.852 0.01,8.772 -0.027,1.192 -0.662,1.793 -1.47,1.915 l -12.662,0.017 -5.443,-0.001 z" fill="#6b6b6b"/>
<path d="m 344.36,40.068 -0.003,4.042 c -0.094,0.919 -0.562,1.642 -1.49,1.672 -0.905,0.03 -1.811,0.045 -2.718,0.048 l -1.781,-0.015 c -1.642,0.025 -0.745,0.021 -2.384,-0.033 -0.929,-0.03 -1.396,-0.752 -1.491,-1.672 l -0.014,-16.634 0.001,-5.89 V 11.529 c -0.004,-0.88 0.005,-1.761 0.008,-2.641 0,-0.809 0.521,-1.495 1.543,-1.521 2.276,-0.058 4.556,-0.075 6.829,-0.009 0.929,0.027 1.396,0.661 1.491,1.469 l 0.013,12.663 -10e-4,5.442 z" fill="#6b6b6b"/>
<path d="m 115.071,5.808 c -0.002,8.166 -0.005,14.776 -0.005,17.394 11.296,-0.024 22.592,-0.05 33.888,-0.075 0.019,-2.981 0.037,-9.4 0.054,-17.312 z" fill="#898989"/>
<path d="m 118.321,35.648 -4.042,-0.002 c -0.92,-0.122 -1.642,-0.722 -1.672,-1.915 -0.029,-1.163 -0.044,-2.326 -0.047,-3.491 l 0.015,-2.29 c -0.025,-2.109 -0.021,-0.955 0.033,-3.061 0.03,-1.193 0.752,-1.793 1.672,-1.915 l 16.635,-0.018 5.89,0.002 h 10.057 c 0.879,-0.005 1.76,0.005 2.64,0.009 0.809,0 1.495,0.67 1.521,1.983 0.058,2.923 0.076,5.851 0.01,8.772 -0.027,1.192 -0.661,1.793 -1.469,1.915 l -12.663,0.016 -5.442,-10e-4 z" fill="#6b6b6b"/>
<path d="m 118.321,18.662 -4.042,-0.003 c -0.92,-0.122 -1.642,-0.722 -1.672,-1.915 -0.029,-1.163 -0.044,-2.327 -0.047,-3.491 l 0.015,-2.29 c -0.025,-2.108 -0.021,-0.955 0.033,-3.061 0.03,-1.193 0.752,-1.793 1.672,-1.915 l 16.635,-0.017 5.89,0.001 h 10.057 c 0.879,-0.005 1.76,0.005 2.64,0.009 0.809,0 1.495,0.671 1.521,1.983 0.058,2.923 0.076,5.851 0.01,8.771 -0.027,1.192 -0.661,1.793 -1.469,1.915 l -12.663,0.017 -5.442,-0.001 z" fill="#6b6b6b"/>
<path d="m 179.345,51.075 c -5.468,-0.002 -9.894,-0.005 -11.647,-0.005 0.017,10.48 0.034,20.96 0.05,31.441 1.997,0.017 6.295,0.034 11.593,0.05 z" fill="#898989"/>
<path d="m 155.25,54.09 0.003,-3.751 c 0.121,-0.854 0.722,-1.523 1.915,-1.551 1.163,-0.028 2.326,-0.042 3.49,-0.044 l 2.289,0.014 c 2.109,-0.024 0.955,-0.019 3.061,0.031 1.194,0.028 1.793,0.698 1.915,1.551 l 0.017,15.433 -0.001,5.465 v 9.331 c 0.005,0.816 -0.005,1.633 -0.009,2.45 0,0.75 -0.67,1.388 -1.982,1.411 -2.923,0.054 -5.852,0.07 -8.771,0.009 -1.192,-0.025 -1.793,-0.613 -1.915,-1.363 l -0.017,-11.748 0.001,-5.05 z" fill="#6b6b6b"/>
<path d="m 225.812,82.146 c 31.155,0.001 56.372,0.004 66.362,0.004 -0.095,-10.48 -0.193,-20.96 -0.289,-31.44 -11.375,-0.017 -35.868,-0.034 -66.053,-0.05 z" fill="#898989"/>
<path d="m 299.506,79.13 -0.003,3.75 c -0.121,0.853 -0.722,1.523 -1.915,1.551 -1.163,0.028 -2.326,0.042 -3.491,0.045 l -2.289,-0.014 c -2.108,0.024 -0.955,0.02 -3.061,-0.031 -1.193,-0.028 -1.793,-0.698 -1.915,-1.551 l -0.017,-15.434 10e-4,-5.465 V 52.65 c -0.005,-0.816 0.006,-1.633 0.009,-2.45 0,-0.75 0.67,-1.387 1.983,-1.411 2.923,-0.053 5.852,-0.07 8.771,-0.009 1.192,0.026 1.793,0.614 1.915,1.363 l 0.017,11.749 -0.002,5.049 z" fill="#6b6b6b"/>
<path d="m 602.998,125.666 c 0.048,-8.845 0.096,-25.687 0.145,-34.532 5.721,-0.008 11.44,-0.042 17.16,-0.02 5.58,0.02 11.16,-0.214 16.741,-0.041 0.009,8.103 0.014,26.491 0.038,34.593 z" fill="#898989"/>
<path d="m 633.467,126.687 4.043,-0.002 c 0.918,-0.07 1.641,-0.418 1.672,-1.111 0.029,-0.674 0.044,-1.349 0.048,-2.023 l -0.015,-1.329 c 0.024,-1.223 0.021,-0.553 -0.033,-1.774 -0.031,-0.692 -0.754,-1.04 -1.672,-1.111 l -16.636,-0.01 -5.89,0.001 h -10.058 c -0.879,-0.003 -1.76,0.002 -2.64,0.005 -0.81,0 -1.495,0.389 -1.52,1.15 -0.06,1.694 -0.077,3.394 -0.012,5.088 0.027,0.692 0.662,1.041 1.47,1.111 l 12.662,0.009 h 5.443 z" fill="#6b6b6b"/>
<path d="m 633.43,96.933 4.044,-0.003 c 0.918,-0.09 1.64,-0.538 1.672,-1.427 0.029,-0.866 0.044,-1.732 0.048,-2.602 l -0.015,-1.705 c 0.024,-1.571 0.021,-0.711 -0.033,-2.281 -0.032,-0.889 -0.754,-1.337 -1.672,-1.427 l -16.635,-0.012 -5.892,0.001 h -10.056 c -0.878,-0.005 -1.76,0.003 -2.641,0.007 -0.809,0 -1.495,0.499 -1.521,1.477 -0.057,2.179 -0.074,4.361 -0.009,6.538 0.027,0.888 0.661,1.336 1.468,1.427 l 12.662,0.012 5.443,-0.001 z" fill="#6b6b6b"/>
<rect fill="#898989" height="19.646" width="61.179001" x="161.754" y="172.229"/>
<rect fill="#898989" height="19.646" width="76.661003" x="272.23901" y="172.229"/>
<path d="m 157.538,171.055 c -0.847,0 -1.534,0.384 -1.534,0.857 v 20.587 c 0,0.474 0.688,0.857 1.534,0.857 h 6.732 c 0.847,0 1.534,-0.383 1.534,-0.857 v -20.587 c 0,-0.473 -0.688,-0.857 -1.534,-0.857 z" fill="#6b6b6b"/>
<path d="m 217.427,171.055 c -0.634,0 -1.151,0.384 -1.151,0.857 v 20.587 c 0,0.474 0.517,0.857 1.151,0.857 h 5.049 c 0.635,0 1.15,-0.383 1.15,-0.857 v -20.587 c 0,-0.473 -0.515,-0.857 -1.15,-0.857 z" fill="#6b6b6b"/>
<rect fill="#898989" height="19.646" width="39.778" x="61.014999" y="11.691"/>
<path d="m 97.972,10.519 c -0.635,0 -1.151,0.383 -1.151,0.857 v 20.587 c 0,0.473 0.516,0.857 1.151,0.857 h 5.049 c 0.635,0 1.15,-0.384 1.15,-0.857 V 11.375 c 0,-0.474 -0.516,-0.857 -1.15,-0.857 h -5.049 z" fill="#6b6b6b"/>
<path d="m 272.376,171.055 c -0.635,0 -1.15,0.384 -1.15,0.857 v 20.587 c 0,0.474 0.516,0.857 1.15,0.857 h 5.05 c 0.634,0 1.15,-0.383 1.15,-0.857 v -20.587 c 0,-0.473 -0.517,-0.857 -1.15,-0.857 z" fill="#6b6b6b"/>
<path d="m 346.264,171.055 c -0.633,0 -1.15,0.384 -1.15,0.857 v 20.587 c 0,0.474 0.517,0.857 1.15,0.857 h 5.05 c 0.635,0 1.15,-0.383 1.15,-0.857 v -20.587 c 0,-0.473 -0.515,-0.857 -1.15,-0.857 z" fill="#6b6b6b"/>
<path d="m 803.438,194.875 c 0.048,-12.185 0.098,-35.393 0.146,-47.577 5.72,-0.016 11.439,-0.058 17.159,-0.03 5.58,0.03 11.161,-0.294 16.742,-0.057 0.01,11.161 0.013,36.5 0.038,47.663 h -34.085 z" fill="#898989"/>
<rect fill="#898989" height="33.615002" width="19.105" x="536.513" y="132.19901"/>
<path d="m 608.096,224.75 c 0,-2.493 -0.008,-4.977 -0.015,-7.462 0,-2.24 -0.009,-4.48 -0.009,-6.719 -0.009,-3.467 -0.016,-6.935 -0.023,-10.401 -0.713,-0.007 -1.396,-0.046 -2.055,-0.116 -7.042,-0.682 -11.261,-4.602 -12.25,-11.42 l 0.009,-3.344 v -0.139 l 0.007,-6.19 h -0.184 l -32.53,0.008 0.008,1.266 0.029,4.909 v 0.138 l 0.023,3.321 c 0.038,6.252 1.197,12.288 3.666,17.995 1.628,3.75 3.039,6.918 5.93,9.964 l 1.06,1.365 c 0.988,0.966 1.166,1.289 1.887,2.048 5.753,6.044 12.709,9.872 20.663,11.889 3.858,0.974 7.763,1.343 11.683,1.442 0.698,0.023 1.396,0.031 2.094,0.031 -0.001,-2.939 0.015,-5.654 0.007,-8.585 z" fill="#898989"/>
<path d="M 606.723,233.328" fill="#898989"/>
<path d="m 590.057,185.15 3.916,-0.003 c 0.891,-0.092 1.592,-0.546 1.621,-1.451 0.028,-0.879 0.043,-1.761 0.046,-2.643 l -0.015,-1.734 c 0.025,-1.599 0.021,-0.725 -0.031,-2.319 -0.029,-0.904 -0.73,-1.358 -1.621,-1.45 l -16.117,-0.013 -5.707,0.001 h -9.744 c -0.853,-0.004 -1.706,0.004 -2.558,0.007 -0.785,0 -1.449,0.508 -1.476,1.502 -0.055,2.214 -0.073,4.433 -0.009,6.645 0.026,0.904 0.642,1.359 1.424,1.451 l 12.27,0.012 h 5.273 z" fill="#6b6b6b"/>
<path d="m 800.667,282.762 c -0.246,-0.223 -0.499,-0.437 -0.744,-0.652 -2.562,1.519 -3.159,5.224 -0.246,7.249 0.277,-0.2 0.553,-0.399 0.828,-0.599 -2.047,-1.787 -2.063,-4.196 0.162,-5.998 z m -4.388,2.876 c 0.062,-1.71 0.959,-3.16 2.576,-4.356 -0.376,-0.307 -0.713,-0.583 -1.058,-0.867 -4.541,3.253 -3.573,8.308 -0.336,10.479 0.351,-0.238 0.705,-0.483 1.096,-0.76 -1.565,-1.289 -2.347,-2.778 -2.278,-4.496 z m 0.43,-6.106 c -0.375,-0.307 -0.752,-0.606 -1.12,-0.912 -5.599,3.941 -5.284,10.4 -0.544,13.975 0.398,-0.284 0.797,-0.56 1.188,-0.843 -4.349,-3.529 -4.049,-8.937 0.476,-12.22 z m 33.742,-3.697 c 0.145,-1.68 0.191,-3.359 -0.444,-4.978 -1.136,-2.923 -3.269,-4.886 -6.038,-6.19 -3.397,-1.595 -6.987,-1.894 -10.646,-1.357 -3.093,0.46 -5.217,2.224 -6.168,5.216 -0.359,1.12 -0.498,2.309 -0.69,3.476 -0.099,0.613 0.077,1.326 -0.191,1.824 -0.46,0.844 -0.254,1.488 0.191,2.171 0.271,0.422 0.322,0.852 0.14,1.312 -0.154,0.367 -0.285,0.767 -0.483,1.111 -0.284,0.515 -0.63,0.981 -0.944,1.474 -0.536,0.844 -0.275,1.587 0.669,1.895 0.184,0.061 0.365,0.138 0.551,0.198 0.313,0.107 0.461,0.322 0.399,0.652 -0.046,0.261 -0.086,0.521 -0.185,0.768 -0.27,0.636 -0.184,0.89 0.475,1.135 0.576,0.215 2.232,0.354 2.815,0.552 0,0.031 0,0.069 0.008,0.1 -0.551,0.062 -2.171,0.17 -2.729,0.215 -0.423,0.039 -0.514,0.27 -0.36,0.614 0.083,0.185 0.237,0.345 0.391,0.482 0.314,0.277 0.459,0.599 0.375,1.029 -0.084,0.398 -0.152,0.805 -0.184,1.212 -0.062,0.689 0.153,1.065 0.806,1.318 0.413,0.162 0.844,0.276 1.281,0.33 1.082,0.153 2.186,0.23 3.267,0.399 0.898,0.138 1.035,0.253 1.035,1.165 0.008,1.488 -0.062,2.969 -0.161,4.449 -0.053,0.767 -0.236,1.519 -0.367,2.339 4.718,-1.211 9.39,-2.4 14.114,-3.604 -0.078,-0.223 -0.132,-0.406 -0.191,-0.583 -0.264,-0.774 -0.568,-1.526 -0.768,-2.316 -0.684,-2.631 -0.845,-5.146 0.827,-7.616 1.77,-2.633 2.929,-5.578 3.205,-8.792 z" fill="#ac1b22"/>
<path d="m 910.414,185.218 c -3.015,0.007 -5.799,-0.007 -8.812,-0.007 -2.555,0.007 -5.116,0.007 -7.671,0.015 -2.302,0.007 -4.603,0.007 -6.903,0.016 -3.56,0.007 -7.119,0.016 -10.685,0.023 0,0.007 0,0.007 -0.01,0.015 0.01,0.008 0.01,0.008 0,0.016 0.01,0.008 0.01,0.015 0,0.024 0.01,0.007 0.01,0.007 0,0.015 0.01,0.008 0.01,0.008 0,0.015 v 0.007 c 0.01,0.009 0.01,0.009 0,0.016 v 0.008 c 0.01,0.008 0.01,0.008 0,0.015 v 0.007 c 0.01,0.007 0.01,0.007 0,0.016 -0.007,0.897 -0.067,1.757 -0.174,2.577 -0.867,6.903 -4.863,11.037 -11.668,12.027 h -3.582 l -6.364,-0.008 h -52.589 l -5.254,0.045 -1.758,33.566 v 0.045 l 6.979,0.069 c 9.573,-0.007 19.138,-0.069 28.703,0 l 14.105,-0.039 c 2.102,0.008 4.204,0.023 6.306,0.039 1.174,0.016 2.346,0.023 3.521,0.031 l 6.342,-0.038 3.553,-0.023 c 6.427,-0.046 12.632,-1.235 18.492,-3.782 3.857,-1.68 7.109,-3.137 10.239,-6.121 l 1.404,-1.097 c 0.998,-1.021 1.328,-1.197 2.102,-1.941 6.213,-5.945 10.149,-13.116 12.219,-21.331 0.959,-3.773 1.351,-7.601 1.458,-11.436 0.022,-0.454 0.029,-0.913 0.038,-1.374 0.008,-0.344 0.008,-0.682 0.008,-1.027 v -0.008 c 0.008,-0.007 0.008,-0.007 0,-0.015 0.008,-0.008 0.008,-0.008 0,-0.016 v -0.007 c 0.008,-0.009 0.008,-0.023 0,-0.031 v -0.007 c 0.008,-0.008 0.008,-0.008 0,-0.016 0.008,-0.008 0.008,-0.008 0,-0.016 0.008,-0.015 0.008,-0.03 0,-0.046 0.008,-0.007 0.008,-0.007 0,-0.015 0.008,-0.016 0.008,-0.03 0,-0.045 0.008,-0.015 0.008,-0.024 0,-0.039 0.008,-0.039 0.008,-0.077 0.008,-0.123 h -0.007 z" fill="#898989"/>
<path d="m 876.332,186.631 c 0.048,-11.869 0.098,-34.471 0.146,-46.34 5.72,-0.011 11.439,-0.056 17.159,-0.028 5.581,0.028 11.161,-0.287 16.741,-0.055 0.01,10.873 0.014,35.55 0.04,46.423 z" fill="#898989"/>
<path d="m 584.824,46.492 h -15.341 c -1.688,0 -3.068,1.381 -3.068,3.068 v 27.614 c 0,1.687 1.38,3.068 3.068,3.068 h 15.341 c 1.687,0 3.068,-1.381 3.068,-3.068 V 49.56 c 10e-4,-1.686 -1.381,-3.068 -3.068,-3.068 z m 0,29.148 H 569.483 V 51.094 h 15.341 z" fill="#ac1b22"/>
<path d="m 900.734,113.792 c 0,4.603 -3.897,7.824 -8.131,7.824 -4.234,0 -8.13,-3.221 -8.13,-7.824 h -2.608 c 0,5.231 4.171,9.558 9.204,10.309 v 5.032 h 3.068 v -5.032 c 5.032,-0.736 9.204,-5.062 9.204,-10.309 z m -8.13,-13.807 c -2.548,0 -4.603,2.056 -4.603,4.602 v 1.81 l 9.197,0.007 0.007,-1.817 c 0,-2.546 -2.055,-4.602 -4.601,-4.602 z m -4.603,8.184 v 5.622 c 0,2.546 2.055,4.603 4.603,4.603 2.547,0 4.587,-2.057 4.587,-4.603 l 0.008,-5.614 z" fill="#ac1b22"/>
<path d="m 479.331,147.668 v -5.37 c 0,-0.843 -0.69,-1.534 -1.534,-1.534 h -18.408 c -0.844,0 -1.534,0.69 -1.534,1.534 v 15.34 c 0,0.844 0.69,1.534 1.534,1.534 h 18.408 c 0.844,0 1.534,-0.69 1.534,-1.534 v -5.368 l 6.137,6.136 v -16.875 z" fill="#ac1b22"/>
<path clip-path="url(#SVGID_2_)" d="m 894.536,7.852 h -18.409 c -2.547,0 -4.602,2.056 -4.602,4.602 v 27.614 c 0,2.546 2.055,4.602 4.602,4.602 h 18.409 c 2.547,0 4.602,-2.056 4.602,-4.602 V 12.454 c 0,-2.546 -2.055,-4.602 -4.602,-4.602 z m -6.136,33.75 h -6.138 V 40.068 H 888.4 Z M 896.454,37 H 874.209 V 12.454 h 22.245 z" fill="#ac1b22"/>
<path d="M 711.485,249.9" fill="#898989"/>
<rect fill="#898989" height="33.615002" width="57.872002" x="610.91901" y="200.009"/>
<path d="m 673.853,203.321 -0.004,-4.043 c -0.094,-0.919 -0.561,-1.642 -1.49,-1.672 -0.905,-0.03 -1.81,-0.045 -2.716,-0.048 l -1.783,0.015 c -1.642,-0.025 -0.742,-0.021 -2.382,0.033 -0.929,0.03 -1.396,0.752 -1.49,1.672 l -0.014,16.634 10e-4,5.89 v 10.058 c -0.005,0.879 0.003,1.76 0.007,2.64 0,0.81 0.522,1.496 1.544,1.521 2.274,0.058 4.555,0.076 6.828,0.009 0.93,-0.026 1.396,-0.661 1.491,-1.468 l 0.012,-12.663 v -5.443 z" fill="#6b6b6b"/>
<path d="m 614.258,236.046 c 0.848,0 1.533,-0.662 1.533,-1.48 v -35.527 c 0,-0.818 -0.686,-1.48 -1.533,-1.48 h -6.731 c -0.848,0 -1.535,0.662 -1.535,1.48 v 35.527 c 0,0.818 0.688,1.48 1.535,1.48 z" fill="#6b6b6b"/>
<rect fill="#898989" height="87.610001" width="33.613998" x="559.96399" y="92.619003"/>
<path d="m 590.266,185.291 4.044,-0.003 c 0.919,-0.095 1.642,-0.562 1.672,-1.491 0.03,-0.905 0.045,-1.811 0.049,-2.717 l -0.017,-1.782 c 0.026,-1.642 0.022,-0.744 -0.032,-2.383 -0.03,-0.929 -0.753,-1.396 -1.672,-1.49 l -16.635,-0.014 -5.89,0.001 h -10.059 c -0.878,-0.004 -1.759,0.003 -2.639,0.007 -0.81,0 -1.495,0.522 -1.521,1.544 -0.058,2.274 -0.076,4.555 -0.01,6.829 0.027,0.928 0.662,1.396 1.47,1.49 l 12.662,0.013 h 5.442 z" fill="#6b6b6b"/>
<path d="m 557.542,99.58 c 0,1.08 0.662,1.954 1.48,1.954 h 35.527 c 0.817,0 1.48,-0.875 1.48,-1.954 v -8.576 c 0,-1.08 -0.663,-1.954 -1.48,-1.954 h -35.527 c -0.818,0 -1.48,0.874 -1.48,1.954 z" fill="#6b6b6b"/>
<rect fill="#898989" height="33.615002" width="57.872002" x="719.22699" y="200.009"/>
<rect fill="#898989" height="33.615002" width="57.870998" x="778.289" y="200.009"/>
<path d="m 782.16,203.321 -0.004,-4.043 c -0.094,-0.919 -0.562,-1.642 -1.49,-1.672 -0.904,-0.03 -1.812,-0.045 -2.717,-0.048 l -1.782,0.015 c -1.642,-0.025 -0.745,-0.021 -2.383,0.033 -0.93,0.03 -1.396,0.752 -1.492,1.672 l -0.012,16.634 10e-4,5.89 v 10.058 c -0.005,0.879 0.004,1.76 0.007,2.64 0,0.81 0.521,1.496 1.544,1.521 2.274,0.058 4.556,0.076 6.828,0.009 0.929,-0.026 1.396,-0.661 1.49,-1.468 l 0.014,-12.663 -0.002,-5.443 z" fill="#6b6b6b"/>
<path d="m 860.909,203.832 -0.003,-4.042 c -0.095,-0.919 -0.562,-1.641 -1.491,-1.671 -0.904,-0.03 -1.81,-0.045 -2.717,-0.048 l -1.782,0.015 c -1.641,-0.025 -0.743,-0.021 -2.383,0.034 -0.929,0.03 -1.396,0.752 -1.49,1.671 l -0.014,16.635 10e-4,5.89 v 10.057 c -0.004,0.879 0.005,1.76 0.008,2.641 0,0.809 0.521,1.495 1.543,1.521 2.276,0.057 4.556,0.075 6.828,0.01 0.93,-0.027 1.397,-0.662 1.491,-1.469 l 0.014,-12.663 -10e-4,-5.442 z" fill="#6b6b6b"/>
<path d="M 906.801,188.003 910.844,188 c 0.918,-0.094 1.641,-0.562 1.672,-1.491 0.031,-0.904 0.046,-1.81 0.048,-2.716 l -0.015,-1.782 c 0.026,-1.642 0.021,-0.744 -0.033,-2.382 -0.031,-0.929 -0.754,-1.396 -1.672,-1.491 l -16.635,-0.014 -5.891,0.001 h -10.057 c -0.879,-0.004 -1.761,0.003 -2.639,0.006 -0.81,0 -1.495,0.522 -1.521,1.544 -0.058,2.275 -0.076,4.555 -0.011,6.829 0.027,0.929 0.662,1.396 1.47,1.491 l 12.662,0.013 5.442,-0.001 z" fill="#6b6b6b"/>
<path d="m 722.565,236.046 c 0.848,0 1.533,-0.662 1.533,-1.48 v -35.527 c 0,-0.818 -0.686,-1.48 -1.533,-1.48 h -6.731 c -0.848,0 -1.535,0.662 -1.535,1.48 v 35.527 c 0,0.818 0.688,1.48 1.535,1.48 z" fill="#6b6b6b"/>
<rect fill="#898989" height="33.903" width="21.771999" x="598.20599" y="131.595"/>
<path d="m 737.648,270.366 c -0.699,-0.989 -1.49,-1.926 -2.379,-2.769 -1.995,-1.887 -4.48,-3.291 -7.495,-3.72 -0.644,-0.1 -1.318,-0.146 -2.008,-0.146 -9.32,0 -13.77,-4.272 -14.253,-13.085 -0.015,-0.246 -0.021,-0.491 -0.03,-0.744 l 0.07,-9.12 0.007,-0.744 c -0.016,-9.565 -0.077,-19.138 -0.007,-28.702 l -0.04,-14.106 c 0.009,-2.992 0.04,-5.975 0.062,-8.966 0,-0.285 0.007,-0.575 0.007,-0.86 l -0.053,-9.004 -0.008,-0.89 c -0.047,-6.428 -1.267,-12.633 -3.89,-18.493 -1.726,-3.858 -3.214,-7.11 -6.281,-10.24 l -1.129,-1.396 c -1.043,-1.005 -1.234,-1.327 -2,-2.109 -6.098,-6.206 -13.471,-10.148 -21.907,-12.219 -3.92,-0.959 -7.893,-1.358 -11.882,-1.473 -0.422,-0.015 -0.844,-0.023 -1.274,-0.023 -0.084,-0.007 -0.167,-0.007 -0.261,-0.007 h -0.145 c -0.345,-0.008 -0.698,-0.008 -1.043,-0.008 0,0.008 0,0.008 0,0.016 0,3.007 -0.015,5.799 -0.007,8.806 0.007,2.554 0.007,5.116 0.015,7.67 0,2.301 0.008,4.602 0.015,6.903 0,3.56 0.008,7.126 0.015,10.685 0.078,0 0.162,0 0.239,0.008 h 0.146 c 0.806,0.015 1.565,0.069 2.301,0.161 7.164,0.836 11.46,4.833 12.488,11.682 v 0.92 l -0.017,9.028 v 0.837 c 0,17.25 0,34.501 0.009,51.752 l 0.008,0.767 0.029,4.487 c 0.008,1.257 -0.076,3.152 -0.099,5.376 -0.031,3.115 0.053,6.88 0.652,10.463 2.085,12.51 7.96,22.557 18.938,29.269 8.966,5.484 18.893,7.334 29.248,7.44 0.728,0 1.426,-0.023 2.084,-0.069 3.177,-0.229 5.64,-0.981 7.541,-2.07 0.89,-0.498 1.664,-1.073 2.324,-1.71 3.582,-3.399 4.089,-8.331 4.096,-11.66 0.009,-3.016 -1.278,-7.925 -4.086,-11.937 z" fill="#898989"/>
<path d="m 663.159,165.631 c -12.192,-0.047 -35.411,-0.098 -47.603,-0.145 -0.014,-5.72 -0.06,-11.44 -0.031,-17.159 0.031,-5.58 -0.294,-11.161 -0.057,-16.742 11.17,-0.009 36.521,-0.013 47.69,-0.039 v 34.085 z" fill="#898989"/>
<path d="m 735.261,263.731 c 2.382,0 3.986,0.056 5.979,0.066 8.585,0.044 17.171,0.018 25.758,0.017 -0.024,11.296 -0.051,22.591 -0.076,33.888 -10.533,0.063 -21.067,0.128 -31.602,0.192 z" fill="#898989"/>
<path d="m 737.644,267.068 -0.004,-4.042 c -0.094,-0.919 -0.562,-1.641 -1.49,-1.672 -0.904,-0.03 -1.81,-0.045 -2.716,-0.048 l -1.783,0.015 c -1.642,-0.025 -0.742,-0.021 -2.382,0.033 -0.928,0.031 -1.396,0.753 -1.49,1.672 l -0.014,16.634 10e-4,5.891 v 10.057 c -0.005,0.88 0.004,1.761 0.007,2.641 0,0.81 0.522,1.495 1.544,1.521 2.273,0.058 4.555,0.076 6.828,0.01 0.929,-0.027 1.396,-0.661 1.491,-1.469 l 0.013,-12.663 v -5.442 z" fill="#6b6b6b"/>
<path d="m 779.445,267.068 -0.004,-4.042 c -0.121,-0.919 -0.722,-1.641 -1.914,-1.672 -1.162,-0.03 -2.326,-0.045 -3.49,-0.048 l -2.289,0.015 c -2.109,-0.025 -0.956,-0.021 -3.062,0.033 -1.193,0.031 -1.793,0.753 -1.914,1.672 l -0.019,16.634 0.002,5.891 v 10.057 c -0.004,0.88 0.006,1.761 0.01,2.641 0,0.81 0.671,1.495 1.983,1.521 2.922,0.058 5.852,0.076 8.771,0.01 1.192,-0.027 1.793,-0.661 1.914,-1.469 l 0.017,-12.663 -0.002,-5.442 z" fill="#6b6b6b"/>
<path d="m 662.901,167.524 c 0.847,0 1.533,-0.663 1.533,-1.48 v -35.527 c 0,-0.817 -0.687,-1.479 -1.533,-1.479 h -6.733 c -0.846,0 -1.534,0.662 -1.534,1.479 v 35.527 c 0,0.818 0.688,1.48 1.534,1.48 z" fill="#6b6b6b"/>
<path d="m 707.723,188.263 4.042,-0.003 c 0.921,-0.095 1.643,-0.562 1.672,-1.491 0.029,-0.905 0.046,-1.812 0.048,-2.718 l -0.015,-1.781 c 0.025,-1.642 0.021,-0.744 -0.033,-2.383 -0.029,-0.929 -0.751,-1.396 -1.672,-1.491 l -16.634,-0.013 -5.89,10e-4 h -10.058 c -0.879,-0.004 -1.76,0.004 -2.642,0.007 -0.808,0 -1.494,0.521 -1.52,1.543 -0.058,2.276 -0.075,4.556 -0.01,6.828 0.027,0.929 0.661,1.396 1.468,1.491 l 12.664,0.014 5.442,-0.001 z" fill="#6b6b6b"/>
<path d="m 707.723,250.648 4.042,-0.003 c 0.921,-0.094 1.643,-0.562 1.672,-1.49 0.029,-0.905 0.046,-1.812 0.048,-2.718 l -0.015,-1.781 c 0.025,-1.642 0.021,-0.744 -0.033,-2.383 -0.029,-0.929 -0.751,-1.396 -1.672,-1.491 l -16.634,-0.014 -5.89,0.002 h -10.058 c -0.879,-0.005 -1.76,0.004 -2.642,0.007 -0.808,0 -1.494,0.521 -1.52,1.543 -0.058,2.276 -0.075,4.556 -0.01,6.829 0.027,0.928 0.661,1.396 1.468,1.491 l 12.664,0.013 5.442,-0.001 z" fill="#6b6b6b"/>
<path d="m 860.449,9.26 -4.486,0.039 c -1.259,0.007 -3.154,-0.076 -5.377,-0.1 -3.115,-0.031 -6.881,0.046 -10.463,0.645 -12.511,2.094 -22.559,7.969 -29.27,18.945 -5.485,8.966 -7.334,18.892 -7.44,29.247 0,0.729 0.022,1.418 0.068,2.079 0.23,3.183 0.982,5.645 2.071,7.547 0.499,0.891 1.073,1.665 1.711,2.324 3.396,3.575 8.322,4.081 11.65,4.088 3.014,0.008 7.923,-1.273 11.936,-4.088 0.997,-0.69 1.934,-1.48 2.769,-2.37 1.896,-1.995 3.299,-4.479 3.729,-7.494 0.099,-0.652 0.145,-1.319 0.145,-2.017 0,-9.312 4.272,-13.769 13.086,-14.244 0.244,-0.015 0.49,-0.023 0.744,-0.031 l 9.135,-31.924 -0.438,-1.388 z m -9.127,34.571 9.12,0.061 0.742,0.008" fill="#898989"/>
<path d="m 837.492,67.606 c 0,2.38 -0.058,3.987 -0.067,5.979 -0.043,8.586 -0.017,60.098 -0.017,68.684 -11.295,-0.025 -22.591,-0.05 -33.887,-0.076 -0.064,-10.532 -0.129,-63.993 -0.193,-74.526 z" fill="#898989"/>
<path d="m 834.154,69.989 4.042,-0.003 c 0.92,-0.094 1.642,-0.562 1.672,-1.491 0.03,-0.904 0.045,-1.81 0.048,-2.716 l -0.015,-1.782 c 0.024,-1.642 0.021,-0.744 -0.033,-2.382 -0.03,-0.929 -0.752,-1.396 -1.672,-1.491 l -16.634,-0.014 -5.891,10e-4 h -10.057 c -0.879,-0.004 -1.761,0.003 -2.642,0.006 -0.808,0 -1.495,0.522 -1.52,1.544 -0.057,2.275 -0.075,4.555 -0.009,6.829 0.026,0.929 0.66,1.396 1.468,1.491 l 12.663,0.013 5.442,-0.001 z" fill="#6b6b6b"/>
<path d="m 834.154,154.716 4.042,-0.003 c 0.92,-0.121 1.642,-0.722 1.672,-1.915 0.03,-1.163 0.045,-2.326 0.048,-3.491 l -0.015,-2.289 c 0.024,-2.108 0.021,-0.955 -0.033,-3.061 -0.03,-1.193 -0.752,-1.793 -1.672,-1.915 l -16.634,-0.018 -5.891,0.001 h -10.057 c -0.879,-0.005 -1.761,0.005 -2.642,0.009 -0.808,0 -1.495,0.67 -1.52,1.982 -0.057,2.923 -0.075,5.852 -0.009,8.772 0.026,1.192 0.66,1.793 1.468,1.915 l 12.663,0.017 5.442,-0.001 z" fill="#6b6b6b"/>
<path d="m 850.575,40.068 0.003,4.042 c 0.094,0.919 0.562,1.642 1.49,1.672 0.905,0.03 1.812,0.045 2.719,0.048 l 1.78,-0.015 c 1.643,0.025 0.745,0.021 2.384,-0.033 0.929,-0.03 1.396,-0.752 1.491,-1.672 l 0.014,-16.634 -0.003,-5.89 V 11.529 c 0.005,-0.88 -0.004,-1.761 -0.006,-2.641 0,-0.809 -0.521,-1.495 -1.544,-1.521 -2.275,-0.058 -4.556,-0.075 -6.829,-0.009 -0.928,0.027 -1.396,0.661 -1.49,1.469 l -0.014,12.663 0.002,5.442 z" fill="#6b6b6b"/>
<path d="m 906.765,148.073 4.044,-0.003 c 0.919,-0.122 1.641,-0.723 1.671,-1.915 0.031,-1.163 0.046,-2.326 0.049,-3.49 l -0.015,-2.289 c 0.025,-2.109 0.021,-0.955 -0.034,-3.061 -0.03,-1.194 -0.752,-1.793 -1.671,-1.915 l -16.636,-0.018 -5.89,0.001 h -10.056 c -0.88,-0.005 -1.761,0.005 -2.642,0.009 -0.809,0 -1.495,0.67 -1.52,1.982 -0.058,2.923 -0.076,5.852 -0.009,8.772 0.025,1.192 0.659,1.793 1.468,1.915 l 12.661,0.017 5.442,-0.002 z" fill="#6b6b6b"/>
<path d="m 545.79,165.879 c -9.875,-0.048 -28.68,-0.097 -38.555,-0.146 -0.009,-5.719 -0.046,-11.438 -0.022,-17.158 0.022,-5.581 -0.238,-11.162 -0.046,-16.743 9.046,-0.009 29.577,-0.012 38.623,-0.039 z" fill="#898989"/>
<path d="m 556.27,135.446 -0.003,-4.043 c -0.094,-0.919 -0.562,-1.641 -1.491,-1.672 -0.904,-0.03 -1.809,-0.045 -2.716,-0.048 l -1.782,0.016 c -1.642,-0.025 -0.743,-0.021 -2.382,0.033 -0.929,0.031 -1.396,0.753 -1.491,1.672 l -0.014,16.634 0.002,5.891 v 10.057 c -0.005,0.879 0.003,1.76 0.007,2.641 0,0.809 0.522,1.495 1.544,1.521 2.273,0.058 4.554,0.076 6.828,0.01 0.93,-0.027 1.396,-0.662 1.49,-1.469 l 0.013,-12.663 v -5.442 z" fill="#6b6b6b"/>
<path d="m 511.581,135.446 -0.005,-4.043 c -0.121,-0.919 -0.722,-1.641 -1.914,-1.672 -1.163,-0.03 -2.325,-0.045 -3.491,-0.048 l -2.289,0.016 c -2.106,-0.025 -0.954,-0.021 -3.061,0.033 -1.192,0.031 -1.793,0.753 -1.914,1.672 l -0.018,16.634 0.003,5.891 v 10.056 c -0.007,0.879 0.004,1.76 0.009,2.641 0,0.809 0.669,1.495 1.981,1.521 2.924,0.057 5.852,0.075 8.773,0.009 1.192,-0.027 1.793,-0.661 1.915,-1.469 l 0.016,-12.663 -0.001,-5.442 z" fill="#6b6b6b"/>
<path d="m 485.567,235.357 4.044,-0.003 c 0.918,-0.095 1.64,-0.562 1.672,-1.491 0.03,-0.905 0.045,-1.81 0.049,-2.717 l -0.017,-1.782 c 0.026,-1.642 0.021,-0.744 -0.032,-2.383 -0.032,-0.929 -0.754,-1.396 -1.672,-1.491 l -16.635,-0.013 -5.891,0.001 h -10.057 c -0.88,-0.004 -1.761,0.004 -2.641,0.007 -0.809,0 -1.495,0.522 -1.521,1.544 -0.059,2.275 -0.076,4.555 -0.01,6.828 0.026,0.929 0.661,1.396 1.47,1.491 l 12.662,0.013 h 5.441 z" fill="#6b6b6b"/>
<path d="m 485.532,185.839 4.044,-0.004 c 0.918,-0.121 1.64,-0.722 1.672,-1.915 0.029,-1.162 0.044,-2.325 0.047,-3.491 l -0.015,-2.289 c 0.025,-2.109 0.021,-0.955 -0.032,-3.061 -0.032,-1.193 -0.754,-1.793 -1.672,-1.915 l -16.637,-0.017 -5.89,0.002 h -10.056 c -0.88,-0.006 -1.76,0.005 -2.641,0.008 -0.81,0 -1.495,0.67 -1.521,1.983 -0.057,2.922 -0.074,5.851 -0.009,8.771 0.027,1.193 0.661,1.793 1.469,1.915 l 12.661,0.017 5.443,-10e-4 z" fill="#6b6b6b"/>
<rect fill="#898989" height="19.646" width="58.814999" x="608.26398" y="172.229"/>
<rect fill="#898989" height="19.646" width="76.660004" x="718.745" y="172.229"/>
<path d="m 802.028,249.626 c 0.05,-3.188 0.098,-9.26 0.147,-12.448 5.719,-0.004 11.438,-0.016 17.157,-0.007 5.581,0.007 11.162,-0.078 16.744,-0.016 0.009,2.921 0.011,9.551 0.038,12.471 z" fill="#898989"/>
<path d="m 604.048,171.055 c -0.847,0 -1.534,0.384 -1.534,0.857 v 20.587 c 0,0.474 0.688,0.857 1.534,0.857 h 6.731 c 0.847,0 1.535,-0.383 1.535,-0.857 v -20.587 c 0,-0.473 -0.688,-0.857 -1.535,-0.857 z" fill="#6b6b6b"/>
<path d="m 662.734,170.942 c -0.635,0 -1.15,0.384 -1.15,0.857 v 20.588 c 0,0.474 0.516,0.857 1.15,0.857 h 5.049 c 0.635,0 1.15,-0.383 1.15,-0.857 v -20.588 c 0,-0.473 -0.516,-0.857 -1.15,-0.857 z" fill="#6b6b6b"/>
<path d="m 718.882,171.055 c -0.635,0 -1.15,0.384 -1.15,0.857 v 20.587 c 0,0.474 0.516,0.857 1.15,0.857 h 5.05 c 0.634,0 1.151,-0.383 1.151,-0.857 v -20.587 c 0,-0.473 -0.518,-0.857 -1.151,-0.857 z" fill="#6b6b6b"/>
<path d="m 792.771,171.055 c -0.636,0 -1.15,0.384 -1.15,0.857 v 20.587 c 0,0.474 0.515,0.857 1.15,0.857 h 5.051 c 0.633,0 1.15,-0.383 1.15,-0.857 v -20.587 c 0,-0.473 -0.518,-0.857 -1.15,-0.857 z" fill="#6b6b6b"/>
<path d="m 530.149,227.364 v -52.198 h 19.646 v 52.5 c 0,0 -0.377,6.229 7.95,6.229 l 2.387,-0.021 h 24.979 v 19.646 h -24.979 c 0,0 -29.983,2.349 -29.983,-27.349 z" fill="#898989"/>
<path d="m 550.97,175.303 c 0,-0.634 -0.384,-1.15 -0.857,-1.15 h -20.587 c -0.473,0 -0.857,0.516 -0.857,1.15 v 5.05 c 0,0.635 0.385,1.151 0.857,1.151 h 20.587 c 0.474,0 0.857,-0.516 0.857,-1.151 z" fill="#6b6b6b"/>
<rect fill="#898989" height="44.062" width="19.646" x="499.853" y="181.815"/>
<rect fill="#898989" height="63.729" width="14.729" x="1011.978" y="10.591"/>
<path d="m 520.671,179.268 c 0,-0.634 -0.383,-1.151 -0.856,-1.151 h -20.587 c -0.474,0 -0.856,0.517 -0.856,1.151 v 5.05 c 0,0.634 0.383,1.15 0.856,1.15 h 20.587 c 0.474,0 0.856,-0.516 0.856,-1.15 z" fill="#6b6b6b"/>
<path d="m 1029.259,73.062 c 0,-0.582 -0.345,-1.054 -0.772,-1.054 h -18.548 c -0.428,0 -0.772,0.473 -0.772,1.054 v 4.625 c 0,0.582 0.345,1.054 0.772,1.054 h 18.548 c 0.428,0 0.772,-0.473 0.772,-1.054 z" fill="#6b6b6b"/>
<path d="m 1029.389,6.879 c 0,-0.582 -0.347,-1.054 -0.771,-1.054 h -18.549 c -0.426,0 -0.771,0.473 -0.771,1.054 v 4.625 c 0,0.581 0.345,1.053 0.771,1.053 h 18.549 c 0.425,0 0.771,-0.473 0.771,-1.053 z" fill="#6b6b6b"/>
<path d="m 520.671,223.242 c 0,-0.634 -0.383,-1.15 -0.856,-1.15 h -20.587 c -0.474,0 -0.856,0.517 -0.856,1.15 v 5.051 c 0,0.634 0.383,1.151 0.856,1.151 h 20.587 c 0.474,0 0.856,-0.517 0.856,-1.151 z" fill="#6b6b6b"/>
<path d="m 832.621,251.658 4.042,-0.004 c 0.919,-0.121 1.642,-0.722 1.672,-1.914 0.029,-1.163 0.044,-2.326 0.048,-3.49 l -0.016,-2.29 c 0.025,-2.109 0.021,-0.955 -0.032,-3.061 -0.03,-1.193 -0.753,-1.793 -1.672,-1.915 l -16.634,-0.017 -5.891,0.002 H 804.08 c -0.879,-0.005 -1.76,0.005 -2.641,0.009 -0.81,0 -1.495,0.671 -1.521,1.983 -0.057,2.923 -0.075,5.851 -0.008,8.772 0.026,1.192 0.66,1.793 1.468,1.915 l 12.664,0.017 5.442,-0.001 z" fill="#6b6b6b"/>
<path d="m 517.381,291.86 0.003,4.043 c 0.094,0.919 0.562,1.641 1.49,1.672 0.905,0.03 1.811,0.045 2.718,0.048 l 1.78,-0.015 c 1.643,0.025 0.745,0.021 2.384,-0.033 0.929,-0.031 1.396,-0.753 1.491,-1.672 l 0.014,-16.635 -0.002,-5.891 V 263.32 c 0.005,-0.88 -0.004,-1.761 -0.008,-2.64 0,-0.81 -0.521,-1.495 -1.542,-1.521 -2.276,-0.059 -4.557,-0.077 -6.829,-0.011 -0.93,0.027 -1.396,0.663 -1.49,1.47 l -0.014,12.662 10e-4,5.442 z" fill="#6b6b6b"/>
<path d="m 573.374,291.86 0.002,4.043 c 0.096,0.919 0.562,1.641 1.491,1.672 0.905,0.03 1.811,0.045 2.718,0.048 l 1.781,-0.015 c 1.642,0.025 0.744,0.021 2.384,-0.033 0.928,-0.031 1.396,-0.753 1.49,-1.672 l 0.014,-16.635 -10e-4,-5.891 V 263.32 c 0.003,-0.88 -0.005,-1.761 -0.008,-2.64 0,-0.81 -0.521,-1.495 -1.543,-1.521 -2.276,-0.059 -4.556,-0.077 -6.828,-0.011 -0.93,0.027 -1.397,0.663 -1.491,1.47 l -0.014,12.662 10e-4,5.442 z" fill="#6b6b6b"/>
<path d="m 602.786,240.445 -4.044,0.002 c -0.918,0.095 -1.64,0.562 -1.672,1.491 -0.029,0.905 -0.044,1.812 -0.047,2.718 l 0.015,1.781 c -0.025,1.642 -0.021,0.744 0.032,2.383 0.032,0.929 0.754,1.396 1.672,1.491 l 16.635,0.014 5.892,-0.002 h 10.057 c 0.88,0.005 1.761,-0.004 2.64,-0.007 0.809,0 1.495,-0.521 1.521,-1.543 0.059,-2.275 0.077,-4.556 0.01,-6.828 -0.025,-0.929 -0.662,-1.396 -1.469,-1.491 l -12.662,-0.014 -5.442,0.001 z" fill="#6b6b6b"/>
<rect fill="#898989" height="14.104" width="31.319" x="411.77499" y="238.69701"/>
<path d="m 440.458,236.636 c -0.634,0 -1.15,0.298 -1.15,0.666 v 15.984 c 0,0.368 0.517,0.666 1.15,0.666 h 5.05 c 0.636,0 1.15,-0.298 1.15,-0.666 v -15.984 c 0,-0.367 -0.515,-0.666 -1.15,-0.666 z" fill="#6b6b6b"/>
<path d="m 407.093,236.636 c -0.634,0 -1.151,0.298 -1.151,0.666 v 15.984 c 0,0.368 0.517,0.666 1.151,0.666 h 5.05 c 0.635,0 1.15,-0.298 1.15,-0.666 v -15.984 c 0,-0.367 -0.516,-0.666 -1.15,-0.666 z" fill="#6b6b6b"/>
<rect fill="#898989" height="14.104" width="31.318001" x="878.87598" y="238.69701"/>
<path d="m 907.559,236.636 c -0.635,0 -1.15,0.298 -1.15,0.666 v 15.984 c 0,0.368 0.516,0.666 1.15,0.666 h 5.051 c 0.633,0 1.15,-0.298 1.15,-0.666 v -15.984 c 0,-0.367 -0.518,-0.666 -1.15,-0.666 z" fill="#6b6b6b"/>
<path d="m 874.193,236.636 c -0.635,0 -1.15,0.298 -1.15,0.666 v 15.984 c 0,0.368 0.516,0.666 1.15,0.666 h 5.05 c 0.634,0 1.15,-0.298 1.15,-0.666 v -15.984 c 0,-0.367 -0.517,-0.666 -1.15,-0.666 z" fill="#6b6b6b"/>
<rect fill="#898989" height="14.104" width="67.310997" x="277.79199" y="241.164"/>
<path d="m 342.467,239.103 c -0.635,0 -1.15,0.298 -1.15,0.665 v 15.986 c 0,0.367 0.515,0.665 1.15,0.665 h 5.05 c 0.634,0 1.151,-0.298 1.151,-0.665 v -15.986 c 0,-0.367 -0.517,-0.665 -1.151,-0.665 z" fill="#6b6b6b"/>
<path d="m 272.992,239.103 c -0.535,0 -0.971,0.298 -0.971,0.665 v 15.986 c 0,0.367 0.436,0.665 0.971,0.665 h 4.26 c 0.536,0 0.971,-0.298 0.971,-0.665 v -15.986 c 0,-0.367 -0.435,-0.665 -0.971,-0.665 z" fill="#6b6b6b"/>
<rect fill="#898989" height="14.103" width="98.502998" x="113.134" y="241.16499"/>
<path d="m 211.32,239.104 c -0.412,0 -0.748,0.298 -0.748,0.665 v 15.985 c 0,0.367 0.335,0.665 0.748,0.665 h 3.281 c 0.412,0 0.748,-0.298 0.748,-0.665 v -15.985 c 0,-0.367 -0.336,-0.665 -0.748,-0.665 z" fill="#6b6b6b"/>
<path d="m 110.001,239.103 c -0.634,0 -1.15,0.298 -1.15,0.665 v 15.986 c 0,0.367 0.516,0.665 1.15,0.665 h 5.05 c 0.634,0 1.15,-0.298 1.15,-0.665 v -15.986 c 0,-0.367 -0.516,-0.665 -1.15,-0.665 z" fill="#6b6b6b"/>
<rect fill="#898989" height="28.447001" width="19.934999" x="301.58801" y="266.76001"/>
<path d="m 323.794,292.571 c 0,-0.635 -0.422,-1.15 -0.941,-1.15 h -22.594 c -0.519,0 -0.94,0.516 -0.94,1.15 v 5.051 c 0,0.634 0.421,1.15 0.94,1.15 h 22.594 c 0.519,0 0.941,-0.517 0.941,-1.15 z" fill="#6b6b6b"/>
<path d="m 323.794,262.077 c 0,-0.635 -0.422,-1.15 -0.941,-1.15 h -22.594 c -0.519,0 -0.94,0.516 -0.94,1.15 v 5.05 c 0,0.635 0.421,1.15 0.94,1.15 h 22.594 c 0.519,0 0.941,-0.516 0.941,-1.15 z" fill="#6b6b6b"/>
<rect fill="#898989" height="24.702" width="11.75" x="274.05801" y="270.42499"/>
<path d="m 284.891,267.613 c -0.402,0 -0.729,0.521 -0.729,1.165 v 27.997 c 0,0.644 0.327,1.164 0.729,1.164 h 3.193 c 0.402,0 0.729,-0.521 0.729,-1.164 v -27.997 c 0,-0.644 -0.327,-1.165 -0.729,-1.165 z" fill="#6b6b6b"/>
<path d="m 269.375,267.613 c -0.635,0 -1.15,0.521 -1.15,1.165 v 27.997 c 0,0.644 0.515,1.164 1.15,1.164 h 5.05 c 0.634,0 1.151,-0.521 1.151,-1.164 v -27.997 c 0,-0.644 -0.517,-1.165 -1.151,-1.165 z" fill="#6b6b6b"/>
<rect fill="#898989" height="25.190001" width="11.751" x="336.20599" y="270.48001"/>
<path d="m 352.641,298.54 c 0.633,0 1.15,-0.532 1.15,-1.188 v -28.551 c 0,-0.656 -0.517,-1.188 -1.15,-1.188 h -5.051 c -0.635,0 -1.15,0.532 -1.15,1.188 v 28.551 c 0,0.656 0.516,1.188 1.15,1.188 z" fill="#6b6b6b"/>
<path d="m 337.125,298.54 c 0.401,0 0.727,-0.532 0.727,-1.188 v -28.551 c 0,-0.656 -0.325,-1.188 -0.727,-1.188 h -3.195 c -0.4,0 -0.729,0.532 -0.729,1.188 v 28.551 c 0,0.656 0.328,1.188 0.729,1.188 z" fill="#6b6b6b"/>
<rect fill="#898989" height="14.104" width="22.115999" x="498.83301" y="238.69701"/>
<path d="m 518.312,236.636 c -0.634,0 -1.151,0.298 -1.151,0.666 v 15.984 c 0,0.368 0.518,0.666 1.151,0.666 h 5.05 c 0.635,0 1.15,-0.298 1.15,-0.666 v -15.984 c 0,-0.367 -0.516,-0.666 -1.15,-0.666 z" fill="#6b6b6b"/>
<path d="m 497.373,236.636 c -0.636,0 -1.15,0.298 -1.15,0.666 v 15.984 c 0,0.368 0.515,0.666 1.15,0.666 h 5.05 c 0.634,0 1.151,-0.298 1.151,-0.666 v -15.984 c 0,-0.367 -0.518,-0.666 -1.151,-0.666 z" fill="#6b6b6b"/>
<path d="m 555.864,232.7 c -0.636,0 -1.15,0.384 -1.15,0.857 v 20.587 c 0,0.473 0.515,0.857 1.15,0.857 h 5.05 c 0.634,0 1.15,-0.384 1.15,-0.857 v -20.587 c 0,-0.473 -0.517,-0.857 -1.15,-0.857 z" fill="#6b6b6b"/>
<path d="m 551.167,220.43 c 0,-0.634 -0.384,-1.15 -0.857,-1.15 h -20.586 c -0.474,0 -0.857,0.516 -0.857,1.15 v 5.05 c 0,0.635 0.384,1.151 0.857,1.151 h 20.586 c 0.474,0 0.857,-0.516 0.857,-1.151 z" fill="#6b6b6b"/>
<path d="m 582.475,232.7 c -0.633,0 -1.15,0.384 -1.15,0.857 v 20.587 c 0,0.473 0.518,0.857 1.15,0.857 h 5.051 c 0.635,0 1.15,-0.384 1.15,-0.857 v -20.587 c 0,-0.473 -0.516,-0.857 -1.15,-0.857 z" fill="#6b6b6b"/>
<rect fill="#898989" height="56.966999" width="19.646" x="646.86499" y="242.272"/>
<rect fill="#898989" height="84.581001" width="19.646" x="846.21301" y="98.519997"/>
<path d="m 667.685,242.41 c 0,-0.635 -0.384,-1.151 -0.856,-1.151 H 646.24 c -0.474,0 -0.857,0.516 -0.857,1.151 v 5.05 c 0,0.634 0.384,1.15 0.857,1.15 h 20.588 c 0.473,0 0.856,-0.517 0.856,-1.15 v -5.05 z" fill="#6b6b6b"/>
<path d="m 867.187,99.67 c 0,-0.635 -0.384,-1.15 -0.856,-1.15 h -20.588 c -0.474,0 -0.856,0.515 -0.856,1.15 v 5.05 c 0,0.633 0.383,1.15 0.856,1.15 h 20.588 c 0.473,0 0.856,-0.517 0.856,-1.15 z" fill="#6b6b6b"/>
<path d="m 667.685,295.771 c 0,-0.415 -0.384,-0.752 -0.856,-0.752 H 646.24 c -0.474,0 -0.857,0.337 -0.857,0.752 v 3.298 c 0,0.414 0.384,0.751 0.857,0.751 h 20.588 c 0.473,0 0.856,-0.337 0.856,-0.751 v -3.298 z" fill="#6b6b6b"/>
<path d="m 867.187,183.853 c 0,-0.415 -0.384,-0.751 -0.856,-0.751 h -20.588 c -0.474,0 -0.856,0.337 -0.856,0.751 v 3.298 c 0,0.415 0.383,0.751 0.856,0.751 h 20.588 c 0.473,0 0.856,-0.336 0.856,-0.751 z" fill="#6b6b6b"/>
<rect fill="#898989" height="32.178001" width="26.933001" x="643.03003" y="9.8599997"/>
<path d="m 671.52,40.318 c 0,-0.415 -0.519,-0.751 -1.16,-0.751 h -27.844 c -0.641,0 -1.158,0.337 -1.158,0.751 v 3.298 c 0,0.415 0.518,0.751 1.158,0.751 h 27.844 c 0.642,0 1.16,-0.337 1.16,-0.751 z" fill="#6b6b6b"/>
<path d="m 763.78,125.98 c -2.087,-12.503 -7.97,-22.559 -18.946,-29.27 -8.959,-5.485 -18.891,-7.326 -29.239,-7.441 -0.729,0 -1.427,0.023 -2.087,0.069 -3.183,0.23 -5.637,0.982 -7.539,2.071 -0.897,0.499 -1.665,1.074 -2.323,1.71 -3.582,3.398 -4.089,8.33 -4.096,11.659 -0.008,3.014 1.272,7.916 4.087,11.927 0.699,0.998 1.488,1.94 2.379,2.784 1.993,1.879 4.472,3.275 7.485,3.713 0.645,0.1 1.319,0.146 2.018,0.146 9.312,0 13.769,4.272 14.243,13.085 0.016,0.246 0.024,0.491 0.032,0.744 l 0.452,0.077 33.073,5.638 0.537,-0.575 0.468,-0.499 c -0.008,-1.257 0.076,-3.152 0.101,-5.377 0.037,-3.113 -0.047,-6.879 -0.645,-10.461 z" fill="#898989"/>
<path d="m 706.02,123.35 c -2.38,0 -3.986,-0.056 -5.979,-0.067 -8.585,-0.044 -35.579,-0.017 -44.166,-0.016 0.025,-11.296 0.05,-22.592 0.075,-33.888 10.534,-0.063 39.478,-0.128 50.011,-0.192 z" fill="#898989"/>
<path d="m 703.637,120.013 0.004,4.042 c 0.094,0.919 0.562,1.641 1.49,1.672 0.905,0.03 1.81,0.045 2.716,0.048 l 1.783,-0.015 c 1.642,0.025 0.743,0.021 2.382,-0.033 0.93,-0.031 1.396,-0.753 1.49,-1.672 l 0.014,-16.635 -10e-4,-5.89 V 91.473 c 0.005,-0.879 -0.003,-1.76 -0.007,-2.64 0,-0.809 -0.522,-1.496 -1.544,-1.521 -2.273,-0.058 -4.555,-0.076 -6.828,-0.01 -0.929,0.027 -1.396,0.662 -1.49,1.469 l -0.013,12.663 v 5.442 z" fill="#6b6b6b"/>
<path d="m 643.427,120.013 0.004,4.042 c 0.121,0.919 0.722,1.641 1.914,1.672 1.162,0.03 2.326,0.045 3.49,0.048 l 2.29,-0.015 c 2.108,0.025 0.955,0.021 3.061,-0.033 1.193,-0.031 1.793,-0.753 1.914,-1.672 l 0.019,-16.635 -0.003,-5.89 V 91.473 c 0.005,-0.879 -0.005,-1.76 -0.009,-2.64 0,-0.809 -0.671,-1.496 -1.983,-1.521 -2.923,-0.058 -5.852,-0.076 -8.771,-0.01 -1.192,0.027 -1.793,0.662 -1.914,1.469 l -0.017,12.663 10e-4,5.442 z" fill="#6b6b6b"/>
<path d="m 733.559,136.433 -4.043,0.003 c -0.919,0.094 -1.643,0.562 -1.672,1.49 -0.029,0.905 -0.045,1.812 -0.048,2.718 l 0.016,1.781 c -0.026,1.642 -0.022,0.744 0.032,2.383 0.029,0.929 0.753,1.396 1.672,1.491 l 16.634,0.014 5.892,-0.002 h 10.057 c 0.878,0.005 1.759,-0.004 2.641,-0.007 0.809,0 1.495,-0.521 1.521,-1.543 0.059,-2.275 0.075,-4.556 0.01,-6.828 -0.027,-0.929 -0.662,-1.396 -1.469,-1.491 l -12.664,-0.013 -5.442,0.001 z" fill="#6b6b6b"/>
<path d="m 760.934,247.63 4.043,-0.003 c 0.918,-0.094 1.641,-0.562 1.672,-1.49 0.029,-0.905 0.044,-1.811 0.048,-2.717 l -0.015,-1.782 c 0.024,-1.642 0.021,-0.744 -0.033,-2.383 -0.031,-0.929 -0.754,-1.396 -1.672,-1.491 l -16.636,-0.014 -5.89,0.001 h -10.058 c -0.879,-0.005 -1.76,0.004 -2.64,0.007 -0.809,0 -1.495,0.522 -1.52,1.544 -0.06,2.275 -0.077,4.555 -0.012,6.828 0.027,0.929 0.663,1.396 1.47,1.491 l 12.662,0.013 5.443,-10e-4 z" fill="#6b6b6b"/>
<path d="m 952.992,83.294 c -0.23,-1.549 -0.567,-3.091 -1.052,-4.625 -2.069,-6.582 -6.014,-12.334 -12.218,-17.097 -0.782,-0.599 -1.112,-0.744 -2.11,-1.565 l -1.396,-0.875 c -3.173,-1.986 -1.757,-1.568 -5.645,-3.375 -5.627,-2.616 -12.065,-3 -18.485,-3.03 l -3.559,-0.023 -6.336,-0.031 c -1.173,0.008 -2.355,0.016 -3.528,0.031 -2.102,0.008 -4.196,0.023 -6.298,0.023 l -14.104,-0.031 c -8.133,0.054 -16.255,0.022 -18.679,0.007 -0.429,0 -0.682,-0.007 -0.721,-0.007 l 0.031,27.046 h 43.283 l 6.358,-0.008 h 3.582 c 5.017,0.583 8.499,2.539 10.332,5.729 0.875,1.512 1.382,3.306 1.496,5.37 0.016,0.246 0.03,0.491 0.03,0.736 3.559,0.008 7.118,0.008 10.686,0.015 2.301,0.008 0,-1.526 2.301,-1.519 2.554,0 5.108,0 7.671,0.008 3.014,0 5.806,-0.008 8.821,-0.008 v -0.13 c -0.015,-2.215 -0.131,-4.432 -0.46,-6.641 z" fill="#898989"/>
<path d="m 859.595,77.091 -0.004,3.24 c -0.094,0.738 -0.562,1.317 -1.49,1.34 -0.905,0.024 -1.811,0.037 -2.716,0.039 l -1.783,-0.012 c -1.642,0.021 -0.742,0.017 -2.382,-0.027 -0.93,-0.023 -1.396,-0.602 -1.49,-1.34 l -0.014,-13.335 10e-4,-4.723 V 54.21 c -0.005,-0.705 0.003,-1.412 0.006,-2.118 0,-0.649 0.523,-1.199 1.545,-1.219 2.273,-0.046 4.555,-0.061 6.828,-0.008 0.929,0.022 1.396,0.53 1.49,1.177 l 0.013,10.153 v 4.363 z" fill="#6b6b6b"/>
<path d="m 908.538,76.681 -0.002,3.241 c -0.095,0.737 -0.562,1.316 -1.49,1.34 -0.906,0.024 -1.812,0.036 -2.719,0.038 l -1.78,-0.012 c -1.643,0.021 -0.745,0.017 -2.384,-0.026 -0.929,-0.024 -1.396,-0.603 -1.491,-1.34 l -0.014,-13.336 10e-4,-4.723 V 53.8 c -0.003,-0.705 0.005,-1.412 0.009,-2.118 0,-0.649 0.521,-1.199 1.542,-1.219 2.276,-0.046 4.558,-0.06 6.829,-0.007 0.93,0.021 1.396,0.53 1.49,1.177 l 0.014,10.152 -10e-4,4.364 z" fill="#6b6b6b"/>
<path d="m 948.521,136.059 c 4.361,0 16.643,0.044 20.293,0.053 15.729,0.036 27.592,0.013 43.321,0.013 -0.044,9.056 -0.092,18.112 -0.138,27.169 -19.298,0.051 -44.07,0.103 -63.367,0.154 z" fill="#898989"/>
<path d="m 979.31,138.734 -0.003,-3.241 c -0.094,-0.737 -0.562,-1.316 -1.49,-1.34 -0.905,-0.024 -1.811,-0.036 -2.717,-0.039 l -1.782,0.012 c -1.642,-0.02 -0.743,-0.017 -2.382,0.027 -0.93,0.024 -1.396,0.604 -1.491,1.34 l -0.013,13.337 10e-4,4.723 v 8.063 c -0.005,0.706 0.003,1.411 0.005,2.117 0,0.648 0.524,1.198 1.546,1.219 2.273,0.046 4.554,0.06 6.828,0.007 0.929,-0.021 1.396,-0.53 1.49,-1.177 l 0.013,-10.152 v -4.364 z" fill="#6b6b6b"/>
<path d="m 952.364,127.292 3.745,-0.003 c 0.852,-0.094 1.521,-0.562 1.55,-1.491 0.026,-0.904 0.042,-1.81 0.043,-2.716 l -0.014,-1.782 c 0.024,-1.642 0.02,-0.743 -0.029,-2.382 -0.028,-0.929 -0.698,-1.396 -1.55,-1.491 l -15.411,-0.014 -5.457,0.002 h -9.318 c -0.815,-0.004 -1.629,0.003 -2.445,0.005 -0.751,0 -1.386,0.523 -1.409,1.545 -0.055,2.274 -0.069,4.554 -0.009,6.828 0.023,0.929 0.613,1.396 1.36,1.491 l 11.733,0.012 h 5.04 z" fill="#6b6b6b"/>
<path d="m 952.364,99.613 3.745,-0.003 c 0.852,-0.094 1.521,-0.562 1.55,-1.491 0.026,-0.904 0.042,-1.81 0.043,-2.716 l -0.014,-1.783 c 0.024,-1.642 0.02,-0.743 -0.029,-2.382 -0.028,-0.929 -0.698,-1.396 -1.55,-1.491 l -15.411,-0.014 -5.457,0.002 h -9.318 c -0.815,-0.005 -1.629,0.003 -2.445,0.005 -0.751,0 -1.386,0.523 -1.409,1.544 -0.055,2.274 -0.069,4.555 -0.009,6.829 0.023,0.929 0.613,1.396 1.36,1.491 l 11.733,0.012 h 5.04 z" fill="#6b6b6b"/>
<path d="m 1024.582,138.734 v -3.241 c -0.121,-0.737 -0.722,-1.316 -1.915,-1.34 -1.161,-0.024 -2.325,-0.036 -3.489,-0.039 l -2.289,0.012 c -2.109,-0.02 -0.957,-0.017 -3.061,0.027 -1.194,0.024 -1.793,0.604 -1.916,1.34 l -0.017,13.337 10e-4,4.723 v 8.063 c 0,0.706 0.01,1.411 0.01,2.117 0,0.648 0.672,1.198 1.984,1.219 2.922,0.046 5.851,0.06 8.771,0.007 1.192,-0.021 1.793,-0.53 1.914,-1.177 l 0.016,-10.152 -10e-4,-4.364 z" fill="#6b6b6b"/>
<path d="m 330.184,102.893 -0.03,-3.912 -27.085,-0.253 v 8.622 c 0,2.454 -0.022,4.916 -0.046,7.371 0,0.345 -0.008,0.683 -0.008,1.027 l 0.046,3.728 27.123,0.031 0.007,-3.766 v -12.272 z" fill="#898989"/>
<path d="m 350.097,52.444 -7.702,0.039 -0.76,0.008 c -5.492,0.038 -10.8,0.982 -15.808,2.992 -3.299,1.327 -6.083,2.477 -8.759,4.832 l -1.197,0.867 c -0.851,0.806 -1.127,0.952 -1.795,1.534 -5.308,4.694 -8.674,10.363 -10.447,16.852 -0.858,3.145 -1.181,11.145 -1.266,15.786 -0.022,0.82 -0.03,1.534 -0.03,2.102 2.584,-0.008 4.962,0.008 7.547,0 2.186,0 4.364,-0.008 6.558,-0.008 1.964,-0.008 3.936,-0.008 5.898,-0.015 3.046,0 4.902,-0.069 7.948,-0.077 0.007,-0.628 -0.008,-1.304 -0.024,-2.001 -0.191,-6.796 -0.92,-16.253 11.346,-16.253 h 0.782 l 7.724,0.007 z" fill="#898989"/>
<path d="M 302.34,96.335" fill="#898989"/>
<path d="m 333.099,96.535 c 0,-0.651 -0.566,-1.181 -1.266,-1.181 h -30.374 c -0.698,0 -1.265,0.53 -1.265,1.181 v 5.176 c 0,0.65 0.566,1.18 1.265,1.18 h 30.374 c 0.7,0 1.266,-0.529 1.266,-1.18 z" fill="#6b6b6b"/>
<path d="m 350.829,55.416 -0.003,-3.108 c -0.081,-0.707 -0.479,-1.262 -1.273,-1.285 -0.774,-0.023 -1.549,-0.035 -2.324,-0.037 l -1.523,0.012 c -1.404,-0.021 -0.637,-0.017 -2.038,0.025 -0.794,0.023 -1.194,0.579 -1.275,1.285 l -0.01,12.789 v 4.53 7.732 c -0.003,0.676 0.004,1.354 0.008,2.031 0,0.622 0.445,1.149 1.318,1.168 1.946,0.045 3.895,0.059 5.838,0.008 0.794,-0.021 1.194,-0.508 1.275,-1.129 l 0.01,-9.737 v -4.186 z" fill="#6b6b6b"/>
<path d="m 404.165,55.416 -0.003,-3.108 c -0.081,-0.707 -0.48,-1.262 -1.275,-1.285 -0.773,-0.023 -1.547,-0.035 -2.323,-0.037 l -1.522,0.012 c -1.404,-0.021 -0.637,-0.017 -2.038,0.025 -0.794,0.023 -1.194,0.579 -1.275,1.285 l -0.012,12.789 0.001,4.53 v 7.732 c -0.002,0.676 0.005,1.354 0.006,2.031 0,0.622 0.446,1.149 1.319,1.168 1.946,0.045 3.896,0.059 5.838,0.008 0.794,-0.021 1.194,-0.508 1.275,-1.129 l 0.01,-9.737 -0.002,-4.186 z" fill="#6b6b6b"/>
<path d="m 333.099,115.902 c 0,-0.651 -0.566,-1.181 -1.266,-1.181 h -30.374 c -0.698,0 -1.265,0.53 -1.265,1.181 v 5.176 c 0,0.651 0.566,1.179 1.265,1.179 h 30.374 c 0.7,0 1.266,-0.528 1.266,-1.179 z" fill="#6b6b6b"/>
<path d="m 484.319,55.416 -0.002,-3.108 c -0.082,-0.707 -0.481,-1.262 -1.275,-1.285 -0.773,-0.023 -1.547,-0.035 -2.324,-0.037 l -1.521,0.012 c -1.403,-0.021 -0.637,-0.017 -2.037,0.025 -0.794,0.023 -1.194,0.579 -1.275,1.285 l -0.012,12.789 0.001,4.53 v 7.732 c -0.003,0.676 0.005,1.354 0.006,2.031 0,0.622 0.447,1.149 1.32,1.168 1.945,0.045 3.896,0.059 5.838,0.008 0.794,-0.021 1.194,-0.508 1.275,-1.129 l 0.011,-9.737 -0.002,-4.186 z" fill="#6b6b6b"/>
<path d="m 554.354,55.416 -0.005,-3.108 c -0.108,-0.707 -0.657,-1.262 -1.748,-1.285 -1.061,-0.023 -2.124,-0.035 -3.188,-0.037 l -2.09,0.012 c -1.928,-0.021 -0.872,-0.017 -2.796,0.025 -1.089,0.023 -1.639,0.579 -1.748,1.285 l -0.017,12.789 0.003,4.53 v 7.732 c -0.007,0.676 0.005,1.354 0.007,2.031 0,0.622 0.613,1.149 1.812,1.168 2.67,0.045 5.344,0.059 8.011,0.008 1.09,-0.021 1.637,-0.508 1.75,-1.129 l 0.015,-9.737 -0.003,-4.186 z" fill="#6b6b6b"/>
<path d="m 788.977,54.254 c -1.081,0.008 -2.154,0.008 -3.229,0.008 l -14.104,-0.03 c -0.975,0.007 -1.948,0.007 -2.915,0.015 -5.562,0.023 -10.793,0.016 -13.814,0 h -0.054 c -1.573,-0.007 -2.539,-0.015 -2.616,-0.015 v 0.015 l 0.032,27.031 h 43.283 l 0.015,-27.069 c -2.202,0.015 -4.405,0.03 -6.598,0.045 z" fill="#898989"/>
<path d="m 754.913,54.247 h -2.67 c -3.751,0.008 -7.5,0.016 -11.251,0.016 l -10.418,-0.008 -9.862,-0.008 -19.553,-0.015 c -17.558,0.038 -35.113,0.03 -45.462,0.015 -5.567,0 -9.043,-0.007 -9.304,-0.015 l 0.075,27.045 H 768.68 l 0.047,-27.031 v -0.038 c -4.61,0.009 -9.212,0.024 -13.814,0.039 z" fill="#898989"/>
<path d="m 655.705,78.215 -0.004,3.241 c -0.117,0.738 -0.691,1.317 -1.839,1.34 -1.116,0.024 -2.233,0.037 -3.352,0.039 l -2.198,-0.012 c -2.027,0.021 -0.918,0.017 -2.94,-0.027 -1.147,-0.023 -1.723,-0.603 -1.839,-1.34 l -0.017,-13.335 0.002,-4.723 v -8.062 c -0.007,-0.705 0.005,-1.412 0.007,-2.118 0,-0.648 0.645,-1.199 1.905,-1.219 2.807,-0.045 5.62,-0.06 8.425,-0.007 1.146,0.021 1.723,0.529 1.84,1.177 l 0.015,10.153 v 4.363 z" fill="#6b6b6b"/>
<path d="m 730.587,78.215 -0.003,3.241 c -0.095,0.738 -0.562,1.317 -1.491,1.34 -0.904,0.024 -1.812,0.037 -2.717,0.039 l -1.78,-0.012 c -1.643,0.021 -0.745,0.017 -2.385,-0.027 -0.929,-0.023 -1.396,-0.603 -1.49,-1.34 l -0.014,-13.335 10e-4,-4.723 v -8.062 c -0.004,-0.705 0.005,-1.412 0.008,-2.118 0,-0.648 0.521,-1.199 1.543,-1.219 2.276,-0.045 4.556,-0.06 6.829,-0.007 0.928,0.021 1.396,0.529 1.49,1.177 l 0.014,10.153 -10e-4,4.363 z" fill="#6b6b6b"/>
<path d="m 798.854,78.215 -0.003,3.241 c -0.095,0.738 -0.562,1.317 -1.491,1.34 -0.904,0.024 -1.812,0.037 -2.718,0.039 l -1.781,-0.012 c -1.643,0.021 -0.744,0.017 -2.384,-0.027 -0.929,-0.023 -1.396,-0.603 -1.49,-1.34 l -0.013,-13.335 10e-4,-4.723 v -8.062 c -0.004,-0.705 0.005,-1.412 0.007,-2.118 0,-0.648 0.521,-1.199 1.544,-1.219 2.275,-0.045 4.556,-0.06 6.828,-0.007 0.929,0.021 1.396,0.529 1.491,1.177 l 0.014,10.153 -0.003,4.363 z" fill="#6b6b6b"/>
<path d="m 785.794,10.056 c -3.751,0.01 -7.503,0.019 -11.253,0.019 l -10.416,-0.009 -9.865,-0.01 -19.551,-0.019 c -17.557,0.047 -35.115,0.037 -45.462,0.019 -5.569,0 -9.042,-0.009 -9.304,-0.019 l 0.076,33.092 h 104.065 v 1.906 z" fill="#898989"/>
<path d="m 689.254,39.382 -0.003,3.966 c -0.116,0.902 -0.693,1.611 -1.839,1.64 -1.117,0.03 -2.234,0.044 -3.353,0.047 L 681.86,45.02 c -2.025,0.025 -0.917,0.021 -2.938,-0.032 -1.146,-0.029 -1.724,-0.737 -1.84,-1.64 l -0.017,-16.318 0.002,-5.778 v -9.866 c -0.005,-0.862 0.004,-1.727 0.009,-2.591 0,-0.793 0.644,-1.466 1.904,-1.492 2.807,-0.056 5.62,-0.073 8.426,-0.008 1.146,0.026 1.722,0.648 1.837,1.44 l 0.018,12.422 -0.003,5.34 z" fill="#6b6b6b"/>
<path d="m 790.982,39.382 -0.004,3.966 c -0.094,0.902 -0.561,1.611 -1.49,1.64 -0.904,0.03 -1.81,0.044 -2.716,0.047 l -1.783,-0.015 c -1.642,0.025 -0.742,0.021 -2.382,-0.032 -0.93,-0.029 -1.396,-0.737 -1.49,-1.64 l -0.014,-16.318 0.001,-5.778 v -9.866 c -0.005,-0.862 0.004,-1.727 0.007,-2.591 0,-0.793 0.522,-1.466 1.544,-1.492 2.273,-0.056 4.555,-0.073 6.828,-0.008 0.93,0.026 1.396,0.648 1.491,1.44 l 0.012,12.422 v 5.34 z" fill="#6b6b6b"/>
<path d="m 630.486,10.056 c -3.751,0.01 -7.503,0.019 -11.253,0.019 l -10.416,-0.009 -9.865,-0.01 -19.551,-0.019 c -17.557,0.047 -35.115,0.037 -45.462,0.019 -5.569,0 -9.044,-0.009 -9.305,-0.019 l 0.077,33.092 h 104.065 v 1.906 z" fill="#898989"/>
<path d="m 533.946,39.382 -0.003,3.966 c -0.116,0.902 -0.693,1.611 -1.84,1.64 -1.116,0.03 -2.233,0.044 -3.352,0.047 l -2.199,-0.015 c -2.025,0.025 -0.917,0.021 -2.939,-0.032 -1.146,-0.029 -1.723,-0.737 -1.839,-1.64 l -0.017,-16.318 0.001,-5.778 v -9.866 c -0.004,-0.862 0.005,-1.727 0.01,-2.591 0,-0.793 0.644,-1.466 1.904,-1.492 2.807,-0.056 5.62,-0.073 8.424,-0.008 1.147,0.026 1.724,0.648 1.839,1.44 l 0.018,12.422 -0.003,5.34 z" fill="#6b6b6b"/>
<path d="m 635.675,39.382 -0.004,3.966 c -0.094,0.902 -0.562,1.611 -1.49,1.64 -0.904,0.03 -1.811,0.044 -2.716,0.047 l -1.783,-0.015 c -1.642,0.025 -0.742,0.021 -2.382,-0.032 -0.93,-0.029 -1.396,-0.737 -1.49,-1.64 l -0.014,-16.318 10e-4,-5.778 v -9.866 c -0.005,-0.862 0.003,-1.727 0.006,-2.591 0,-0.793 0.523,-1.466 1.545,-1.492 2.273,-0.056 4.555,-0.073 6.828,-0.008 0.929,0.026 1.396,0.648 1.491,1.44 l 0.012,12.422 v 5.34 z" fill="#6b6b6b"/>
<path d="m 409.688,39.382 -0.004,3.966 c -0.116,0.902 -0.693,1.611 -1.839,1.64 -1.117,0.03 -2.234,0.044 -3.352,0.047 l -2.2,-0.015 c -2.025,0.025 -0.917,0.021 -2.939,-0.032 -1.146,-0.029 -1.723,-0.737 -1.84,-1.64 l -0.017,-16.318 0.002,-5.778 v -9.866 c -0.005,-0.862 0.004,-1.727 0.009,-2.591 0,-0.793 0.644,-1.466 1.904,-1.492 2.808,-0.056 5.621,-0.073 8.425,-0.008 1.146,0.026 1.724,0.648 1.839,1.44 l 0.016,12.422 -0.001,5.34 z" fill="#6b6b6b"/>
<path d="m 946.497,44.168 c -11.867,-0.049 -21.993,-0.098 -33.862,-0.146 -0.012,-5.719 -0.056,-11.439 -0.028,-17.159 0.028,-5.581 -0.286,-11.161 -0.054,-16.742 10.872,-0.009 23.074,-0.013 33.944,-0.039 z" fill="#898989"/>
<path d="M 920.416,13.734 920.412,9.692 C 920.291,8.773 919.691,8.05 918.498,8.02 917.336,7.99 916.172,7.975 915.008,7.972 l -2.289,0.015 c -2.109,-0.025 -0.957,-0.021 -3.062,0.033 -1.193,0.031 -1.792,0.753 -1.913,1.672 l -0.019,16.634 10e-4,5.891 v 10.056 c -0.004,0.879 0.006,1.76 0.01,2.641 0,0.809 0.671,1.495 1.983,1.521 2.922,0.057 5.852,0.075 8.771,0.009 1.192,-0.027 1.793,-0.661 1.914,-1.468 l 0.017,-12.663 -0.002,-5.443 z" fill="#6b6b6b"/>
<rect fill="#898989" height="33.611" width="50.548" x="49.986" y="264.629"/>
<path d="m 54.78,289.649 c 0,-2.485 -0.007,-4.97 -0.007,-7.463 -0.007,-2.24 -0.007,-4.479 -0.015,-6.72 -0.008,-3.459 -0.017,-6.926 -0.024,-10.393 -0.406,-0.008 -0.804,-0.016 -1.195,-0.046 -0.054,0 -0.108,-0.009 -0.154,-0.016 -0.238,-0.007 -0.475,-0.03 -0.706,-0.054 -2.001,-0.199 -3.782,-0.652 -5.315,-1.365 -3.866,-1.787 -6.228,-5.178 -6.934,-10.056 l 0.007,-3.345 v -0.145 l 0.008,-6.19 H 40.269 L 7.747,243.872 H 7.739 l 0.007,1.258 0.023,4.917 0.007,0.138 0.015,3.314 c 0.046,6.259 1.197,12.295 3.667,17.995 1.626,3.759 3.038,6.927 5.93,9.972 l 1.065,1.356 c 0.982,0.976 1.159,1.297 1.879,2.049 5.761,6.044 12.709,9.88 20.664,11.896 2.094,0.529 4.203,0.882 6.32,1.104 1.78,0.191 3.575,0.291 5.362,0.338 0.23,0.007 0.468,0.016 0.706,0.016 h 0.154 c 0.414,0.015 0.829,0.015 1.242,0.015 -0.007,-2.937 0.008,-5.652 0,-8.591 z" fill="#898989"/>
<path d="M 53.415,298.23" fill="#898989"/>
<rect fill="#898989" height="35.259998" width="32.521999" x="7.5289998" y="177.81599"/>
<rect fill="#898989" height="35.200001" width="32.521999" x="7.5289998" y="210.076"/>
<path d="m 37.285,250.339 4.043,-0.003 c 0.918,-0.094 1.64,-0.562 1.672,-1.491 0.029,-0.905 0.045,-1.811 0.047,-2.717 l -0.015,-1.782 c 0.025,-1.642 0.021,-0.744 -0.033,-2.383 -0.032,-0.929 -0.754,-1.396 -1.672,-1.491 l -16.635,-0.013 -5.891,0.001 H 8.746 c -0.88,-0.004 -1.761,0.004 -2.64,0.007 -0.809,0 -1.495,0.522 -1.52,1.544 -0.059,2.275 -0.077,4.555 -0.011,6.828 0.027,0.929 0.662,1.396 1.469,1.491 l 12.663,0.013 5.442,-10e-4 z" fill="#6b6b6b"/>
<path d="m 4.546,182.514 c 0,0.848 0.662,1.534 1.479,1.534 h 35.528 c 0.818,0 1.479,-0.686 1.479,-1.534 v -6.731 c 0,-0.848 -0.662,-1.534 -1.479,-1.534 H 6.026 c -0.818,0 -1.479,0.687 -1.479,1.534 v 6.731 z" fill="#6b6b6b"/>
<path d="m 92.567,267.705 0.003,-4.042 c 0.121,-0.919 0.722,-1.642 1.915,-1.672 1.163,-0.03 2.327,-0.044 3.491,-0.048 l 2.289,0.015 c 2.109,-0.025 0.956,-0.021 3.061,0.033 1.194,0.031 1.793,0.753 1.915,1.672 l 0.018,16.634 -0.001,5.891 v 10.057 c 0.004,0.88 -0.006,1.761 -0.009,2.641 0,0.809 -0.671,1.495 -1.983,1.521 -2.923,0.058 -5.852,0.075 -8.772,0.01 -1.192,-0.027 -1.793,-0.661 -1.915,-1.469 l -0.017,-12.663 0.002,-5.442 z" fill="#6b6b6b"/>
<path d="m 57.423,300.457 c 0.848,0 1.535,-0.662 1.535,-1.48 V 263.45 c 0,-0.818 -0.687,-1.48 -1.535,-1.48 h -6.731 c -0.848,0 -1.534,0.662 -1.534,1.48 v 35.527 c 0,0.818 0.687,1.48 1.534,1.48 z" fill="#6b6b6b"/>
<rect fill="#898989" height="64.771004" width="22.737" x="771.992" y="97.056"/>
<path d="m 796.088,94.508 c 0,-0.634 -0.443,-1.15 -0.992,-1.15 h -23.828 c -0.548,0 -0.99,0.516 -0.99,1.15 v 5.051 c 0,0.634 0.442,1.15 0.99,1.15 h 23.828 c 0.549,0 0.992,-0.516 0.992,-1.15 z" fill="#6b6b6b"/>
<path d="m 796.088,159.193 c 0,-0.635 -0.443,-1.15 -0.992,-1.15 h -23.828 c -0.548,0 -0.99,0.516 -0.99,1.15 v 5.05 c 0,0.635 0.442,1.151 0.99,1.151 h 23.828 c 0.549,0 0.992,-0.516 0.992,-1.151 z" fill="#6b6b6b"/>
<rect fill="#898989" height="33.612" width="59.166" x="49.465" y="43.208"/>
<path d="m 54.259,43.208 c -0.414,0 -0.829,0 -1.242,0.016 h -0.154 c -0.238,0 -0.475,0.007 -0.706,0.015 -1.787,0.046 -3.582,0.146 -5.362,0.338 -2.117,0.222 -4.225,0.575 -6.32,1.104 -7.955,2.017 -14.903,5.853 -20.664,11.896 -0.722,0.752 -0.897,1.074 -1.88,2.048 l -1.065,1.357 c -2.894,3.045 -4.304,6.213 -5.93,9.972 C 8.467,75.653 7.316,81.69 7.27,87.949 l -0.015,3.314 -0.007,0.138 -0.022,4.917 -0.008,1.258 h 0.008 l 32.522,0.016 h 0.175 l -0.007,-6.19 v -0.145 l -0.007,-3.345 c 0.706,-4.879 3.068,-8.269 6.934,-10.056 1.534,-0.713 3.313,-1.166 5.315,-1.365 0.23,-0.023 0.468,-0.046 0.706,-0.054 0.046,-0.008 0.101,-0.016 0.154,-0.016 0.391,-0.031 0.79,-0.039 1.196,-0.046 0.007,-3.467 0.017,-6.934 0.024,-10.393 0.007,-2.24 0.007,-4.479 0.015,-6.72 0,-2.493 0.008,-4.978 0.008,-7.463 0.006,-2.938 -0.01,-5.653 -0.002,-8.591 z" fill="#898989"/>
<path d="M 52.893,43.218" fill="#898989"/>
<rect fill="#898989" height="35.261002" width="32.521999" x="7.0079999" y="82.143997"/>
<path d="m 36.763,91.11 4.044,0.003 c 0.918,0.095 1.64,0.562 1.671,1.491 0.03,0.905 0.045,1.811 0.048,2.717 l -0.015,1.782 c 0.025,1.642 0.021,0.744 -0.033,2.383 -0.031,0.929 -0.753,1.396 -1.671,1.49 l -16.635,0.014 -5.891,-10e-4 H 8.225 c -0.88,0.004 -1.76,-0.003 -2.64,-0.007 -0.809,0 -1.495,-0.522 -1.521,-1.543 C 4.005,97.164 3.988,94.884 4.054,92.611 4.08,91.682 4.716,91.214 5.524,91.12 l 12.662,-0.013 5.442,0.001 z" fill="#6b6b6b"/>
<path d="m 5.505,120.971 c -0.818,0 -1.48,-0.686 -1.48,-1.533 v -6.731 c 0,-0.848 0.662,-1.534 1.48,-1.534 h 35.528 c 0.818,0 1.48,0.687 1.48,1.534 v 6.731 c 0,0.848 -0.662,1.533 -1.48,1.533" fill="#6b6b6b"/>
<path d="m 100.664,73.743 0.003,4.042 c 0.122,0.919 0.723,1.642 1.915,1.672 1.163,0.03 2.327,0.044 3.49,0.048 l 2.289,-0.015 c 2.109,0.025 0.956,0.021 3.06,-0.033 1.194,-0.031 1.793,-0.753 1.914,-1.672 l 0.018,-16.634 -10e-4,-5.891 V 45.205 c 0.004,-0.88 -0.006,-1.761 -0.009,-2.641 0,-0.809 -0.671,-1.495 -1.983,-1.521 -2.923,-0.058 -5.852,-0.075 -8.771,-0.009 -1.192,0.026 -1.793,0.661 -1.915,1.469 l -0.016,12.663 0.001,5.442 z" fill="#6b6b6b"/>
<path d="m 56.902,40.992 c 0.848,0 1.534,0.662 1.534,1.48 v 35.527 c 0,0.818 -0.687,1.48 -1.534,1.48 h -6.731 c -0.848,0 -1.535,-0.662 -1.535,-1.48 V 42.472 c 0,-0.818 0.687,-1.48 1.535,-1.48 z" fill="#6b6b6b"/>
<path d="m 1001.726,69.643 0.265,9.507 c 1.146,7.665 6.386,11.759 15.166,11.855 0.01,3.561 0.014,7.122 0.021,10.683 0,2.301 0.01,4.602 0.014,6.903 0,2.558 0.011,5.114 0.015,7.671 0,3.017 -0.011,5.805 -0.01,8.823 -4.897,-0.013 -9.791,-0.329 -14.606,-1.511 -8.436,-2.071 -15.809,-6.011 -21.91,-12.221 -0.764,-0.779 -0.952,-1.106 -1.996,-2.106 l -1.13,-1.398 c -3.066,-3.128 -4.56,-6.385 -6.283,-10.243 -2.62,-5.86 -3.843,-12.065 -3.889,-18.493 l -0.061,-9.896 z" fill="#898989"/>
<path d="m 1024.584,95.161 v -4.043 c -0.094,-0.918 -0.562,-1.64 -1.49,-1.671 -0.905,-0.03 -1.812,-0.045 -2.718,-0.048 l -1.781,0.015 c -1.643,-0.025 -0.745,-0.021 -2.384,0.033 -0.929,0.031 -1.396,0.753 -1.491,1.671 l -0.013,16.636 v 5.89 10.056 c 0,0.88 0,1.761 0.01,2.64 0,0.809 0.521,1.495 1.543,1.521 2.275,0.059 4.557,0.076 6.828,0.01 0.93,-0.027 1.396,-0.662 1.49,-1.469 l 0.014,-12.663 v -5.442 z" fill="#6b6b6b"/>
<path d="m 967.483,65.829 -0.052,-9.578 c -1.148,-7.665 -6.387,-11.759 -15.168,-11.855 -0.006,-3.561 -0.013,-7.122 -0.021,-10.683 -0.005,-2.301 -0.009,-4.603 -0.014,-6.903 -0.004,-2.558 -0.01,-5.114 -0.015,-7.67 -0.005,-3.018 0.012,-5.805 0.007,-8.823 4.898,0.012 9.792,0.329 14.606,1.512 8.437,2.071 15.809,6.011 21.91,12.221 0.765,0.778 0.954,1.106 1.998,2.105 l 1.129,1.397 c 3.066,3.129 4.559,6.385 6.283,10.243 2.621,5.861 3.843,12.066 3.888,18.493 l 0.062,9.896 z" fill="#898989"/>
<path d="m 946.05,40.241 0.003,4.043 c 0.095,0.918 0.562,1.64 1.491,1.672 0.904,0.03 1.812,0.045 2.717,0.047 l 1.782,-0.015 c 1.641,0.025 0.744,0.021 2.383,-0.033 0.929,-0.032 1.396,-0.754 1.491,-1.672 l 0.014,-16.635 -0.002,-5.891 V 11.702 c 0.004,-0.879 -0.005,-1.761 -0.007,-2.64 0,-0.81 -0.521,-1.495 -1.544,-1.521 -2.275,-0.059 -4.556,-0.077 -6.829,-0.011 -0.928,0.027 -1.396,0.663 -1.49,1.469 l -0.014,12.663 0.002,5.442 z" fill="#6b6b6b"/>
<path d="m 971.696,62.802 -4.044,0.003 c -0.918,0.094 -1.64,0.562 -1.672,1.491 -0.029,0.905 -0.045,1.811 -0.048,2.718 l 0.016,1.781 c -0.025,1.642 -0.021,0.745 0.032,2.384 0.032,0.929 0.754,1.396 1.672,1.491 l 16.635,0.014 5.892,-0.002 h 10.057 c 0.88,0.005 1.76,-0.004 2.64,-0.007 0.809,0 1.495,-0.521 1.521,-1.543 0.059,-2.276 0.077,-4.556 0.01,-6.829 -0.026,-0.928 -0.662,-1.396 -1.469,-1.491 l -12.662,-0.013 -5.443,10e-4 z" fill="#6b6b6b"/>
<rect fill="#898989" height="35.377998" width="33.615002" x="61.269001" y="85.454002"/>
<path d="m 64.408,92.19 -4.043,-0.002 c -0.919,-0.09 -1.641,-0.536 -1.671,-1.42 -0.03,-0.862 -0.045,-1.726 -0.048,-2.589 l 0.015,-1.697 c -0.025,-1.565 -0.021,-0.709 0.034,-2.271 0.031,-0.886 0.752,-1.33 1.671,-1.42 L 77,82.777 l 5.891,0.001 h 10.057 c 0.879,-0.003 1.76,0.005 2.641,0.007 0.809,0 1.495,0.499 1.52,1.472 0.058,2.167 0.076,4.339 0.01,6.505 -0.027,0.884 -0.662,1.33 -1.469,1.419 l -12.663,0.013 -5.443,-0.001 z" fill="#6b6b6b"/>
<path d="m 99.281,165.879 c -11.869,-0.048 -34.471,-0.097 -46.341,-0.146 -0.011,-5.719 -0.055,-11.438 -0.027,-17.158 0.027,-5.581 -0.287,-11.162 -0.055,-16.743 10.874,-0.009 35.55,-0.012 46.423,-0.039 z" fill="#898989"/>
<path d="m 100.652,135.41 -0.003,-4.043 c -0.094,-0.919 -0.562,-1.641 -1.49,-1.672 -0.905,-0.029 -1.811,-0.045 -2.717,-0.048 l -1.782,0.015 c -1.642,-0.025 -0.744,-0.021 -2.383,0.033 -0.929,0.031 -1.396,0.753 -1.491,1.672 l -0.013,16.634 0.001,5.891 v 10.057 c -0.005,0.879 0.004,1.76 0.007,2.64 0,0.809 0.522,1.495 1.543,1.521 2.275,0.058 4.555,0.076 6.829,0.01 0.929,-0.027 1.396,-0.662 1.491,-1.469 l 0.012,-12.663 v -5.443 z" fill="#6b6b6b"/>
<path d="m 60.723,135.446 -0.004,-4.043 c -0.121,-0.919 -0.722,-1.641 -1.915,-1.672 -1.162,-0.03 -2.326,-0.045 -3.491,-0.048 l -2.289,0.016 c -2.108,-0.025 -0.955,-0.021 -3.061,0.033 -1.193,0.031 -1.793,0.753 -1.915,1.672 l -0.017,16.634 0.002,5.891 v 10.056 c -0.006,0.879 0.005,1.76 0.008,2.641 0,0.809 0.67,1.495 1.983,1.521 2.923,0.057 5.852,0.075 8.772,0.009 1.193,-0.027 1.793,-0.661 1.915,-1.469 l 0.017,-12.663 -0.001,-5.442 z" fill="#6b6b6b"/>
<path d="m 91.57,122.625 4.043,-0.002 c 0.919,-0.07 1.641,-0.417 1.672,-1.106 0.03,-0.671 0.045,-1.343 0.048,-2.015 l -0.016,-1.321 c 0.026,-1.218 0.021,-0.551 -0.033,-1.768 -0.031,-0.689 -0.752,-1.036 -1.672,-1.105 l -16.634,-0.01 -5.89,0.001 H 63.032 c -0.879,-0.003 -1.76,0.003 -2.641,0.005 -0.809,0 -1.495,0.387 -1.521,1.145 -0.058,1.687 -0.075,3.378 -0.01,5.064 0.027,0.689 0.662,1.036 1.469,1.105 l 12.663,0.009 h 5.442 z" fill="#6b6b6b"/>
<rect fill="#898989" height="76.796997" width="33.615002" x="61.269001" y="174.942"/>
<path d="m 64.408,181.678 -4.043,-0.003 c -0.919,-0.09 -1.641,-0.535 -1.671,-1.42 -0.03,-0.861 -0.045,-1.725 -0.048,-2.589 l 0.015,-1.697 c -0.025,-1.564 -0.021,-0.709 0.034,-2.27 0.031,-0.885 0.752,-1.33 1.671,-1.42 L 77,172.265 l 5.891,0.002 h 10.057 c 0.879,-0.004 1.76,0.004 2.641,0.006 0.809,0 1.495,0.498 1.52,1.471 0.058,2.168 0.076,4.34 0.01,6.506 -0.027,0.884 -0.662,1.33 -1.469,1.42 l -12.663,0.012 -5.443,-10e-4 z" fill="#6b6b6b"/>
<path d="m 91.57,256.6 4.043,-0.002 c 0.919,-0.07 1.641,-0.417 1.672,-1.106 0.03,-0.671 0.045,-1.343 0.048,-2.015 l -0.016,-1.321 c 0.026,-1.218 0.021,-0.552 -0.033,-1.767 -0.031,-0.689 -0.752,-1.036 -1.672,-1.105 l -16.634,-0.011 -5.89,0.002 H 63.032 c -0.879,-0.003 -1.76,0.003 -2.641,0.004 -0.809,0 -1.495,0.388 -1.521,1.145 -0.058,1.688 -0.075,3.378 -0.01,5.064 0.027,0.689 0.662,1.035 1.469,1.105 l 12.663,0.009 h 5.442 z" fill="#6b6b6b"/>
<rect fill="#898989" height="19.646" width="52.194" x="9.4519997" y="11.691"/>
<path d="m 5.855,10.519 c -0.722,0 -1.309,0.383 -1.309,0.857 v 20.587 c 0,0.473 0.586,0.857 1.309,0.857 h 5.744 c 0.723,0 1.309,-0.384 1.309,-0.857 V 11.375 c 0,-0.474 -0.586,-0.857 -1.309,-0.857 H 5.855 Z" fill="#6b6b6b"/>
<path d="m 58.804,10.519 c -0.542,0 -0.981,0.383 -0.981,0.857 v 20.587 c 0,0.473 0.439,0.857 0.981,0.857 h 4.308 c 0.542,0 0.981,-0.384 0.981,-0.857 V 11.375 c 0,-0.474 -0.44,-0.857 -0.981,-0.857 h -4.308 z" fill="#6b6b6b"/>
<path d="m 671.52,9.047 c 0,-0.546 -0.519,-0.991 -1.16,-0.991 h -27.844 c -0.641,0 -1.158,0.445 -1.158,0.991 v 4.352 c 0,0.546 0.518,0.991 1.158,0.991 h 27.844 c 0.642,0 1.16,-0.445 1.16,-0.991 z" fill="#6b6b6b"/>
<rect fill="#898989" height="28.893999" width="14.104" x="161.326" y="11.265"/>
<path d="m 177.036,37.523 c 0,-0.634 -0.298,-1.15 -0.665,-1.15 h -15.985 c -0.367,0 -0.665,0.516 -0.665,1.15 v 5.05 c 0,0.635 0.298,1.151 0.665,1.151 h 15.985 c 0.367,0 0.665,-0.516 0.665,-1.151 z" fill="#6b6b6b"/>
<path d="m 177.491,7.225 c 0,-0.634 -0.298,-1.15 -0.666,-1.15 h -15.984 c -0.367,0 -0.666,0.516 -0.666,1.15 v 5.05 c 0,0.634 0.298,1.151 0.666,1.151 h 15.984 c 0.368,0 0.666,-0.517 0.666,-1.151 z" fill="#6b6b6b"/>
<rect fill="#898989" height="28.893999" width="14.103" x="161.782" y="92.059998"/>
<path d="m 177.491,118.317 c 0,-0.634 -0.298,-1.15 -0.666,-1.15 h -15.984 c -0.367,0 -0.666,0.516 -0.666,1.15 v 5.05 c 0,0.635 0.298,1.15 0.666,1.15 h 15.984 c 0.368,0 0.666,-0.516 0.666,-1.15 z" fill="#6b6b6b"/>
<path d="m 177.491,88.02 c 0,-0.634 -0.298,-1.15 -0.666,-1.15 h -15.984 c -0.367,0 -0.666,0.516 -0.666,1.15 v 5.05 c 0,0.634 0.298,1.151 0.666,1.151 h 15.984 c 0.368,0 0.666,-0.517 0.666,-1.151 z" fill="#6b6b6b"/>
<path d="m 353.461,88.792 c -7.148,-0.002 -12.934,-0.005 -15.227,-0.005 0.022,11.133 0.045,22.267 0.066,33.4 2.611,0.019 8.23,0.037 15.156,0.054 z" fill="#898989"/>
<path d="m 293.632,88.793 c -26.834,-0.001 -48.553,-0.004 -57.157,-0.004 0.082,11.133 0.166,22.266 0.248,33.4 9.798,0.019 30.893,0.036 56.89,0.053 z" fill="#898989"/>
<path d="m 467.665,88.712 c -33,-0.002 -59.513,-0.005 -70.093,-0.005 0.1,11.161 0.027,33.399 0.027,33.399 12.048,0.018 38.076,0.12 70.043,0.137 z" fill="#898989"/>
<path d="m 442.172,155.432 c 10e-4,-24.829 0.006,-44.922 0.006,-52.884 -11.297,0.076 -22.594,0.152 -33.893,0.228 -0.021,9.065 -0.036,28.586 -0.055,52.639 z" fill="#898989"/>
<path d="m 466.632,122.962 c 2.38,0 3.986,-0.056 5.979,-0.067 8.585,-0.044 17.171,-0.017 25.756,-0.016 -0.023,-11.296 -0.049,-22.592 -0.074,-33.888 -10.533,-0.063 -21.068,-0.128 -31.602,-0.192 z" fill="#898989"/>
<path d="m 469.014,119.625 -0.003,4.042 c -0.095,0.919 -0.562,1.641 -1.491,1.672 -0.904,0.029 -1.81,0.044 -2.716,0.047 l -1.782,-0.015 c -1.643,0.025 -0.743,0.021 -2.382,-0.033 -0.93,-0.031 -1.396,-0.753 -1.491,-1.672 l -0.014,-16.635 0.002,-5.89 V 91.085 c -0.005,-0.879 0.003,-1.76 0.006,-2.64 0,-0.809 0.523,-1.495 1.545,-1.521 2.273,-0.058 4.554,-0.076 6.828,-0.01 0.929,0.027 1.396,0.661 1.491,1.469 l 0.012,12.663 v 5.442 z" fill="#6b6b6b"/>
<path d="m 510.816,119.625 -0.004,4.042 c -0.121,0.919 -0.722,1.641 -1.914,1.672 -1.163,0.029 -2.327,0.044 -3.492,0.047 l -2.288,-0.015 c -2.109,0.025 -0.956,0.021 -3.061,-0.033 -1.193,-0.031 -1.793,-0.753 -1.915,-1.672 l -0.018,-16.635 10e-4,-5.89 V 91.085 c -0.005,-0.879 0.007,-1.76 0.009,-2.64 0,-0.809 0.672,-1.495 1.984,-1.521 2.923,-0.058 5.851,-0.076 8.771,-0.01 1.192,0.027 1.793,0.661 1.914,1.469 l 0.017,12.663 -10e-4,5.442 z" fill="#6b6b6b"/>
<path d="m 225.818,91.578 0.003,-4.047 c 0.134,-0.921 0.799,-1.644 2.117,-1.673 1.287,-0.03 2.573,-0.045 3.861,-0.048 l 2.532,0.015 c 2.333,-0.025 1.057,-0.021 3.385,0.033 1.32,0.03 1.983,0.752 2.118,1.673 l 0.019,16.651 -0.001,5.896 v 10.066 c 0.005,0.88 -0.006,1.762 -0.01,2.643 0,0.811 -0.742,1.497 -2.192,1.522 -3.233,0.058 -6.472,0.075 -9.702,0.01 -1.318,-0.027 -1.982,-0.662 -2.117,-1.471 l -0.018,-12.675 0.001,-5.447 z" fill="#6b6b6b"/>
<path d="m 290.479,91.577 0.002,-4.047 c 0.068,-0.92 0.407,-1.644 1.08,-1.673 0.656,-0.03 1.312,-0.046 1.969,-0.048 l 1.291,0.015 c 1.189,-0.025 0.538,-0.021 1.726,0.034 0.673,0.029 1.011,0.752 1.081,1.673 l 0.009,16.65 v 5.897 10.067 c 0.002,0.881 -0.003,1.762 -0.006,2.644 0,0.809 -0.377,1.496 -1.118,1.521 -1.648,0.058 -3.3,0.076 -4.947,0.01 -0.672,-0.026 -1.011,-0.662 -1.08,-1.47 l -0.009,-12.676 v -5.448 z" fill="#6b6b6b"/>
<path d="m 350.72,91.577 10e-4,-4.047 c 0.038,-0.92 0.228,-1.643 0.605,-1.673 0.367,-0.03 0.735,-0.046 1.104,-0.048 l 0.723,0.015 c 0.667,-0.025 0.303,-0.021 0.968,0.033 0.377,0.03 0.568,0.753 0.605,1.673 l 0.005,16.651 v 5.897 10.066 c 0.002,0.881 -0.003,1.763 -0.003,2.644 0,0.81 -0.212,1.496 -0.627,1.521 -0.924,0.058 -1.85,0.076 -2.773,0.01 -0.377,-0.027 -0.568,-0.663 -0.607,-1.471 l -0.005,-12.675 v -5.448 z" fill="#6b6b6b"/>
<path d="m 397.516,91.577 0.002,-4.047 c 0.068,-0.92 0.407,-1.644 1.08,-1.673 0.656,-0.03 1.312,-0.046 1.969,-0.048 l 1.292,0.015 c 1.189,-0.025 0.538,-0.021 1.726,0.034 0.673,0.029 1.011,0.752 1.081,1.673 l 0.009,16.65 v 5.897 10.067 c 10e-4,0.881 -0.003,1.762 -0.006,2.644 0,0.809 -0.377,1.496 -1.118,1.521 -1.649,0.058 -3.3,0.076 -4.947,0.01 -0.672,-0.026 -1.011,-0.662 -1.08,-1.47 l -0.009,-12.676 v -5.448 z" fill="#6b6b6b"/>
<path d="m 335.989,91.577 0.003,-4.047 c 0.067,-0.92 0.406,-1.644 1.079,-1.673 0.656,-0.03 1.312,-0.046 1.968,-0.048 l 1.291,0.015 c 1.19,-0.025 0.54,-0.021 1.726,0.034 0.674,0.029 1.011,0.752 1.08,1.673 l 0.011,16.65 -10e-4,5.897 v 10.067 c 0.002,0.881 -0.003,1.762 -0.005,2.644 0,0.809 -0.379,1.496 -1.119,1.521 -1.647,0.058 -3.3,0.076 -4.947,0.01 -0.672,-0.026 -1.011,-0.662 -1.08,-1.47 l -0.009,-12.676 0.002,-5.448 z" fill="#6b6b6b"/>
<path d="m 438.727,143.696 4.046,0.001 c 0.922,0.069 1.644,0.408 1.674,1.08 0.03,0.656 0.046,1.312 0.048,1.969 l -0.016,1.291 c 0.025,1.189 0.021,0.539 -0.032,1.726 -0.03,0.673 -0.752,1.011 -1.674,1.08 l -16.649,0.01 -5.896,-0.001 H 410.16 c -0.88,0.003 -1.761,-0.003 -2.642,-0.005 -0.811,0 -1.497,-0.378 -1.522,-1.118 -0.059,-1.649 -0.077,-3.301 -0.01,-4.947 0.026,-0.672 0.662,-1.011 1.471,-1.08 l 12.676,-0.009 5.447,10e-4 z" fill="#6b6b6b"/>
<path d="m 1017.811,246.851 c -2.492,0 -4.979,0.007 -7.463,0.016 -2.24,0 -4.479,0.007 -6.72,0.007 -3.467,0.009 -6.934,0.016 -10.401,0.024 -0.007,0.713 -0.045,1.396 -0.114,2.056 -0.683,7.041 -4.603,11.259 -11.421,12.25 l -3.345,-0.009 h -0.139 l -6.19,-0.008 v 0.184 l 0.008,32.53 1.267,-0.007 4.909,-0.03 h 0.138 l 3.321,-0.024 c 6.251,-0.037 12.287,-1.196 17.996,-3.666 3.749,-1.626 6.918,-3.038 9.964,-5.929 l 1.364,-1.06 c 0.966,-0.989 1.288,-1.166 2.047,-1.886 6.046,-5.753 9.871,-12.71 11.891,-20.664 0.974,-3.859 1.342,-7.764 1.441,-11.682 0.022,-0.698 0.03,-1.397 0.03,-2.095 -2.938,0 -5.653,-0.015 -8.583,-0.007 z" fill="#898989"/>
<path d="M 1026.389,248.223" fill="#898989"/>
<path d="m 978.211,264.889 -0.004,-3.916 c -0.093,-0.892 -0.546,-1.591 -1.452,-1.621 -0.878,-0.028 -1.762,-0.043 -2.643,-0.046 l -1.734,0.015 c -1.599,-0.025 -0.724,-0.021 -2.318,0.032 -0.904,0.03 -1.359,0.729 -1.451,1.621 l -0.014,16.116 0.002,5.708 v 9.744 c -0.004,0.852 0.005,1.706 0.007,2.559 0,0.783 0.508,1.448 1.502,1.474 2.214,0.056 4.433,0.074 6.645,0.01 0.904,-0.025 1.359,-0.642 1.451,-1.424 l 0.012,-12.269 v -5.274 z" fill="#6b6b6b"/>
<rect fill="#898989" height="65.358002" width="33.615002" x="993.06702" y="178.66901"/>
<path d="m 996.38,173.608 -4.041,0.003 c -0.921,0.094 -1.643,0.562 -1.672,1.491 -0.03,0.905 -0.046,1.81 -0.048,2.716 l 0.015,1.783 c -0.025,1.642 -0.021,0.744 0.033,2.382 0.029,0.929 0.751,1.396 1.672,1.49 l 16.634,0.014 5.89,-0.001 h 10.057 c 0.88,0.004 1.761,-0.003 2.642,-0.006 0.81,0 1.495,-0.523 1.521,-1.544 0.057,-2.274 0.074,-4.555 0.01,-6.828 -0.027,-0.929 -0.661,-1.397 -1.468,-1.491 l -12.664,-0.012 h -5.443 z" fill="#6b6b6b"/>
<path d="m 1029.105,240.689 c 0,-0.848 -0.662,-1.534 -1.48,-1.534 h -35.526 c -0.817,0 -1.479,0.686 -1.479,1.534 v 6.731 c 0,0.848 0.662,1.534 1.479,1.534 h 35.526 c 0.818,0 1.48,-0.686 1.48,-1.534 z" fill="#6b6b6b"/>
<rect fill="#898989" height="33.615002" width="121.131" x="852.15802" y="261.36801"/>
<path d="m 978.351,264.68 -0.003,-4.043 c -0.094,-0.918 -0.562,-1.64 -1.49,-1.672 -0.905,-0.029 -1.812,-0.045 -2.718,-0.048 l -1.781,0.015 c -1.642,-0.026 -0.744,-0.021 -2.383,0.033 -0.93,0.032 -1.396,0.754 -1.491,1.672 l -0.014,16.635 0.002,5.891 v 10.057 c -0.005,0.88 0.004,1.761 0.008,2.64 0,0.81 0.521,1.495 1.542,1.521 2.276,0.059 4.556,0.076 6.829,0.011 0.928,-0.027 1.396,-0.662 1.49,-1.47 l 0.014,-12.662 -10e-4,-5.442 z" fill="#6b6b6b"/>
<path d="m 907.272,264.68 -0.003,-4.043 c -0.094,-0.918 -0.562,-1.64 -1.49,-1.672 -0.904,-0.029 -1.812,-0.045 -2.717,-0.048 l -1.782,0.015 c -1.642,-0.026 -0.745,-0.021 -2.384,0.033 -0.929,0.032 -1.396,0.754 -1.49,1.672 l -0.014,16.635 0.002,5.891 v 10.057 c -0.005,0.88 0.005,1.761 0.007,2.64 0,0.81 0.521,1.495 1.544,1.521 2.275,0.059 4.556,0.076 6.828,0.011 0.929,-0.027 1.396,-0.662 1.491,-1.47 l 0.012,-12.662 -10e-4,-5.442 z" fill="#6b6b6b"/>
<path d="m 859.12,297.404 c 1.081,0 1.953,-0.662 1.953,-1.479 v -35.528 c 0,-0.818 -0.872,-1.48 -1.953,-1.48 h -8.575 c -1.08,0 -1.955,0.662 -1.955,1.48 v 35.528 c 0,0.817 0.875,1.479 1.955,1.479 z" fill="#6b6b6b"/>
<path d="m 952.646,232.487 4.045,-0.003 c 0.918,-0.095 1.64,-0.562 1.671,-1.491 0.03,-0.905 0.045,-1.811 0.049,-2.717 l -0.016,-1.782 c 0.025,-1.642 0.021,-0.744 -0.033,-2.383 -0.031,-0.929 -0.753,-1.396 -1.671,-1.491 l -16.636,-0.013 -5.891,0.001 h -10.057 c -0.879,-0.004 -1.76,0.003 -2.64,0.006 -0.81,0 -1.495,0.522 -1.521,1.544 -0.059,2.275 -0.077,4.555 -0.011,6.828 0.027,0.929 0.662,1.396 1.47,1.491 l 12.662,0.013 5.441,-0.001 z" fill="#6b6b6b"/>
<path d="m 952.646,181.862 4.045,-0.002 c 0.918,-0.094 1.64,-0.562 1.671,-1.491 0.03,-0.905 0.045,-1.811 0.049,-2.717 l -0.016,-1.782 c 0.025,-1.642 0.021,-0.744 -0.033,-2.383 -0.031,-0.929 -0.753,-1.396 -1.671,-1.491 l -16.636,-0.013 -5.891,0.001 h -10.057 c -0.879,-0.004 -1.76,0.004 -2.64,0.007 -0.81,0 -1.495,0.522 -1.521,1.544 -0.059,2.275 -0.077,4.555 -0.011,6.828 0.027,0.929 0.662,1.396 1.47,1.491 l 12.662,0.013 h 5.441 z" fill="#6b6b6b"/>
<rect fill="#898989" height="67.311996" width="14.104" x="967.46698" y="179.15601"/>
<path d="m 983.632,243.831 c 0,-0.634 -0.299,-1.151 -0.665,-1.151 h -15.985 c -0.367,0 -0.665,0.517 -0.665,1.151 v 5.051 c 0,0.634 0.298,1.151 0.665,1.151 h 15.985 c 0.366,0 0.665,-0.517 0.665,-1.151 z" fill="#6b6b6b"/>
<path d="m 983.632,174.356 c 0,-0.535 -0.299,-0.971 -0.665,-0.971 h -15.985 c -0.367,0 -0.665,0.436 -0.665,0.971 v 4.261 c 0,0.536 0.298,0.971 0.665,0.971 h 15.985 c 0.366,0 0.665,-0.435 0.665,-0.971 z" fill="#6b6b6b"/>
</svg>